<svg xmlns="http://www.w3.org/2000/svg" width="21.3" height="21.3" viewBox="0 0 21.3 21.3"><defs><style>.cls-1{fill:none;stroke:#f3a11e;stroke-miterlimit:10;stroke-width:2px;}.cls-2{fill:#f3a11e;}</style></defs><title>Asset 22</title><g id="Layer_2" data-name="Layer 2"><g id="Layer_1-2" data-name="Layer 1"><circle class="cls-1" cx="10.65" cy="10.65" r="9.65"/><path class="cls-2" d="M9.52,6a1.1,1.1,0,0,1,.85-.33A1.06,1.06,0,0,1,11,6v.8a2.83,2.83,0,0,1,1.74.91c.75.91.36,2,.71,3.54A7.2,7.2,0,0,0,15,14.15l-3.53-.07a1.14,1.14,0,0,1-1.19,1.2,1.13,1.13,0,0,1-.93-1.13H5.65a7.68,7.68,0,0,0,1.46-3.26c.25-1.37,0-2.32.65-3.16a2.94,2.94,0,0,1,1.76-1Z"/></g></g></svg>
