<?xml version="1.0" encoding="utf-8"?>
<!-- Generator: Adobe Illustrator 24.0.1, SVG Export Plug-In . SVG Version: 6.00 Build 0)  -->
<svg version="1.1" id="Layer_1" xmlns="http://www.w3.org/2000/svg" xmlns:xlink="http://www.w3.org/1999/xlink" x="0px" y="0px"
	 viewBox="0 0 504 216" style="enable-background:new 0 0 504 216;" xml:space="preserve">
<style type="text/css">
	.st0{fill:none;stroke:#000000;stroke-miterlimit:10;}
</style>
<path class="st0" d="M29.27,87.74h6.1l13.5,35.5h-7.1l-3.3-8.85h-12.4l-3.25,8.85h-7.1L29.27,87.74z M37.22,109.54l-4.9-13.95
	l-5.1,13.95H37.22z"/>
<path class="st0" d="M52.77,123.24v-35.5h6.9v29.45h18.1v6.05H52.77z"/>
<path class="st0" d="M81.97,123.24v-35.5h6.9v29.45h18.1v6.05H81.97z"/>
<path class="st0" d="M111.17,123.24v-35.5h6.9v35.5H111.17z"/>
<path class="st0" d="M146.62,97.04c-0.23-0.23-0.66-0.55-1.27-0.95c-0.62-0.4-1.37-0.79-2.25-1.18c-0.88-0.38-1.84-0.71-2.88-0.97
	c-1.03-0.27-2.08-0.4-3.15-0.4c-1.9,0-3.32,0.35-4.25,1.05c-0.93,0.7-1.4,1.68-1.4,2.95c0,0.73,0.18,1.34,0.52,1.83
	c0.35,0.48,0.86,0.91,1.53,1.27c0.67,0.37,1.51,0.7,2.52,1c1.02,0.3,2.19,0.62,3.52,0.95c1.73,0.47,3.31,0.97,4.73,1.5
	c1.42,0.53,2.62,1.2,3.6,2c0.98,0.8,1.74,1.76,2.27,2.88c0.53,1.12,0.8,2.49,0.8,4.12c0,1.9-0.36,3.53-1.07,4.88
	c-0.72,1.35-1.68,2.44-2.9,3.28c-1.22,0.83-2.62,1.44-4.2,1.82c-1.58,0.38-3.24,0.58-4.98,0.58c-2.67,0-5.3-0.4-7.9-1.2
	c-2.6-0.8-4.93-1.93-7-3.4l3.05-5.95c0.3,0.3,0.84,0.69,1.62,1.17c0.78,0.48,1.71,0.97,2.77,1.45c1.07,0.48,2.25,0.89,3.55,1.22
	c1.3,0.33,2.63,0.5,4,0.5c3.8,0,5.7-1.22,5.7-3.65c0-0.77-0.22-1.42-0.65-1.95c-0.43-0.53-1.05-1-1.85-1.4
	c-0.8-0.4-1.77-0.77-2.9-1.1c-1.13-0.33-2.4-0.7-3.8-1.1c-1.7-0.47-3.18-0.98-4.43-1.52c-1.25-0.55-2.29-1.2-3.12-1.95
	c-0.83-0.75-1.46-1.62-1.88-2.6c-0.42-0.98-0.62-2.16-0.62-3.52c0-1.8,0.33-3.4,1-4.8c0.67-1.4,1.59-2.57,2.78-3.5
	c1.18-0.93,2.56-1.64,4.12-2.12c1.57-0.48,3.25-0.73,5.05-0.73c2.5,0,4.8,0.39,6.9,1.17c2.1,0.78,3.93,1.71,5.5,2.78L146.62,97.04z"
	/>
<path class="st0" d="M171.27,123.49c-2.6,0-4.96-0.51-7.08-1.53c-2.12-1.02-3.93-2.37-5.45-4.05c-1.52-1.68-2.69-3.61-3.53-5.77
	c-0.83-2.17-1.25-4.38-1.25-6.65c0-2.37,0.44-4.63,1.33-6.8c0.88-2.17,2.1-4.08,3.65-5.75c1.55-1.67,3.39-2.99,5.52-3.98
	c2.13-0.98,4.45-1.48,6.95-1.48c2.57,0,4.91,0.52,7.02,1.58c2.12,1.05,3.93,2.42,5.43,4.12c1.5,1.7,2.67,3.63,3.5,5.8
	c0.83,2.17,1.25,4.37,1.25,6.6c0,2.37-0.43,4.62-1.3,6.78c-0.87,2.15-2.07,4.05-3.6,5.7s-3.37,2.97-5.5,3.95
	C176.09,122.99,173.77,123.49,171.27,123.49z M160.97,105.49c0,1.53,0.23,3.02,0.7,4.45c0.47,1.43,1.14,2.7,2.02,3.8
	c0.88,1.1,1.97,1.98,3.25,2.65c1.28,0.67,2.74,1,4.38,1c1.67,0,3.14-0.34,4.43-1.02c1.28-0.68,2.37-1.59,3.25-2.73
	c0.88-1.13,1.55-2.41,2-3.83c0.45-1.42,0.67-2.86,0.67-4.32c0-1.53-0.24-3.02-0.73-4.45c-0.48-1.43-1.17-2.7-2.05-3.8
	c-0.88-1.1-1.97-1.98-3.25-2.62c-1.28-0.65-2.73-0.98-4.33-0.98c-1.67,0-3.15,0.34-4.45,1.02c-1.3,0.68-2.38,1.58-3.25,2.7
	c-0.87,1.12-1.53,2.38-1.98,3.8C161.2,102.58,160.97,104.02,160.97,105.49z"/>
<path class="st0" d="M200.82,100.49v22.75h-6.9v-35.5h5.35l18.5,23.3V87.79h6.9v35.45h-5.6L200.82,100.49z"/>
<path class="st0" d="M272.67,114.09c0,1.5-0.3,2.82-0.9,3.95c-0.6,1.13-1.43,2.08-2.47,2.85c-1.05,0.77-2.27,1.35-3.65,1.75
	s-2.86,0.6-4.43,0.6h-17.15v-35.5h19c1.23,0,2.35,0.27,3.35,0.8c1,0.53,1.85,1.23,2.55,2.08c0.7,0.85,1.24,1.82,1.62,2.9
	c0.38,1.08,0.58,2.18,0.58,3.27c0,1.73-0.43,3.36-1.3,4.88c-0.87,1.52-2.13,2.64-3.8,3.38c2.03,0.6,3.64,1.68,4.82,3.23
	S272.67,111.75,272.67,114.09z M250.97,93.64v8.95h9.2c1.17,0,2.16-0.4,2.97-1.2c0.82-0.8,1.22-1.9,1.22-3.3
	c0-1.37-0.38-2.45-1.12-3.25c-0.75-0.8-1.67-1.2-2.78-1.2H250.97z M265.72,112.79c0-0.63-0.11-1.24-0.32-1.82
	c-0.22-0.58-0.51-1.09-0.88-1.53c-0.37-0.43-0.8-0.77-1.3-1.02s-1.05-0.38-1.65-0.38h-10.6v9.35h10.25c0.63,0,1.23-0.12,1.78-0.35
	c0.55-0.23,1.03-0.56,1.43-0.97c0.4-0.42,0.72-0.91,0.95-1.47S265.72,113.42,265.72,112.79z"/>
<path class="st0" d="M287.42,87.74h6.1l13.5,35.5h-7.1l-3.3-8.85h-12.4l-3.25,8.85h-7.1L287.42,87.74z M295.37,109.54l-4.9-13.95
	l-5.1,13.95H295.37z"/>
<path class="st0" d="M333.97,93.79h-11.35v29.45h-6.85V93.79h-11.35v-6.05h29.55V93.79z"/>
<path class="st0" d="M363.02,117.19v6.05h-24.65v-35.5h24.2v6.05h-17.3v8.55h14.95v5.6h-14.95v9.25H363.02z"/>
<path class="st0" d="M397.37,123.24v-23.5l-9.15,17.5h-3.75l-9.15-17.5v23.5h-6.9v-35.5h7.4l10.5,20.2l10.6-20.2h7.35v35.5H397.37z"
	/>
<path class="st0" d="M421.77,87.74h6.1l13.5,35.5h-7.1l-3.3-8.85h-12.4l-3.25,8.85h-7.1L421.77,87.74z M429.72,109.54l-4.9-13.95
	l-5.1,13.95H429.72z"/>
<path class="st0" d="M452.17,100.49v22.75h-6.9v-35.5h5.35l18.5,23.3V87.79h6.9v35.45h-5.6L452.17,100.49z"/>
</svg>
