<svg xmlns="http://www.w3.org/2000/svg" width="1924.59" height="1080.49" viewBox="0 0 1924.59 1080.49"><defs><style>.cls-1{fill:#5c6c73;}.cls-1,.cls-2{stroke:#232323;stroke-width:0.5px;}.cls-1,.cls-10,.cls-11,.cls-13,.cls-16,.cls-17,.cls-19,.cls-2,.cls-3,.cls-4,.cls-5,.cls-7,.cls-8,.cls-9{stroke-miterlimit:10;}.cls-2{fill:#c2c3c4;}.cls-3{fill:#ccc;}.cls-11,.cls-3,.cls-4,.cls-5{stroke:#000;stroke-width:4px;}.cls-4{fill:#586d6b;}.cls-17,.cls-5,.cls-9{fill:none;}.cls-6{fill:#f0ede1;}.cls-7{fill:#d6d5ae;}.cls-7,.cls-8,.cls-9{stroke:#262626;}.cls-8{fill:#b7b698;}.cls-10{fill:#494949;}.cls-10,.cls-16,.cls-17,.cls-19{stroke:#0f0f0f;}.cls-11{fill:#3a3a3a;}.cls-12{fill:#494991;}.cls-13,.cls-14{fill:#eeea9d;}.cls-13{stroke:#393a3a;}.cls-15{fill:#a0b4b8;}.cls-16{fill:#a0a0a0;}.cls-18{fill:#0f0f0f;}.cls-19{fill:#282828;}.cls-20{fill:#5a69a0;}</style></defs><title>background</title><g id="Layer_5" data-name="Layer 5"><polygon class="cls-1" points="1068.99 508 1922.99 864.89 1922.99 1080.24 3 1080.24 2 585.85 1068.99 508"/><polygon class="cls-1" points="1059.59 437.74 1093.09 448.87 1241.59 437.74 1241.59 579 1059.59 512.26 1059.59 437.74"/><path class="cls-1" d="M1578.5,718.5l30-69.5h311l-1.45,216.5Z" transform="translate(2.59)"/><path class="cls-1" d="M1535.5,911.5" transform="translate(2.59)"/></g><g id="Layer_6" data-name="Layer 6"><rect class="cls-2" x="1103.09" y="362" width="131" height="94.5"/><polygon class="cls-2" points="1069.09 367 1103.09 367 1103.09 456.5 1069.09 444.01 1069.09 367"/></g><g id="Layer_7" data-name="Layer 7"><polygon class="cls-3" points="4.04 259.68 96.04 276.68 96.04 357.68 2.04 357.68 4.04 259.68"/><rect class="cls-4" x="96.04" y="277.68" width="32.75" height="76"/><rect class="cls-4" x="436.83" y="277.68" width="33.21" height="75"/><polygon class="cls-4" points="818.04 354.68 818.04 277.68 784.54 277.68 784.54 352.68 818.04 354.68"/><polygon class="cls-4" points="1108.04 276.68 1108.04 366.68 1126.04 366.68 1126.04 272.7 1108.04 276.68"/><polygon class="cls-4" points="1511.83 187.39 1511.83 347.83 1548.36 347.02 1548.36 179.31 1511.83 187.39"/><rect class="cls-3" x="129.04" y="277.68" width="308" height="75"/><rect class="cls-3" x="470.04" y="277.68" width="315" height="75"/><rect class="cls-3" x="818.04" y="277.68" width="290" height="89"/><polygon class="cls-3" points="1126.04 272.68 1512.04 185.68 1512.04 347.68 1126.04 366.68 1126.04 272.68"/><polygon class="cls-3" points="1548.04 179.68 1922.04 96.68 1922.04 366.68 1548.04 373.68 1548.04 179.68"/></g><g id="Layer_2" data-name="Layer 2"><polyline class="cls-5" points="1709.09 668.5 1922.04 660.5 1922.09 865.5 1070.09 508.5"/><rect class="cls-3" x="1688.86" y="342.25" width="20" height="420"/><polygon class="cls-3" points="1235.86 352.25 1688.86 342.25 1688.86 762.25 1235.86 579.1 1235.86 352.25"/><path class="cls-3" d="M.27,356.25h492v118h-396l-96,21Z" transform="translate(2.59)"/><rect class="cls-3" x="494.86" y="356.25" width="18" height="406"/><path class="cls-3" d="M908.27,356.25h-398V476.68l396-.43Q907.26,416.25,908.27,356.25Z" transform="translate(2.59)"/><polygon class="cls-6" points="4.59 258 96.59 275 1108.59 275 1922.59 95 1922.59 3 2.59 3 4.59 258"/><polygon class="cls-3" points="1708.86 365 1854.59 365 1854.59 515 1708.86 514.24 1708.86 365"/><polygon class="cls-3" points="1922.59 356 1854.59 365 1854.59 515 1922.59 525 1922.59 356"/></g><g id="Layer_4" data-name="Layer 4"><line class="cls-3" x1="1051.59" y1="351.41" x2="1051.59" y2="757.41"/><rect class="cls-3" x="1052.3" y="351.41" width="14" height="406"/><path class="cls-7" d="M512,473l390,1,26,18H512Z" transform="translate(2.59)"/><polyline class="cls-3" points="907.86 476.25 929.59 492 930.59 619 1046.59 762 1051.59 351 913.59 356"/><polygon class="cls-7" points="494.59 491.5 183.37 491.5 5.09 534.5 5.09 558.5 185.38 503.5 494.59 503.5 494.59 491.5"/><path class="cls-7" d="M492.5,491.5v-17l-410-3-82,21,2,42,177-43Z" transform="translate(2.59)"/><polygon class="cls-7" points="5.09 558.5 24.01 554.14 23.53 754.5 5.09 766.5 5.09 558.5"/><polygon class="cls-7" points="379.66 503.5 380.09 642.5 495.09 642.5 495.09 503.5 379.66 503.5"/><path class="cls-8" d="M262.5,503.5q.5,57.5,1,115h114v-115Z" transform="translate(2.59)"/><polygon class="cls-7" points="30.09 663.5 181.09 663.5 265.09 618.5 265.09 503.5 184.09 503.5 30.09 550.82 30.09 663.5"/><line class="cls-9" x1="184.09" y1="503.5" x2="181.09" y2="663.5"/><polygon class="cls-7" points="514.59 501.41 648.49 501.91 649 641.41 640.26 641.41 515.6 641.41 514.59 501.41"/><rect class="cls-8" x="649" y="501.41" width="244" height="116"/><polygon class="cls-7" points="921.48 501.91 921 657.41 893 617.41 893 501.41 921.48 501.91"/><rect class="cls-7" x="921" y="501.41" width="12" height="156"/><polygon class="cls-7" points="1709.09 516.5 1923.09 516.5 1923.09 539.5 1896.32 539.5 1709.09 539.5 1709.09 516.5"/><rect class="cls-7" x="1897.09" y="539.5" width="26" height="129"/><polygon class="cls-8" points="1709.09 539.5 1780.71 539.68 1781.09 668.5 1709.09 668.5 1709.09 539.5"/><polygon class="cls-8" points="1895.09 668.5 1781.04 649.74 1781.09 539.5 1897.09 539.5 1897.09 668.5 1895.09 668.5"/><polygon class="cls-7" points="1923.09 516.5 1923.09 509.5 1854.09 499.5 1709.09 499.5 1709.09 516.5 1923.09 516.5"/><polyline class="cls-7" points="514.59 492.28 514.59 503.28 930.59 503.28 930.59 492.28 514.59 492.28"/></g><g id="Layer_3" data-name="Layer 3"><path class="cls-10" d="M729.5,561.5l-17,13c-.42.83-4.65,9.58,0,18a18.8,18.8,0,0,0,9,8c6.78.45,23.48,1.57,46,3,20.73,1.32,40.35,2.41,59-4,6.18-2.12,12.94-5.31,18-12a32.77,32.77,0,0,0,6-14,14.58,14.58,0,0,0-9-15,383.56,383.56,0,0,0-90-3Z" transform="translate(2.59)"/><polygon class="cls-11" points="588.99 463 581.59 482 646.59 482 635.59 465 588.99 463"/><polygon class="cls-11" points="547.59 365 559.59 463 673.59 463 663.59 365 547.59 365"/><polygon class="cls-12" points="554.59 372 564.59 455 664.59 455 657.59 372 554.59 372"/><polygon class="cls-11" points="2.59 367 117.59 365 126.59 465 24.84 479.77 2.59 483 2.59 367"/><polygon class="cls-11" points="24.59 483 24.59 495 40.59 501 96.59 488 85.06 471.03 24.59 483"/><polygon class="cls-12" points="4.59 375 108.59 373 117.59 455 4.59 474 4.59 375"/><polygon class="cls-13" points="196.59 27 355.59 131 430.59 131 313.59 27 196.59 27"/><path class="cls-13" d="M410.31,169,477,213l48-2-47.34-42Z" transform="translate(2.59)"/><path class="cls-13" d="M507,226l54.09,43L600,267.05,561.6,226Z" transform="translate(2.59)"/><path class="cls-13" d="M1481,35,1259,139l-112-6L1329,20.08Z" transform="translate(2.59)"/><path class="cls-13" d="M1153.68,170.29l-94,42.25L999.86,199.1l69.28-44Z" transform="translate(2.59)"/><path class="cls-13" d="M1030,226.24l-79.5,41-48-13.06,59.4-42.69Z" transform="translate(2.59)"/><path class="cls-14" d="M612,0" transform="translate(2.59)"/><polygon class="cls-15" points="690.59 275 614.59 0 1002.59 0 787.59 275 690.59 275"/><path class="cls-10" d="M715.28,433.5h71a20.82,20.82,0,0,1,14,4c8.47,6.43,8.05,17.06,8,18q.5,25,1,50c.06.89.64,12.8-9,20a23.47,23.47,0,0,1-18,4h-57a19.83,19.83,0,0,1-14-3c-6.12-4.22-9.21-12-8-20q-.49-29.5-1-59a11.8,11.8,0,0,1,2-10A11.39,11.39,0,0,1,715.28,433.5Z" transform="translate(2.59)"/><path class="cls-16" d="M724.5,504.5a22.8,22.8,0,0,1,1-27c7.42-9.1,21.29-10.68,31-4,10.54,7.26,12.91,22,7,31C755.46,516.74,733.25,516.64,724.5,504.5Z" transform="translate(2.59)"/><path class="cls-17" d="M710.5,574.5A55.84,55.84,0,0,0,741,590.61a135,135,0,0,0,16.53,3.89c12.86,2.19,32.89,5.36,54-3a76,76,0,0,0,15-8,40.06,40.06,0,0,0,7-7,41.69,41.69,0,0,0,8-18" transform="translate(2.59)"/><path class="cls-16" d="M735.5,491.5c2-1.84,4.65-3.69,7-3,8.22,2.4,6.74,34.18,6,50-1.25,26.77-4.86,38.53,3,47,4.54,4.89,10.81,6.43,15,7v8h-11a27.52,27.52,0,0,1-11-6,28.77,28.77,0,0,1-9-18Z" transform="translate(2.59)"/><polygon class="cls-16" points="781.09 642.5 836.09 651.5 840.09 661.5 831.09 661.5 827.09 657.5 816.9 659.96 781.09 642.5"/><path class="cls-16" d="M763.5,641.54l-47,2v14h4v-7h23l-55,25,9,7,53-19,13,2,3,39h14l-5-41,10-5,56,21,9-6-46.17-20.85L788.5,645.5Z" transform="translate(2.59)"/><path class="cls-16" d="M766.5,604.5l-3,41a11,11,0,0,0,7,5c4.61.82,9.61-2,12-7q-1-19.63-2-39.27Z" transform="translate(2.59)"/><path class="cls-16" d="M679.5,661.5" transform="translate(2.59)"/><path class="cls-18" d="M688.5,675.5,696,681v12a7.58,7.58,0,0,1-6,2,7.24,7.24,0,0,1-4-2,19.52,19.52,0,0,1,0-13A17.71,17.71,0,0,1,688.5,675.5Z" transform="translate(2.59)"/><path class="cls-18" d="M768.08,704.5H778.5L779,716a6.86,6.86,0,0,1-5,3,6.64,6.64,0,0,1-6-3C768,712.17,768.05,708.33,768.08,704.5Z" transform="translate(2.59)"/><polygon class="cls-18" points="717.59 658 723.59 658 723.59 659 717.59 663.46 717.59 658"/><path class="cls-18" d="M842,680v12a6.11,6.11,0,0,0,4,2,6.39,6.39,0,0,0,6-4q-.5-8.5-1-17Z" transform="translate(2.59)"/><polygon class="cls-18" points="831.59 662 840.59 662 840.59 666 831.59 662"/><path class="cls-10" d="M174.5,442.5c-31.5,16.32-39.7,79.33-20,93,4.22,2.93,11.75,5,26,0l25-22q.78-10.72,2-22c1.37-12.57,3.07-24.58,5-36,0-4-.82-10-5-14C199,433.35,182.26,438.48,174.5,442.5Z" transform="translate(2.59)"/><path class="cls-10" d="M130.5,613.5a196.38,196.38,0,0,1-37-4c-1.53-.41-10-2.81-14-11a20,20,0,0,1-2-9l105.94-9c2.73,11.52,0,17.89-1.94,21C173.61,614.07,152.8,613.79,130.5,613.5Z" transform="translate(2.59)"/><path class="cls-10" d="M78.5,579.5c-.16.56-1.6,5.75,1,10,3.91,6.39,13.85,5.62,29,6,29.65.74,39,4.86,59,0,6.46-1.57,12.63-3.74,15-9,2.9-6.45-1.47-14.1-2-15C166.55,547.84,85.25,556.37,78.5,579.5Z" transform="translate(2.59)"/><path class="cls-16" d="M183.5,501.5a18.14,18.14,0,0,1,1-10,18.93,18.93,0,0,1,10-10,12,12,0,0,1,8,2c4,2.87,5.78,8.44,4.38,14l-1,11.73a12,12,0,0,1-22.33-7.73Z" transform="translate(2.59)"/><path class="cls-16" d="M192.5,592.5c7.67-11.85,6.85-24.48,5-48a265.3,265.3,0,0,0-7-43h9c1.66,6.49,4,16.54,6,29,6.14,38.35,1.64,54,0,59-2.9,8.92-6.41,19.18-16,23-8.67,3.46-17.57-.25-20.92-1.86C175.2,608.18,185.66,603.07,192.5,592.5Z" transform="translate(2.59)"/><path class="cls-19" d="M51.25,688.32l8,3v8a5.17,5.17,0,0,1-5,2,5,5,0,0,1-3-2Z" transform="translate(2.59)"/><path class="cls-19" d="M194.25,691.32l7-3,1,13a4.28,4.28,0,0,1-3,3,4.47,4.47,0,0,1-5-3Z" transform="translate(2.59)"/><polygon class="cls-19" points="80.84 664.32 87.84 664.32 87.84 669.32 80.84 671.32 80.84 664.32"/><polygon class="cls-16" points="123.84 651.32 80.84 653.32 80.84 664.32 87.84 664.32 87.84 659.32 104.84 661.32 53.84 688.32 61.84 691.32 69.84 691.32 113.84 674.32 123.84 674.32 126.84 714.32 136.84 714.32 136.84 673.32 143.84 670.32 196.84 691.32 204.84 688.32 146.84 651.32 144.19 651.32 123.84 651.32"/><path class="cls-16" d="M141.25,655.32l-6.81-42h-6.19l-7,42c.32.59,2.82,5.1,8,6A11.78,11.78,0,0,0,141.25,655.32Z" transform="translate(2.59)"/><path class="cls-19" d="M124.5,714.5h10v12a5.67,5.67,0,0,1-10,0Z" transform="translate(2.59)"/><polygon class="cls-10" points="1710.09 389.5 1759.09 389.5 1767.09 487.5 1710.09 490.5 1710.09 389.5"/><polygon class="cls-10" points="1727.01 489.61 1739.09 509.5 1710.09 509.5 1710.09 490.5 1727.01 489.61"/><polygon class="cls-20" points="1710.09 394.56 1754.09 394.5 1762.09 480.5 1710.09 482.36 1710.09 394.56"/><path class="cls-10" d="M1776.5,452.5h69a6.52,6.52,0,0,1,6,10v52c.15,1.41,1,11.14-6,18a20.18,20.18,0,0,1-9,5h-63a17.59,17.59,0,0,1-12-6,17.34,17.34,0,0,1-4-11q.12-29.43.25-58.86a17.37,17.37,0,0,1,6.75-7.14A17.79,17.79,0,0,1,1776.5,452.5Z" transform="translate(2.59)"/><path class="cls-10" d="M1738.5,564.5c-8.1-2.26-16.28-.39-21,5a17.42,17.42,0,0,0-4,9,34.74,34.74,0,0,0,25,24l85,2c1,0,9.68-.47,15-8a19.53,19.53,0,0,0,3-15,28.33,28.33,0,0,0-9-11,27.67,27.67,0,0,0-8-4l-26-2Z" transform="translate(2.59)"/><path class="cls-16" d="M1794.5,502.5a28.39,28.39,0,0,0,6,17,33.56,33.56,0,0,0,32,0,33.89,33.89,0,0,0,0-32,63.38,63.38,0,0,0-20-2c-6.43.4-10.71.72-14,4C1794.51,493.47,1794.5,499.25,1794.5,502.5Z" transform="translate(2.59)"/><path class="cls-16" d="M1810.5,497.5c-.37,15.14-.21,27.5,0,36,.64,25.26,2.26,36.06-4,49a53.68,53.68,0,0,1-12,16l9,2a28.14,28.14,0,0,0,11-7c9.45-10,7.87-24.54,7-41a533.09,533.09,0,0,1,0-55Z" transform="translate(2.59)"/><path class="cls-10" d="M1777.5,644.5" transform="translate(2.59)"/><polygon class="cls-16" points="1797.09 644.5 1839.09 644.5 1842.09 654.5 1837.09 654.5 1834.09 649.5 1816.09 654.5 1797.09 644.5"/><polygon class="cls-16" points="1720.09 670.5 1720.09 678.5 1724.09 678.5 1727.09 674.5 1780.09 657.5 1786.09 657.5 1784.09 693.5 1793.09 693.5 1797.09 662.5 1808.09 659.5 1855.09 673.5 1855.09 678.5 1864.09 678.5 1864.09 669.5 1797.09 644.5 1780.09 644.5 1720.09 670.5"/><path class="cls-16" d="M1794.5,644.5l-4.46-40h-10.16l-2.38,40a18.68,18.68,0,0,0,7,2A19,19,0,0,0,1794.5,644.5Z" transform="translate(2.59)"/><path class="cls-18" d="M1716,678c-.33,3-.67,6-1,9a4.11,4.11,0,0,0,3,2,4.16,4.16,0,0,0,3.5-1.5c2.54-3.81,1.76-8-.5-9.5C1719.05,676.75,1716.4,677.83,1716,678Z" transform="translate(2.59)"/><path class="cls-18" d="M1781,693h8v18a5.15,5.15,0,0,1-5,2,5,5,0,0,1-3-2Z" transform="translate(2.59)"/><path class="cls-18" d="M1853,677v12a5,5,0,0,0,8,0V677Z" transform="translate(2.59)"/><polygon class="cls-18" points="1836.59 654 1836.59 659.24 1842.09 661.29 1841.59 654 1836.59 654"/></g></svg>
