<svg id="Layer_1" data-name="Layer 1" xmlns="http://www.w3.org/2000/svg" xmlns:xlink="http://www.w3.org/1999/xlink" width="1877.22" height="1050" viewBox="0 0 1877.22 1050"><defs><style>.cls-1{fill:#f9b2aa;}.cls-2{fill:#fed756;}.cls-19,.cls-3{fill:#ffedb4;}.cls-4{fill:#dfbc00;}.cls-18,.cls-23,.cls-24,.cls-5{fill:#fff;}.cls-12,.cls-13,.cls-14,.cls-26,.cls-6,.cls-7{fill:none;}.cls-6{stroke:#000;}.cls-12,.cls-13,.cls-16,.cls-23,.cls-24,.cls-6,.cls-7{stroke-linecap:round;}.cls-12,.cls-13,.cls-23,.cls-24,.cls-6,.cls-7{stroke-linejoin:round;}.cls-12,.cls-13,.cls-14,.cls-6,.cls-7{stroke-width:2px;}.cls-7{stroke:#d4ad00;}.cls-8{fill:#ef4f98;}.cls-9{fill:#8a0046;}.cls-10{fill:#9f4300;}.cls-11{fill:#ffd79f;}.cls-12{stroke:#8a0046;}.cls-13{stroke:#ffa03f;}.cls-14{stroke:#2e00e9;}.cls-14,.cls-16,.cls-18,.cls-19,.cls-26{stroke-miterlimit:10;}.cls-15{fill:#8a002e;opacity:0.3;}.cls-16{fill:#ff4a4f;stroke:#150003;stroke-width:5px;}.cls-17{fill:#2e64b0;}.cls-18,.cls-24,.cls-26{stroke:#fff;}.cls-18,.cls-19{stroke-width:3px;}.cls-19{stroke:#ffedb4;}.cls-20{fill:#f26727;}.cls-21{fill:#ffd694;}.cls-22{fill:#ccc;}.cls-23{stroke:#f2f2f2;}.cls-23,.cls-24{stroke-width:14px;}.cls-25{fill:#552600;}.cls-26{stroke-width:16px;}</style></defs><title>classroom</title><path class="cls-1" d="M619,864.55l-142.37,3.17c-31,.69-56.77-24.45-57.45-56.15h0c-.67-31.71,23.95-58,55-58.66l142.37-3.17c31-.69,56.76,24.45,57.44,56.15h0C674.63,837.6,650,863.86,619,864.55Z" transform="translate(0.2 -35)"/><image width="576" height="500" transform="translate(943.2 5) scale(1.02)" xlink:href="76943078_1032282623785100_7011276898013544448_n.png"/><path class="cls-1" d="M644.56,1072.63c3.62.19,7.25.37,10.87.52l4.94.2h0l.06,0h0l.08,0c1.72-.41,17.7.32,21.1.41l13.22-3.17L639.08,774.74,558.26,794.1l52.12,276.43C621.77,1071.3,633.16,1072,644.56,1072.63Z" transform="translate(0.2 -35)"/><path class="cls-2" d="M644.56,1072.63c3.62.19,7.25.37,10.87.52l4.94.2h0l.06,0h0l.08,0c1.83-.44,19.73.42,21.59.42l1.48,0,11.36-2.64-22.6-122.92L591.43,967l19,103.56C621.83,1071.3,633.19,1072,644.56,1072.63Z" transform="translate(0.2 -35)"/><path d="M644.56,1072.63c3.62.19,7.25.37,10.87.52l4.94.2h0l.06,0h0l.08,0c1.49-.36,13.68.15,19.13.34l15.32-3.51-9.14-52.77-81,18.58,6,34.63C622.09,1071.32,633.32,1072.05,644.56,1072.63Z" transform="translate(0.2 -35)"/><polygon class="cls-3" points="620.74 518.01 558.33 490.29 612.15 348.87 674.55 376.58 620.74 518.01"/><path class="cls-1" d="M490.07,1072.62c2.78-2.4,6.85-4,10.91-5.07L617.06,833.31l-69.77-45.87L420.75,1042.79l37.78,24.84c3,0,6.08,0,9.12-.05C472.76,1067.58,484,1068.2,490.07,1072.62Z" transform="translate(0.2 -35)"/><path class="cls-2" d="M490.07,1072.62c2.91-2.52,7.25-4.19,11.51-5.22l50.47-102.7-70.52-44.36L420,1045.5l35.24,22.17c4.13-.06,8.26-.08,12.39-.09C472.76,1067.58,484,1068.2,490.07,1072.62Z" transform="translate(0.2 -35)"/><path d="M490.07,1072.62c3.67-3.17,9.6-5,14.79-5.89l18.46-38.21L449.68,983.2l-31.05,64.24,33,20.29c5.35-.1,10.71-.14,16.06-.15C472.76,1067.58,484,1068.2,490.07,1072.62Z" transform="translate(0.2 -35)"/><polygon class="cls-4" points="612.88 458.49 657.58 442.44 725.93 669.13 681.23 685.19 612.88 458.49"/><polygon class="cls-2" points="661.78 444.89 414.51 442.18 418.6 754.63 665.87 757.35 661.78 444.89"/><polygon class="cls-5" points="419.86 759.02 327.91 726.16 425.43 385.38 517.38 418.24 419.86 759.02"/><ellipse class="cls-2" cx="529.05" cy="508.88" rx="44.22" ry="57.43" transform="translate(-115.91 824.05) rotate(-72.38)"/><ellipse class="cls-3" cx="640.12" cy="349.05" rx="71.48" ry="79.54" transform="translate(-5.81 -23.73) rotate(-1)"/><path d="M620.25,325.68l-20.17,35c-10.7,18.57-27.39,23-29.77,7.92l-4.17-26.4-4.52-28.64c-2.3-14.59,10.55-36.87,23.54-40.84l25.51-7.79,23.51-7.18c13.45-4.1,16.94,14.35,6.24,32.92Z" transform="translate(0.2 -35)"/><ellipse cx="640.52" cy="285.34" rx="31.57" ry="65.5" transform="translate(302.46 864.56) rotate(-85.17)"/><ellipse cx="697.2" cy="338.81" rx="4.36" ry="4.78" transform="translate(-5.39 -23.23) rotate(-0.96)"/><path class="cls-6" d="M701.15,321.34c-1.41-1-5.42-1.12-9.46-.21-3.76.85-6.78,2.37-7.36,3.72" transform="translate(0.2 -35)"/><ellipse class="cls-3" cx="613.02" cy="332.31" rx="19.64" ry="21.53" transform="translate(-5.3 -24.64) rotate(-0.96)"/><line class="cls-7" x1="578.95" y1="481.12" x2="563.25" y2="564.02"/><ellipse class="cls-2" cx="600.65" cy="475.68" rx="34.15" ry="66.53" transform="translate(-62.39 824.29) rotate(-68.42)"/><path class="cls-7" d="M552.19,479.8c4.14,5.35,42.29,53.37,79.76,37.87a47.94,47.94,0,0,0,13.25-8.4" transform="translate(0.2 -35)"/><polygon class="cls-3" points="742.76 722.61 668.86 706.5 678.29 653.72 752.19 669.82 742.76 722.61"/><path d="M467.65,1067.58c5,0,15.77.59,21.92,4.69q-9.69-14.16-21.38-31.56c-20.13-30-45.65-12.56-52.1-4.65-5.18,6.36,2.86,18.56,16.34,32.24C444.16,1067.78,455.91,1067.59,467.65,1067.58Z" transform="translate(0.2 -35)"/><path d="M644.56,1072.63c3.62.19,7.25.37,10.87.52l4.94.2h0l.06,0h0l.08,0c1.83-.44,19.73.42,21.59.42,6.25,0,21.7.93,25.56,8.59q18.62-.33,37.24-.59c-16.32-4.72-47.48-11.47-93.58-23-18.69-4.67-29.62,2.88-35.61,12.16C625.34,1071.52,634.94,1072.13,644.56,1072.63Z" transform="translate(0.2 -35)"/><path class="cls-8" d="M321.78,998.91c-.76-35.8-29.8-64.19-64.86-63.41L69.75,939.67c-30.4.67-55.32,23.06-60.92,52.33q.78,2.31,1.66,4.59c1.78,4.57.2,8-2.81,10.55l.09,3.94c.76,35.8,29.8,64.19,64.86,63.41l187.17-4.17c35.06-.78,62.86-30.43,62.1-66.23Z" transform="translate(0.2 -35)"/><path class="cls-3" d="M707.28,364.63q13,1,13.29-4.12.34-6.06-16.8-20.65" transform="translate(0.2 -35)"/><polygon class="cls-3" points="297.06 668.71 220.16 636.24 286.68 470.1 363.57 502.56 297.06 668.71"/><polygon class="cls-9" points="275.53 610.93 330.65 592.02 414.63 858.13 359.51 877.04 275.53 610.93"/><polygon class="cls-3" points="447.22 908.8 356.14 889.99 367.84 827.99 458.92 846.8 447.22 908.8"/><path class="cls-8" d="M315.38,948.05l-243.63-7-37.6,38.77-4.1,102.8a27.21,27.21,0,0,1,9.4-5.17,47.8,47.8,0,0,1,20-2c2.68.33,5.37.64,8.06,1q10.22,1.13,20.46,1.79,6.69.43,13.38.7c1.1,0,2.23,0,3.34.11l5.06.11c61.16,1.06,122.41-5.25,183.47-.54,10.35-.56,20.73-.64,31.09-.75,7-.07,14-.14,20.94-.41,3.31-.12,6.62-.29,9.92-.53l2.5-.22,1.28-.15c18.51-2.51,36.71-5.67,55.37-7.13,9.8-.76,19.62-1.22,29.44-1.49C428,1051.74,393,1018.1,315.38,948.05Z" transform="translate(0.2 -35)"/><polygon class="cls-8" points="333.49 587.2 29.13 582.78 35.45 944.67 339.8 949.09 333.49 587.2"/><ellipse class="cls-8" cx="213.94" cy="639.25" rx="51.69" ry="52.49" transform="translate(-265.24 130.33) rotate(-26.82)"/><ellipse class="cls-3" cx="321.25" cy="464.17" rx="88.12" ry="93.4" transform="translate(-6.25 -30.47) rotate(-0.8)"/><path class="cls-10" d="M296.79,436.75l-24.91,41.13c-13.22,21.82-33.8,27.05-36.72,9.34l-5.1-31-5.53-33.62c-2.82-17.12,13-43.31,29.06-48l31.46-9.18,29-8.46c16.57-4.84,20.86,16.83,7.65,38.65Z" transform="translate(0.2 -35)"/><ellipse class="cls-10" cx="319.11" cy="389.42" rx="37.09" ry="80.71" transform="translate(-93.37 642.82) rotate(-85.61)"/><ellipse cx="391.64" cy="452.07" rx="5.38" ry="5.62" transform="translate(-4.84 -30.58) rotate(-0.64)"/><path class="cls-3" d="M404,482.38q16,1.22,16.4-4.85.43-7.11-20.68-24.23" transform="translate(0.2 -35)"/><path class="cls-6" d="M396.52,431.56c-1.73-1.23-6.67-1.31-11.66-.24-4.63,1-8.36,2.79-9.08,4.38" transform="translate(0.2 -35)"/><ellipse class="cls-3" cx="287.86" cy="444.55" rx="24.22" ry="25.28" transform="translate(-4.76 -31.74) rotate(-0.64)"/><path class="cls-11" d="M1446,892.14C1443.21,762.3,1181.06,662.83,860.46,670S282.21,788.14,285,918c1.25,58.72,55.55,111.23,144.32,150.47,12.77-.63,25.56-.86,38.34-.87,5.11,0,16.37.62,22.42,5,5.64-4.87,16.59-6.58,22-6.57,30,0,60,1.9,90,3.92,14.16,1,28.33,1.92,42.51,2.66,3.62.19,7.25.37,10.87.52l4.94.2h0l.06,0h0l.08,0c1.83-.44,19.73.42,21.59.42,6.25,0,21.69.93,25.55,8.59,23.62-.44,47.24-.8,70.86-.9,53.4-.23,106.78-.81,160.18-1.22,36.9-.28,73.8-.24,110.69.51a46.75,46.75,0,0,1,14.17-2.38c17.42,0,34.83.58,52.23,1.39,5.81-4.42,16.1-6,21.3-6,34-.07,69.52-3.4,102.84,4C1367.25,1031.78,1447.53,964.92,1446,892.14Z" transform="translate(0.2 -35)"/><path class="cls-3" d="M161.42,850.31l.19-1c3.25-17.75,18.51-29.55,33.87-26.21L389.11,865.2c15,3.26,24.48,19.77,21.3,37.1l-.19,1.05c-3.25,17.74-18.5,29.55-33.86,26.2L182.73,887.41C167.73,884.14,158.25,867.64,161.42,850.31Z" transform="translate(0.2 -35)"/><path class="cls-3" d="M333.75,796.23l.14-1c2.3-16.14,13.14-27.86,24.07-26l137.77,23.27c10.67,1.8,17.43,15.88,15.19,31.64l-.14,1c-2.29,16.14-13.13,27.87-24.06,26L348.94,827.88C338.27,826.07,331.51,812,333.75,796.23Z" transform="translate(0.2 -35)"/><line class="cls-12" x1="245.58" y1="625.44" x2="226.13" y2="722.81"/><polygon class="cls-3" points="445.85 907.43 361.99 890.07 373.71 828.07 457.56 845.43 445.85 907.43"/><polygon class="cls-3" points="467.13 811.66 477.6 751.58 560.01 765.29 549.54 825.37 467.13 811.66"/><polyline class="cls-13" points="504.36 774.33 514.86 776.07 557.53 783.12"/><line class="cls-13" x1="552.76" y1="812.08" x2="499.69" y2="800.35"/><line class="cls-13" x1="501.97" y1="787.44" x2="553.2" y2="798.06"/><line class="cls-13" x1="409.47" y1="850.07" x2="454.81" y2="860.34"/><line class="cls-13" x1="408.49" y1="866.95" x2="452.78" y2="876.52"/><line class="cls-13" x1="406.16" y1="883.86" x2="449.11" y2="893.46"/><ellipse class="cls-10" cx="210.71" cy="330.36" rx="82.88" ry="79.36" transform="translate(-10.35 -28.02) rotate(-1.85)"/><ellipse class="cls-14" cx="695.13" cy="330.48" rx="19.29" ry="20.33" transform="translate(-4.09 -25.82) rotate(-0.75)"/><line class="cls-14" x1="676.03" y1="294.71" x2="622.76" y2="277.95"/><ellipse class="cls-15" cx="352.32" cy="470.51" rx="12.23" ry="11.94" transform="translate(-18.7 -20.23) rotate(-2.34)"/><path class="cls-3" d="M661.42,662.46l.08-.86c1.21-14.41,9.47-26,18.34-25.7l111.78,3.72c8.66.29,14.66,11.81,13.47,25.88l-.07.86c-1.21,14.41-9.48,26-18.34,25.69l-111.79-3.71C666.23,688.05,660.24,676.53,661.42,662.46Z" transform="translate(0.2 -35)"/><polygon class="cls-3" points="744.82 716.32 670.92 700.22 680.36 647.43 754.25 663.53 744.82 716.32"/><path class="cls-3" d="M535.61,683.9l.16-.89c2.62-15.11,15-25.15,27.44-22.29l157.11,36.07c12.16,2.79,19.87,16.85,17.31,31.61l-.15.89c-2.62,15.11-15,25.15-27.45,22.29l-157.1-36.07C540.76,712.72,533.06,698.65,535.61,683.9Z" transform="translate(0.2 -35)"/><polygon class="cls-3" points="829.86 688.7 763.8 651.24 787.93 603.57 853.99 641.03 829.86 688.7"/><line class="cls-13" x1="795.28" y1="654.9" x2="835.29" y2="679.21"/><line class="cls-13" x1="807.97" y1="632.78" x2="847.46" y2="654.31"/><line class="cls-13" x1="840.86" y1="667.25" x2="800.76" y2="644.78"/><line class="cls-13" x1="712.08" y1="672.55" x2="748.87" y2="681.34"/><line class="cls-13" x1="711.3" y1="686.93" x2="747.24" y2="695.12"/><line class="cls-13" x1="709.42" y1="701.33" x2="744.27" y2="709.54"/><line class="cls-16" x1="339.65" y1="564.3" x2="256.51" y2="535.58"/><polygon class="cls-2" points="1630.58 843.93 1615.93 843.35 1618.56 796.4 1633.21 796.98 1630.58 843.93"/><polygon class="cls-3" points="1598.63 281.29 1534.95 276.6 1546.26 143.33 1609.94 148.01 1598.63 281.29"/><polygon class="cls-2" points="1553.09 854.99 1538.31 853.33 1541.9 798.27 1556.67 799.93 1553.09 854.99"/><polygon class="cls-17" points="1676.23 221.83 1501.92 216.29 1499.35 454.27 1673.65 459.82 1676.23 221.83"/><polygon class="cls-5" points="1494.67 477.31 1424.39 465.65 1466.62 197.17 1536.9 208.83 1494.67 477.31"/><polygon class="cls-5" points="1743.48 450.08 1673.37 462.75 1623.94 195.54 1694.06 182.87 1743.48 450.08"/><ellipse class="cls-3" cx="1585.09" cy="89.93" rx="67.85" ry="69.35"/><ellipse cx="1559.14" cy="85.05" rx="4.14" ry="4.17"/><ellipse cx="1613.08" cy="87.26" rx="4.14" ry="4.17"/><path class="cls-18" d="M1564.55,156.69c2.89,9.68,13.07,16.26,24,15.73,10.12-.48,18.84-7,21.22-16" transform="translate(0.2 -35)"/><path class="cls-6" d="M1566.72,108.22c-1.32-.94-5.12-1.08-9-.37-3.58.66-6.48,1.93-7.06,3.1" transform="translate(0.2 -35)"/><path class="cls-6" d="M1626.69,116.45c-.5-3.09-4.24-6.13-8.8-7.24-4.22-1-8.3-.17-9.93,2.12" transform="translate(0.2 -35)"/><ellipse class="cls-3" cx="1525" cy="82.39" rx="18.65" ry="18.77"/><ellipse class="cls-3" cx="1643.81" cy="118.13" rx="18.65" ry="18.77" transform="translate(1064.27 1625.84) rotate(-73.51)"/><path class="cls-3" d="M1629.49,246.8l.67-.42c11.35-7,25.71-4.21,31.87,6.25l77.68,131.86c6,10.21,2,23.9-9.13,30.76l-.67.41c-11.35,7-25.71,4.22-31.87-6.24l-77.68-131.86C1614.34,267.35,1618.41,253.66,1629.49,246.8Z" transform="translate(0.2 -35)"/><path class="cls-3" d="M1545.87,260.87l.33.68c5.53,11.58,2.09,24.79-7.65,29.33l-122.72,57.17c-9.51,4.43-21.46-1.08-26.86-12.39l-.33-.68c-5.53-11.58-2.09-24.79,7.65-29.33L1519,248.48C1528.52,244.05,1540.47,249.56,1545.87,260.87Z" transform="translate(0.2 -35)"/><polygon class="cls-3" points="1722.36 415.04 1686.92 352.71 1727.44 329.31 1762.88 391.64 1722.36 415.04"/><polygon class="cls-3" points="1395.42 265.37 1421.63 302.97 1369.56 339.49 1343.34 301.89 1395.42 265.37"/><path class="cls-19" d="M1421.15,315.35l1.37-10.73c.34-2.69-3.69-5.12-7.8-4.69l-26.58,2.77-19.6,2c-5.41.56-6,5.25-.92,7.2l18.44,7.06,25,9.59c3.86,1.48,8.37.18,8.71-2.51Z" transform="translate(0.2 -35)"/><path class="cls-19" d="M1709.74,392.12l-2.06,10.62c-.52,2.66,3.34,5.35,7.47,5.19l26.71-1,19.69-.76c5.44-.21,6.34-4.85,1.39-7.12L1745,390.76l-24.33-11.19c-3.77-1.73-8.35-.73-8.87,1.93Z" transform="translate(0.2 -35)"/><path class="cls-20" d="M1472,884.51c15,6.52,86.09,31.16,86.64,9.15.25-9.64-4.59-39-26.75-34.41C1464.19,873.28,1444.71,872.65,1472,884.51Z" transform="translate(0.2 -35)"/><path class="cls-20" d="M1696.05,893.25c-16,4.7-91.16,20.9-89.67-.38.65-9.32,8.36-37.12,30.65-30.34C1705.06,883.24,1725.09,884.7,1696.05,893.25Z" transform="translate(0.2 -35)"/><line class="cls-13" x1="1389.52" y1="312.64" x2="1363.85" y2="333.32"/><line class="cls-13" x1="1355.61" y1="323.48" x2="1385.74" y2="301.17"/><line class="cls-13" x1="1379.45" y1="292.15" x2="1349.82" y2="310.69"/><line class="cls-13" x1="1723.22" y1="372.15" x2="1738.6" y2="405.21"/><line class="cls-13" x1="1714.58" y1="380.05" x2="1729.79" y2="411.56"/><line class="cls-13" x1="1734.32" y1="370.31" x2="1749.76" y2="400.58"/><path class="cls-13" d="M1408.83,323.14c-5.38,3.21-14.88,2.13-20.36-1.15-5.26-3.14-5.14-7.32-5.12-7.67" transform="translate(0.2 -35)"/><ellipse class="cls-21" cx="1538.85" cy="103.17" rx="11.36" ry="11.83"/><ellipse class="cls-21" cx="1635.41" cy="106" rx="10.79" ry="10"/><rect class="cls-22" x="773.08" y="716.69" width="247.41" height="40.41" transform="translate(-15.97 -14.86) rotate(-1.28)"/><polygon class="cls-22" points="1122.77 520.25 1007.38 715.69 964.23 677.7 1079.62 482.25 1122.77 520.25"/><polygon class="cls-22" points="1129.79 525.14 1014.39 720.59 971.24 682.6 1086.64 487.15 1129.79 525.14"/><line class="cls-23" x1="974.16" y1="668.37" x2="1071.72" y2="502.59"/><rect class="cls-22" x="463.85" y="874.77" width="247.41" height="40.41" transform="translate(-19.57 -21.7) rotate(-1.28)"/><polygon class="cls-22" points="813.55 678.33 698.15 873.78 655 835.78 770.4 640.34 813.55 678.33"/><polygon class="cls-22" points="820.57 683.23 705.17 878.67 662.02 840.68 777.41 645.23 820.57 683.23"/><line class="cls-24" x1="665.15" y1="836.53" x2="769.84" y2="668.81"/><ellipse class="cls-25" cx="1533.7" cy="48" rx="22.5" ry="22"/><ellipse class="cls-25" cx="1553.7" cy="28" rx="22.5" ry="22"/><ellipse class="cls-25" cx="1580.7" cy="22" rx="22.5" ry="22"/><ellipse class="cls-25" cx="1614.7" cy="32" rx="22.5" ry="22"/><ellipse class="cls-25" cx="1638.7" cy="52" rx="22.5" ry="22"/><path class="cls-1" d="M1623.11,493h25.25c5.61,0,9.73,15.82,8.38,32.18l-15.49,188.46-9.75,118.63c-2.17,26.31-14.61,26.31-16.78,0L1605,713.64l-15.5-188.46c-1.34-16.36,2.78-32.18,8.39-32.18Z" transform="translate(0.2 -35)"/><path class="cls-1" d="M1550.11,490h25.25c5.61,0,9.73,15.73,8.38,32l-15.49,187.41-9.75,118c-2.17,26.16-14.61,26.16-16.78,0l-9.75-118L1516.47,522c-1.34-16.27,2.78-32,8.39-32Z" transform="translate(0.2 -35)"/><path class="cls-5" d="M12.49,568.21c2,12.53,2.61,25.27,3.64,38.1a7.45,7.45,0,0,1-2.52,5.88,6.2,6.2,0,0,1,1,3.31c-.15,23.74-6,46.86-7.66,70.46a10.64,10.64,0,0,1-4.08,7.59c1.66,43.73,1,87.55.33,131.3-.47,29.76-.53,59.52-.95,89.28-.38,27.41-1.9,56.44,8.25,82.46,3,7.82-3.74,12.3-10.69,14.75l28.63,71.6L185.11,560.51Z" transform="translate(0.2 -35)"/><line class="cls-26" x1="1877.21" y1="1039" x2="3.21" y2="1042"/></svg>
