<svg id="Layer_1" data-name="Layer 1" xmlns="http://www.w3.org/2000/svg" width="1765.93" height="815.63" viewBox="0 0 1765.93 815.63"><defs><style>.cls-1{fill:#29abe2;}.cls-10,.cls-12,.cls-18,.cls-19,.cls-2,.cls-25,.cls-28,.cls-29,.cls-31,.cls-35,.cls-39,.cls-8{fill:none;}.cls-11,.cls-19,.cls-2{stroke:#ffee94;}.cls-11,.cls-17,.cls-19,.cls-2,.cls-26,.cls-28,.cls-41,.cls-7{stroke-miterlimit:10;}.cls-2{stroke-width:68px;}.cls-3{fill:#fed756;}.cls-4{fill:#ffedb4;}.cls-5{fill:#d4ad00;}.cls-17,.cls-44,.cls-45,.cls-6,.cls-7{fill:#fff;}.cls-44,.cls-7{stroke:#fff;}.cls-11,.cls-26,.cls-7{stroke-width:3px;}.cls-8{stroke:#000;}.cls-10,.cls-12,.cls-18,.cls-25,.cls-29,.cls-35,.cls-38,.cls-39,.cls-41,.cls-44,.cls-45,.cls-46,.cls-8{stroke-linecap:round;}.cls-10,.cls-12,.cls-18,.cls-25,.cls-29,.cls-35,.cls-38,.cls-39,.cls-44,.cls-45,.cls-46,.cls-8{stroke-linejoin:round;}.cls-10,.cls-12,.cls-18,.cls-25,.cls-28,.cls-29,.cls-35,.cls-8{stroke-width:2px;}.cls-11,.cls-9{fill:#ffee94;}.cls-10{stroke:#d4ad00;}.cls-12{stroke:#ffa03f;}.cls-13{fill:#ef4f98;}.cls-14{fill:#8e7fae;}.cls-15{fill:#8a0046;}.cls-16{fill:#9f4300;}.cls-17{stroke:#df0006;}.cls-18{stroke:#8a0046;}.cls-19{stroke-width:40px;}.cls-20{fill:#ffc28a;}.cls-21{fill:#003500;}.cls-22{fill:#0b5500;}.cls-23{fill:#fff67f;}.cls-24,.cls-26{fill:#ffaa8a;}.cls-25{stroke:#003500;}.cls-26{stroke:#ffaa8a;}.cls-27{fill:#005e5f;}.cls-28,.cls-29{stroke:#2e00e9;}.cls-30{fill:#8a002e;opacity:0.3;}.cls-32{fill:#f9b2aa;}.cls-33{fill:#2600aa;}.cls-34{fill:#2e64b0;}.cls-35{stroke:#1a009f;}.cls-36{fill:#f26727;}.cls-37{fill:#f2f2f2;}.cls-38{fill:#7f0300;}.cls-38,.cls-39{stroke:#aa0400;stroke-width:8px;}.cls-40{fill:#ffd694;}.cls-41{fill:#ff4a4f;stroke:#150003;stroke-width:5px;}.cls-42{fill:#ffd79f;}.cls-43{fill:#ccc;}.cls-44,.cls-45,.cls-46{stroke-width:14px;}.cls-45{stroke:#e6e6e6;}.cls-46{fill:#b3b3b3;stroke:#f2f2f2;}</style></defs><title>feedback</title><rect class="cls-1" x="1522.77" y="632.97" width="231.26" height="96.01" rx="48" transform="translate(3206.73 1165.58) rotate(180)"/><polygon class="cls-1" points="1409.01 706.19 1482.71 720.87 1527.58 472.6 1453.88 457.92 1409.01 706.19"/><line class="cls-2" x1="1632.93" y1="555.63" x2="1631.93" y2="760.63"/><polygon class="cls-3" points="1408.93 706.65 1482.71 720.87 1500.83 617.71 1427.05 603.49 1408.93 706.65"/><polygon points="1408.89 705.84 1482.71 719.87 1489.97 675.59 1416.16 661.56 1408.89 705.84"/><polygon class="cls-4" points="1466.41 272.24 1522.49 247.91 1470.93 130.7 1414.86 155.03 1466.41 272.24"/><polygon class="cls-1" points="1594.73 717.54 1657.13 677.9 1537.39 466.82 1474.99 506.46 1594.73 717.54"/><polygon class="cls-3" points="1594.73 718.54 1657.85 680.15 1599.62 576.68 1536.51 615.07 1594.73 718.54"/><polygon points="1593.21 721 1659.14 681.75 1629.73 628.63 1563.81 667.88 1593.21 721"/><polygon class="cls-5" points="1481.35 230.77 1440.49 218.18 1382.87 408.93 1423.73 421.52 1481.35 230.77"/><polygon class="cls-3" points="1440.15 224.03 1682.16 216.89 1683.92 466.36 1441.9 473.5 1440.15 224.03"/><polygon class="cls-6" points="1683.16 469.95 1765.93 440.77 1670.87 157.75 1588.09 186.92 1683.16 469.95"/><ellipse class="cls-3" cx="1618.61" cy="430.03" rx="51.78" ry="37.2" transform="translate(-126.17 221.58) rotate(-14.47)"/><ellipse class="cls-4" cx="1444.7" cy="102.13" rx="64.85" ry="66.5"/><path d="M1532.33,278.59l19,28.88c10.07,15.32,25.29,18.72,27.16,6.07l3.27-22.15,3.54-24c1.81-12.24-10.27-30.63-22.14-33.7l-23.29-6-21.47-5.56c-12.27-3.18-15.09,12.31-5,27.63Z" transform="translate(-70.07 -196.37)"/><ellipse cx="1513.17" cy="245.26" rx="59.39" ry="26.41" transform="translate(-86.43 -52.95) rotate(-5.4)"/><ellipse cx="1392.71" cy="94.63" rx="3.96" ry="4"/><path class="cls-4" d="M1454.14,312.77q-11.78,1.11-12.14-3.19-.42-5.07,14.84-17.58" transform="translate(-70.07 -196.37)"/><path class="cls-7" d="M1473.38,317a6.52,6.52,0,0,1-5.1,6.63,6.59,6.59,0,0,1-6.92-3.83" transform="translate(-70.07 -196.37)"/><path class="cls-8" d="M1458.86,276.47c1.26-.89,4.9-1,8.58-.35,3.42.64,6.2,1.85,6.75,3" transform="translate(-70.07 -196.37)"/><ellipse class="cls-4" cx="1468.96" cy="87.63" rx="17.82" ry="18"/><path class="cls-4" d="M1638.44,570.82l-.16-.75c-2.67-12.58-14.08-20.74-25.33-18.11L1471.13,585c-11,2.56-17.7,14.47-15.09,26.75l.16.74c2.66,12.58,14.07,20.74,25.32,18.12l141.82-33.07C1634.32,595,1641,583.1,1638.44,570.82Z" transform="translate(-70.07 -196.37)"/><path class="cls-9" d="M1489.26,605.12l.62-.39c10.44-6.47,14.65-18.71,9.34-27.16L1432.29,471c-5.19-8.25-17.52-9.8-27.71-3.48l-.62.39c-10.44,6.47-14.65,18.7-9.34,27.15l66.93,106.54C1466.74,609.89,1479.07,611.44,1489.26,605.12Z" transform="translate(-70.07 -196.37)"/><line class="cls-10" x1="1503.61" y1="240.63" x2="1540.93" y2="335.63"/><ellipse class="cls-3" cx="1558" cy="410.8" rx="59.42" ry="31.12" transform="translate(-63.91 647.92) rotate(-30.38)"/><path class="cls-10" d="M1597.06,406.15c-3.65,4.55-37.33,45.39-71.62,33.14a44.44,44.44,0,0,1-12.19-6.78" transform="translate(-70.07 -196.37)"/><polygon class="cls-4" points="1359.69 445.52 1426.41 430.69 1416.83 386.74 1350.11 401.57 1359.69 445.52"/><polygon class="cls-4" points="1360.68 444.52 1427.4 429.69 1417.82 385.74 1351.1 400.57 1360.68 444.52"/><polygon class="cls-9" points="1325.23 301.95 1366.93 288.42 1348.45 230.34 1306.75 243.88 1325.23 301.95"/><path class="cls-11" d="M1424.22,500.65l-10-2.6c-2.51-.65-3.23-5.1-1.39-8.61l11.91-22.69,8.78-16.73c2.42-4.62,6.79-3.48,6.71,1.74l-.29,18.93-.38,25.68c-.07,4-2.82,7.53-5.33,6.87Z" transform="translate(-70.07 -196.37)"/><path d="M1644.65,950.55c18.18-11,100.35-67.17,86.65-82-6-6.49-29.5-20.61-47.18,4.86C1630.15,951.15,1611.59,970.5,1644.65,950.55Z" transform="translate(-70.07 -196.37)"/><path d="M1438.49,923.45c20.83,3.35,119.25,13.68,118.55-5.68-.31-8.47-8.85-33.41-38.71-25.89C1427.17,914.85,1400.61,917.37,1438.49,923.45Z" transform="translate(-70.07 -196.37)"/><line class="cls-12" x1="1343.18" y1="265.63" x2="1333.28" y2="235.63"/><line class="cls-12" x1="1358.24" y1="260.2" x2="1325.38" y2="274.63"/><line class="cls-12" x1="1333.28" y1="270.63" x2="1323.37" y2="238.63"/><line class="cls-12" x1="1386.54" y1="403.11" x2="1353.34" y2="411.14"/><line class="cls-12" x1="1387.53" y1="415.11" x2="1355.09" y2="422.63"/><line class="cls-12" x1="1389.51" y1="427.11" x2="1358.06" y2="434.63"/><path class="cls-12" d="M1424.12,482.63c-2.66-5.38-10.85-9.44-16.95-9.63-5.85-.19-7.92,3.24-8.09,3.53" transform="translate(-70.07 -196.37)"/><rect class="cls-13" x="1185.39" y="623.37" width="184.71" height="77.2" rx="38.6" transform="translate(2485.42 1127.58) rotate(180)"/><polygon class="cls-4" points="1095.73 640.91 1147.89 653.97 1175.12 455.95 1122.97 442.89 1095.73 640.91"/><polygon class="cls-14" points="1094.42 644.3 1149.22 656.36 1154.12 620.92 1099.32 608.87 1094.42 644.3"/><rect class="cls-4" x="1173.71" y="382.89" width="48.87" height="102.85" transform="translate(-143.74 319.53) rotate(-23.6)"/><polygon class="cls-4" points="1218.83 633.95 1262.11 605.2 1182.78 457.97 1139.51 486.73 1218.83 633.95"/><polygon class="cls-14" points="1229.39 651.5 1274.26 624.58 1253.5 588.17 1208.63 615.1 1229.39 651.5"/><polygon class="cls-15" points="1138.2 261.5 1105.57 251.38 1059.55 404.76 1092.18 414.88 1138.2 261.5"/><polygon class="cls-13" points="1104.12 248.4 1282.96 242.5 1283.2 449.71 1104.37 455.61 1104.12 248.4"/><polygon class="cls-6" points="1283.99 498.81 1363.93 469.88 1273.37 192.73 1193.43 221.66 1283.99 498.81"/><ellipse class="cls-13" cx="1244.26" cy="453.26" rx="30.54" ry="29.9" transform="translate(-149.8 230.74) rotate(-18.88)"/><ellipse class="cls-4" cx="1108.93" cy="158.06" rx="51.8" ry="53.47"/><path class="cls-16" d="M1193,338.42l15.16,23.22c8,12.32,20.2,15.06,21.69,4.88l2.61-17.81,2.83-19.31c1.44-9.84-8.21-24.62-17.68-27.09L1199,297.45,1181.88,293c-9.8-2.56-12.05,9.9-4,22.22Z" transform="translate(-70.07 -196.37)"/><ellipse class="cls-16" cx="1179.32" cy="311.62" rx="47.43" ry="21.24" transform="matrix(1, -0.1, 0.1, 1, -94.34, -82.92)"/><ellipse cx="1067.41" cy="152.02" rx="3.16" ry="3.22"/><path class="cls-4" d="M1130.58,365.9q-9.4.9-9.7-2.57-.35-4.06,11.85-14.13" transform="translate(-70.07 -196.37)"/><path class="cls-17" d="M1148.52,370c0,4.15-2.67,7.66-6.16,8.37-3.23.66-6.57-1.23-8.12-4.65" transform="translate(-70.07 -196.37)"/><path class="cls-8" d="M1134.35,336.72c1-.72,3.91-.83,6.85-.28,2.73.51,5,1.48,5.39,2.39" transform="translate(-70.07 -196.37)"/><ellipse class="cls-4" cx="1128.3" cy="146.4" rx="14.23" ry="14.47"/><path class="cls-4" d="M1277.77,573.4l-.12-.6c-2.13-10.12-11.25-16.68-20.23-14.57l-113.27,26.59c-8.77,2.06-14.14,11.63-12.06,21.5l.13.6c2.13,10.12,11.24,16.68,20.23,14.57l113.27-26.59C1274.49,592.84,1279.85,583.27,1277.77,573.4Z" transform="translate(-70.07 -196.37)"/><path class="cls-9" d="M1184.35,578.54l.11-.57c1.86-9.66-3.06-18.81-10.93-20.33l-99.14-19.15c-7.68-1.48-15.3,4.89-17.12,14.31l-.11.57c-1.86,9.65,3.06,18.81,10.93,20.33l99.14,19.15C1174.91,594.33,1182.53,588,1184.35,578.54Z" transform="translate(-70.07 -196.37)"/><line class="cls-18" x1="1155.98" y1="269.42" x2="1168.64" y2="324.91"/><polygon class="cls-4" points="1041.03 434.17 1094.32 422.25 1086.67 386.91 1033.38 398.84 1041.03 434.17"/><polygon class="cls-4" points="1041.82 433.37 1095.11 421.44 1087.46 386.1 1034.17 398.03 1041.82 433.37"/><polygon class="cls-9" points="1000.37 378.25 1022.63 350.71 985 317.82 962.73 345.36 1000.37 378.25"/><path class="cls-11" d="M1087,560.92l-7.88,2.48c-2,.63-4.37-2.1-4.62-5.27l-1.65-20.51-1.22-15.12c-.33-4.18,3.11-5.26,5.29-1.67l7.9,13,10.72,17.66c1.66,2.73,1.31,6.31-.67,6.94Z" transform="translate(-70.07 -196.37)"/><path d="M1275.42,872.35c16.13-5.26,90.26-34.22,82.29-48.34-3.49-6.18-19.19-21.53-37.57-4.83C1264,870.18,1246.09,881.93,1275.42,872.35Z" transform="translate(-70.07 -196.37)"/><path d="M1134.05,857c16.63,2.69,95.25,11,94.68-4.57-.24-6.81-7.06-26.87-30.91-20.82C1125,850,1103.8,852.06,1134.05,857Z" transform="translate(-70.07 -196.37)"/><line class="cls-12" x1="993.93" y1="343.63" x2="976.73" y2="329.29"/><line class="cls-12" x1="1000.84" y1="333.8" x2="984.79" y2="357.58"/><line class="cls-12" x1="989.93" y1="353.63" x2="969.94" y2="337.1"/><line class="cls-12" x1="1062.48" y1="400.08" x2="1035.96" y2="406.53"/><line class="cls-12" x1="1063.27" y1="409.72" x2="1037.36" y2="415.77"/><line class="cls-12" x1="1064.85" y1="419.37" x2="1039.73" y2="425.42"/><path class="cls-12" d="M1101.31,551.94c-5.11-3.14-14.21-2.23-19.48.85-5,3-5,7-5,7.3" transform="translate(-70.07 -196.37)"/><rect x="427.99" y="396.67" width="177.7" height="70.87" rx="35.44"/><line class="cls-2" x1="129.93" y1="525.63" x2="126.93" y2="686.63"/><line class="cls-19" x1="1190.93" y1="503.63" x2="1189.93" y2="603.63"/><line class="cls-19" x1="544.93" y1="502.63" x2="542.93" y2="592.63"/><polygon points="639.26 595.67 582.64 606.5 548.16 423.24 604.79 412.4 639.26 595.67"/><polygon class="cls-20" points="595.16 275.34 552.07 257.38 591.69 170.87 634.77 188.83 595.16 275.34"/><polygon points="496.56 604.05 448.6 574.79 540.62 418.98 588.57 448.24 496.56 604.05"/><polygon class="cls-21" points="583.68 244.73 615.08 235.44 659.35 376.25 627.96 385.54 583.68 244.73"/><polygon class="cls-22" points="615.13 232.78 425.96 227.36 424.4 422.44 613.57 427.86 615.13 232.78"/><polygon class="cls-6" points="424.69 426.86 365.47 395.18 479.91 186.94 539.13 218.62 424.69 426.86"/><ellipse class="cls-20" cx="611.84" cy="149.77" rx="49.84" ry="49.09"/><path class="cls-23" d="M668.41,331.45l-14.58,21.32c-7.73,11.31-19.44,13.82-20.87,4.48l-2.51-16.35-2.72-17.73c-1.39-9,7.89-22.6,17-24.87l17.9-4.46,16.5-4.1c9.43-2.35,11.59,9.08,3.85,20.39Z" transform="translate(-70.07 -196.37)"/><ellipse class="cls-23" cx="683.14" cy="306.85" rx="19.5" ry="45.62" transform="translate(246.83 763.7) rotate(-84.91)"/><ellipse cx="651.79" cy="144.24" rx="3.04" ry="2.95"/><path class="cls-20" d="M728.5,356.68q9,.82,9.33-2.36.33-3.74-11.41-13" transform="translate(-70.07 -196.37)"/><path class="cls-7" d="M713.71,359.8a4.84,4.84,0,0,0,3.92,4.89,5.09,5.09,0,0,0,5.32-2.82" transform="translate(-70.07 -196.37)"/><path class="cls-8" d="M724.87,329.89c-1-.66-3.76-.77-6.59-.26-2.63.47-4.77,1.36-5.19,2.19" transform="translate(-70.07 -196.37)"/><ellipse class="cls-20" cx="663.27" cy="335.44" rx="13.7" ry="13.29" transform="matrix(0.98, -0.22, 0.22, 0.98, -127.56, -42.46)"/><path class="cls-20" d="M586.88,547.16l.12-.55c2-9.28,10.82-15.31,19.47-13.37l109,24.41c8.44,1.89,13.6,10.67,11.6,19.74l-.12.55c-2,9.28-10.82,15.31-19.46,13.37l-109-24.41C590,565,584.88,556.23,586.88,547.16Z" transform="translate(-70.07 -196.37)"/><path class="cls-24" d="M701.51,572.48l-.47-.29c-8-4.77-11.26-13.8-7.18-20l51.43-78.65c4-6.09,13.46-7.23,21.29-2.57l.48.29c8,4.78,11.25,13.81,7.17,20L722.8,569.91C718.82,576,709.35,577.14,701.51,572.48Z" transform="translate(-70.07 -196.37)"/><line class="cls-25" x1="554.93" y1="249.63" x2="541.4" y2="309.94"/><polygon class="cls-4" points="677.17 403.25 625.9 392.3 633.26 359.86 684.53 370.81 677.17 403.25"/><polygon class="cls-20" points="676.41 402.51 625.14 391.56 632.5 359.12 683.77 370.07 676.41 402.51"/><rect class="cls-24" x="742.47" y="436.01" width="37.63" height="61" transform="translate(109.12 -406.88) rotate(17.81)"/><path class="cls-26" d="M747.49,495.37l7.69-1.92c1.93-.48,2.48-3.77,1.06-6.36l-9.15-16.75L740.35,458c-1.87-3.4-5.22-2.57-5.16,1.29l.22,14,.3,19c0,2.93,2.16,5.55,4.09,5.07Z" transform="translate(-70.07 -196.37)"/><path class="cls-27" d="M582.11,827.46c-14-8.1-77.12-49.58-66.59-60.52,4.62-4.79,22.67-15.21,36.26,3.59C593.25,827.91,607.51,842.19,582.11,827.46Z" transform="translate(-70.07 -196.37)"/><path class="cls-27" d="M740.53,807.46c-16,2.47-91.64,10.09-91.1-4.19.24-6.26,6.8-24.67,29.75-19.11C749.22,801.11,769.63,803,740.53,807.46Z" transform="translate(-70.07 -196.37)"/><line class="cls-12" x1="682.93" y1="268.63" x2="692.93" y2="238.63"/><line class="cls-12" x1="670.75" y1="264.2" x2="703.93" y2="278.63"/><line class="cls-12" x1="691.35" y1="273.05" x2="704.51" y2="242.21"/><line class="cls-12" x1="656.53" y1="371.95" x2="682.05" y2="377.88"/><line class="cls-12" x1="655.77" y1="380.81" x2="680.7" y2="386.35"/><line class="cls-12" x1="654.25" y1="389.66" x2="678.42" y2="395.21"/><path class="cls-12" d="M745.05,486.63c2.69-5.38,11-9.44,17.11-9.63,5.91-.19,8,3.24,8.17,3.53" transform="translate(-70.07 -196.37)"/><ellipse class="cls-16" cx="1172.21" cy="80.06" rx="48.72" ry="45.43"/><path class="cls-13" d="M1188.52,631.3c-85.11,78.14-81.22,78.94-81.22,78.94l94.24,23.32,105.15-23.32,51.4-2.41-3.89-61.92-22.59-21.71Z" transform="translate(-70.07 -196.37)"/><ellipse class="cls-28" cx="1394.43" cy="87.63" rx="17.5" ry="17"/><line class="cls-29" x1="1411.93" y1="86.63" x2="1459.93" y2="71.63"/><ellipse class="cls-30" cx="1090.75" cy="162.08" rx="7.19" ry="6.83"/><line class="cls-31" x1="648.75" y1="156.05" x2="685.27" y2="144.98"/><rect class="cls-32" x="82.79" y="414.6" width="233.56" height="96.01" rx="48"/><polygon class="cls-32" points="360.47 684.19 286.04 698.87 240.73 450.6 315.15 435.92 360.47 684.19"/><polygon class="cls-3" points="360.56 684.65 286.04 698.87 267.74 595.71 342.26 581.49 360.56 684.65"/><polygon class="cls-14" points="360.59 683.84 286.04 697.87 278.7 653.59 353.25 639.56 360.59 683.84"/><polygon class="cls-4" points="302.5 250.24 245.87 225.91 297.94 108.7 354.57 133.03 302.5 250.24"/><polygon class="cls-32" points="172.91 695.54 109.88 655.9 230.81 444.82 293.84 484.46 172.91 695.54"/><polygon class="cls-3" points="172.91 696.54 109.16 658.15 167.97 554.68 231.71 593.07 172.91 696.54"/><polygon class="cls-14" points="174.44 699 107.85 659.75 137.55 606.63 204.14 645.88 174.44 699"/><rect class="cls-33" x="382.57" y="394.79" width="44.34" height="178.56" transform="translate(-193.7 -57.21) rotate(-16.96)"/><polygon class="cls-34" points="329.03 202.04 84.61 194.89 82.83 444.36 327.25 451.51 329.03 202.04"/><polygon class="cls-6" points="83.6 447.95 0 418.77 96.01 135.75 179.61 164.92 83.6 447.95"/><ellipse class="cls-34" cx="289.62" cy="408.03" rx="37.23" ry="52.27" transform="translate(-246.57 393.58) rotate(-75.95)"/><ellipse class="cls-4" cx="324.43" cy="80.13" rx="65.5" ry="66.5"/><path d="M376.76,256.59l-19.17,28.88c-10.17,15.32-25.54,18.72-27.43,6.07l-3.3-22.15-3.58-24c-1.82-12.24,10.38-30.63,22.36-33.7l23.52-6,21.69-5.56c12.39-3.18,15.24,12.31,5.07,27.63Z" transform="translate(-70.07 -196.37)"/><ellipse cx="396.11" cy="223.26" rx="26.41" ry="59.97" transform="translate(67.03 400.6) rotate(-84.68)"/><circle cx="376.93" cy="72.63" r="4"/><path class="cls-4" d="M455.73,290.77q11.88,1.11,12.26-3.19.43-5.07-15-17.58" transform="translate(-70.07 -196.37)"/><path class="cls-7" d="M436.29,295a6.54,6.54,0,0,0,5.15,6.63,6.66,6.66,0,0,0,7-3.83" transform="translate(-70.07 -196.37)"/><path class="cls-8" d="M451,254.47c-1.27-.89-4.94-1-8.67-.35-3.45.64-6.26,1.85-6.81,3" transform="translate(-70.07 -196.37)"/><circle class="cls-4" cx="299.93" cy="65.63" r="18"/><path class="cls-4" d="M287.33,554.15l-.51-.57c-8.64-9.53-8.55-23.65.21-31.34l110.43-97c8.55-7.52,22.18-6.09,30.62,3.22l.51.56c8.64,9.53,8.55,23.65-.21,31.35L318,557.37C309.4,564.88,295.77,563.45,287.33,554.15Z" transform="translate(-70.07 -196.37)"/><path class="cls-9" d="M417.26,585.12l-.63-.39c-10.54-6.47-14.79-18.71-9.43-27.16L474.8,451c5.23-8.25,17.69-9.8,28-3.48l.63.39c10.54,6.47,14.79,18.7,9.43,27.15l-67.6,106.54C440,589.89,427.55,591.44,417.26,585.12Z" transform="translate(-70.07 -196.37)"/><line class="cls-35" x1="264.93" y1="218.63" x2="248.93" y2="287.63"/><ellipse class="cls-34" cx="352.7" cy="381.42" rx="27.69" ry="57.11" transform="translate(-224.04 299.79) rotate(-60)"/><path class="cls-35" d="M311.39,384.15c3.68,4.55,37.7,45.39,72.33,33.14A44.94,44.94,0,0,0,396,410.51" transform="translate(-70.07 -196.37)"/><rect class="cls-4" x="401.62" y="393.72" width="69" height="43.35" transform="translate(-228.73 313.79) rotate(-52.66)"/><rect class="cls-9" x="481.31" y="410.02" width="44.24" height="61" transform="translate(88.81 -329.25) rotate(17.81)"/><path class="cls-11" d="M485.94,478.65l10.11-2.6c2.53-.65,3.26-5.1,1.4-8.61l-12-22.69L476.56,428c-2.45-4.62-6.87-3.48-6.79,1.74l.3,18.93.39,25.68c.06,4,2.84,7.53,5.38,6.87Z" transform="translate(-70.07 -196.37)"/><path class="cls-36" d="M263.33,928.55c-18.36-11-101.36-67.17-87.52-82,6.07-6.49,29.79-20.61,47.65,4.86C278,929.15,296.71,948.5,263.33,928.55Z" transform="translate(-70.07 -196.37)"/><path class="cls-36" d="M471.54,901.45c-21,3.35-120.44,13.68-119.73-5.68.31-8.47,8.93-33.41,39.09-25.89C483,892.85,509.79,895.37,471.54,901.45Z" transform="translate(-70.07 -196.37)"/><line class="cls-12" x1="423.93" y1="242.63" x2="433.93" y2="212.63"/><line class="cls-12" x1="411.75" y1="238.2" x2="444.93" y2="252.63"/><line class="cls-12" x1="433.93" y1="247.63" x2="443.93" y2="215.63"/><line class="cls-12" x1="350.14" y1="216.87" x2="370.39" y2="188.22"/><line class="cls-12" x1="363" y1="222.49" x2="381.03" y2="194.12"/><line class="cls-12" x1="373.64" y1="228.38" x2="391.34" y2="200.96"/><line class="cls-31" x1="372.93" y1="88.63" x2="420.93" y2="73.63"/><path class="cls-12" d="M486.05,460.63c2.69-5.38,11-9.44,17.11-9.63,5.91-.19,8,3.24,8.17,3.53" transform="translate(-70.07 -196.37)"/><ellipse class="cls-37" cx="909.93" cy="778.13" rx="491" ry="37.5"/><line class="cls-38" x1="778.93" y1="774.63" x2="916.93" y2="512.63"/><line class="cls-39" x1="1023.93" y1="778.63" x2="902.93" y2="513.63"/><ellipse class="cls-40" cx="342.93" cy="91.13" rx="14" ry="13.5"/><line class="cls-41" x1="1099.93" y1="235.63" x2="1148.43" y2="218.13"/><ellipse class="cls-42" cx="882.43" cy="503.13" rx="669.5" ry="69.5"/><ellipse class="cls-42" cx="203.5" cy="706.5" rx="23.5" ry="61.5" transform="translate(-580.95 683.96) rotate(-87.61)"/><ellipse class="cls-42" cx="1706.5" cy="730.5" rx="23.5" ry="61.5" transform="translate(835.34 2208.65) rotate(-87.61)"/><rect class="cls-43" x="298.93" y="461.63" width="179" height="24"/><rect class="cls-43" x="583.93" y="428.63" width="179" height="28"/><rect class="cls-43" x="867.93" y="435.63" width="179" height="28"/><rect class="cls-43" x="1199.93" y="456.63" width="179" height="28"/><rect class="cls-43" x="494.31" y="591.64" width="143.51" height="38.38" transform="translate(-332.58 498.06) rotate(-52.94)"/><rect class="cls-43" x="499.31" y="594.64" width="143.51" height="38.38" transform="translate(-332.99 503.24) rotate(-52.94)"/><rect class="cls-43" x="1181.31" y="587.64" width="143.51" height="38.38" transform="translate(1284.01 1799.06) rotate(-120)"/><rect class="cls-43" x="792.74" y="579.61" width="111.02" height="33.31" transform="translate(-208.84 717.46) rotate(-52.94)"/><rect class="cls-43" x="874.71" y="558.67" width="149.27" height="47.18" transform="translate(297.01 1335.23) rotate(-90)"/><line class="cls-44" x1="444.77" y1="460.73" x2="523.09" y2="362.53"/><line class="cls-44" x1="1222.93" y1="455.63" x2="1167.03" y2="356.58"/><line class="cls-45" x1="745.93" y1="421.63" x2="794.93" y2="357.63"/><line class="cls-46" x1="901.93" y1="431.43" x2="902.93" y2="330.63"/></svg>
