<svg id="Layer_1" data-name="Layer 1" xmlns="http://www.w3.org/2000/svg" width="1919.02" height="1049.99" viewBox="0 0 1919.02 1049.99"><defs><style>.cls-1{fill:#603813;}.cls-2,.cls-6{fill:#ffedb4;}.cls-3{fill:#009245;}.cls-21,.cls-23,.cls-4{fill:#fff;}.cls-16,.cls-18,.cls-24,.cls-25,.cls-5,.cls-7{fill:none;}.cls-5{stroke:#000;}.cls-17,.cls-18,.cls-21,.cls-23,.cls-25,.cls-5,.cls-7{stroke-linecap:round;stroke-linejoin:round;}.cls-5,.cls-7{stroke-width:2px;}.cls-6{stroke:#ffedb4;stroke-width:3px;}.cls-24,.cls-6{stroke-miterlimit:10;}.cls-7{stroke:#ffa03f;}.cls-8{fill:#ffd694;}.cls-9{fill:#552600;}.cls-10{fill:#4fff3f;}.cls-11{fill:gray;}.cls-12{fill:#ff9e00;}.cls-13{fill:#c69c6d;}.cls-14{fill:#9f5000;}.cls-15{fill:#9f4300;}.cls-17{fill:#7f0300;}.cls-17,.cls-18{stroke:#aa0400;stroke-width:8px;}.cls-19{fill:#ffd79f;}.cls-20{fill:#ccc;}.cls-21,.cls-24,.cls-25{stroke:#fff;}.cls-21,.cls-23{stroke-width:14px;}.cls-22{fill:#fff67f;}.cls-23{stroke:#e6e6e6;}.cls-24{stroke-width:10px;}.cls-25{stroke-width:16px;}</style></defs><title>presenting</title><rect class="cls-1" x="70" y="376.85" width="825" height="238"/><polygon class="cls-2" points="439.08 281.29 375.4 276.6 386.71 143.33 450.39 148.01 439.08 281.29"/><polygon class="cls-3" points="516.68 221.83 342.37 216.29 339.8 454.27 514.11 459.82 516.68 221.83"/><polygon class="cls-4" points="347.58 466.79 276.98 457.24 311.15 187.62 381.75 197.16 347.58 466.79"/><polygon class="cls-4" points="567.93 450.08 497.82 462.75 448.39 195.54 518.51 182.87 567.93 450.08"/><ellipse class="cls-2" cx="425.55" cy="89.93" rx="67.85" ry="69.35"/><ellipse cx="399.6" cy="85.05" rx="4.14" ry="4.17"/><ellipse cx="453.53" cy="87.26" rx="4.14" ry="4.17"/><path class="cls-5" d="M407.37,104.36c-1.31-.93-5.11-1.08-9-.36-3.58.66-6.48,1.93-7.06,3.1" transform="translate(0 -31.15)"/><path class="cls-5" d="M467.34,112.59c-.49-3.09-4.23-6.13-8.79-7.23-4.23-1-8.31-.17-9.94,2.12" transform="translate(0 -31.15)"/><ellipse class="cls-2" cx="365.45" cy="82.39" rx="18.65" ry="18.77"/><ellipse class="cls-2" cx="484.47" cy="114.28" rx="18.65" ry="18.77" transform="translate(237.41 515.25) rotate(-73.51)"/><path class="cls-2" d="M448,242.74l.5-.31c8.33-5.21,19.85-1.54,25.57,8.14l72.08,122c5.58,9.45,3.53,21.11-4.6,26.19l-.5.31c-8.33,5.21-19.86,1.54-25.57-8.14l-72.08-122C437.85,259.48,439.9,247.82,448,242.74Z" transform="translate(0 -31.15)"/><path class="cls-2" d="M379.06,237l.56.33c9.58,5.72,12.84,17.92,7.23,27.08L316.16,379.9c-5.48,8.94-17.37,11.63-26.72,6.05l-.57-.34c-9.58-5.72-12.83-17.92-7.22-27.08l70.69-115.46C357.82,234.12,369.71,231.43,379.06,237Z" transform="translate(0 -31.15)"/><polygon class="cls-2" points="546.81 415.04 511.37 352.71 551.89 329.31 587.33 391.64 546.81 415.04"/><polygon class="cls-2" points="268.62 331.39 311.24 348.24 288.01 407.45 245.39 390.59 268.62 331.39"/><path class="cls-6" d="M298.51,360.69l-4.78-9.7c-1.2-2.43-5.9-2.23-9.09.4l-20.63,17L248.8,380.91c-4.2,3.46-2.11,7.7,3.21,6.51l19.27-4.3,26.14-5.82c4-.9,7.08-4.48,5.88-6.91Z" transform="translate(0 -31.15)"/><path class="cls-6" d="M534.4,388.27l-2.07,10.62c-.51,2.66,3.35,5.34,7.48,5.18l26.71-1,19.69-.76c5.43-.21,6.33-4.85,1.38-7.13l-17.93-8.25-24.34-11.18c-3.76-1.74-8.34-.73-8.86,1.93Z" transform="translate(0 -31.15)"/><line class="cls-7" x1="289.81" y1="374.04" x2="279.84" y2="405.47"/><line class="cls-7" x1="265.6" y1="400.7" x2="278.39" y2="365.46"/><line class="cls-7" x1="268.16" y1="361.41" x2="253.71" y2="393.24"/><line class="cls-7" x1="547.67" y1="372.15" x2="563.05" y2="405.21"/><line class="cls-7" x1="539.03" y1="380.05" x2="554.24" y2="411.56"/><line class="cls-7" x1="558.77" y1="370.31" x2="574.21" y2="400.58"/><path class="cls-7" d="M292.54,374c-2.71,5.65-11.22,10-17.6,10.29-6.11.29-8.33-3.26-8.5-3.56" transform="translate(0 -31.15)"/><ellipse class="cls-8" cx="379.3" cy="103.17" rx="11.36" ry="11.83"/><ellipse class="cls-8" cx="475.86" cy="106" rx="10.79" ry="10"/><ellipse class="cls-9" cx="374.16" cy="48" rx="22.5" ry="22"/><ellipse class="cls-9" cx="394.16" cy="28" rx="22.5" ry="22"/><ellipse class="cls-9" cx="421.16" cy="22" rx="22.5" ry="22"/><ellipse class="cls-9" cx="455.16" cy="32" rx="22.5" ry="22"/><ellipse class="cls-9" cx="479.16" cy="52" rx="22.5" ry="22"/><path class="cls-10" d="M234.11,719.71l-3.69,346.72,1.12,0c20.71-.27,41.36,1.53,61.93,3.64,9.4,1,18.8,2,28.21,2.78,5,.42,10.06.79,15.09,1l1.52.07c3.62-.56,4.1-.24,3.31,0,1,.06,2.07.15,3,.15,21.31,0,42.54-2.26,63.83-3,21.84-.71,43.77-.1,65.62-.1,6.43,0,22.64,1,25.87,9.29,3.36-.22,6.72-.42,10.08-.56l3.74-351Z" transform="translate(0 -31.15)"/><path class="cls-10" d="M338.33,1073.94l1.76.08a5.25,5.25,0,0,0,1.51-.12A18.68,18.68,0,0,0,338.33,1073.94Z" transform="translate(0 -31.15)"/><path class="cls-4" d="M165.82,1077.36c20.84-7.76,43.63-10.67,65.72-11,6.24-.08,12.48,0,18.7.29l47.05-376.47L184,674.69l-50.32,402.72C144.42,1077.25,155.13,1077.14,165.82,1077.36Z" transform="translate(0 -31.15)"/><polygon class="cls-4" points="560.06 927.34 447.51 947.59 393.03 656.01 505.58 635.76 560.06 927.34"/><path class="cls-2" d="M405.34,712.43l1.05-.66c17.78-11.14,39.85-7.35,49,8.41L570.74,918.9c8.93,15.39,2.18,36.45-15.18,47.33l-1,.66c-17.78,11.14-39.85,7.34-49-8.42L390.16,759.75C381.23,744.36,388,723.3,405.34,712.43Z" transform="translate(0 -31.15)"/><path class="cls-2" d="M285.57,712.78l1.11.52c18.73,8.74,27.13,30.84,18.66,49.06L198.57,992c-8.27,17.79-29.56,25.22-47.84,16.68l-1.11-.52c-18.73-8.74-27.14-30.84-18.67-49.06L237.72,729.46C246,711.67,267.28,704.25,285.57,712.78Z" transform="translate(0 -31.15)"/><polygon class="cls-2" points="783.27 779.33 681.1 771.71 699.25 554.85 801.41 562.47 783.27 779.33"/><path class="cls-11" d="M848.63,1076.35c12.38-.54,25.41.27,37.35,3.81a56.92,56.92,0,0,1,13.29-3.49c1.54-.23,3.09-.4,4.63-.55l3.87-362.39-279.66-9-3.93,368.58c24.88,1,49.7,2.91,74.55,4.66q6.38.43,12.76.74l4.11.18a18.68,18.68,0,0,1,2.71.1c8.18.22,16.37.28,24.55.24,13-.08,25.95-.44,38.92-.93,3.23-.32,6.46-.62,9.7-.85,13.32-.94,27-.66,39.94,2.55C836.93,1077.4,843.92,1076.55,848.63,1076.35Z" transform="translate(0 -31.15)"/><path class="cls-4" d="M537.62,1077.81c18.25-6.8,38-5.41,57-5.27,15.63.11,31.22.73,46.8,1.59l49.85-398.91L578,659.69l-52.48,420.06c2.15.12,4.31.31,6.47.55A44.5,44.5,0,0,1,537.62,1077.81Z" transform="translate(0 -31.15)"/><path class="cls-4" d="M886,1080.16a56.92,56.92,0,0,1,13.29-3.49c10.71-1.59,21.53-1,32.26.08,1.46.15,2.93.28,4.39.42,2.88,0,5.76-.09,8.63-.27,1.24-.08,2.47-.19,3.7-.29l.19,0c2.76-.77,6.16-.66,9-1,4.78-.56,9.56-1.06,14.35-1.53a156.7,156.7,0,0,1,16.06-.78L910.7,650.33,798.21,670.94l74.11,406.34A91.8,91.8,0,0,1,886,1080.16Z" transform="translate(0 -31.15)"/><path class="cls-11" d="M792.34,703.43l1-.66c17.78-11.14,39.85-7.35,49,8.41L957.74,909.9c8.93,15.39,2.18,36.45-15.18,47.33l-1,.66c-17.78,11.14-39.85,7.34-49-8.42L777.16,750.75C768.23,735.36,775,714.3,792.34,703.43Z" transform="translate(0 -31.15)"/><path class="cls-11" d="M690.24,704l1,.63c17.66,10.74,24.76,31.75,15.76,46.65L593.62,939.13c-8.79,14.55-29.66,17.82-46.9,7.34l-1.05-.63c-17.66-10.73-24.76-31.75-15.77-46.65L643.34,711.32C652.12,696.77,673,693.5,690.24,704Z" transform="translate(0 -31.15)"/><polygon class="cls-2" points="1187.27 784.33 1085.1 776.71 1103.25 559.85 1205.41 567.47 1187.27 784.33"/><polygon class="cls-2" points="397.89 699.21 295.75 691.32 305.27 582.59 407.41 590.47 397.89 699.21"/><path class="cls-12" d="M1096.56,1075.14a114.84,114.84,0,0,1,15.22,2.87l1-.23c14.19-3.22,31-5.14,46-2a38.19,38.19,0,0,1,3.85-.22c7.59,0,15.16.28,22.73.66,10.72-.33,21.45,0,32.17.35s21.35,1,32,1.54l8.75.39.94,0,1.88,0q7.82.18,15.63.05l6.13-.11,3.84-359.81-279.66-9-3.89,364.75a22.08,22.08,0,0,1,9.77,4.48,2.09,2.09,0,0,1,.22.2,45.88,45.88,0,0,1,14.66-2.79c.75,0,1.54,0,2.34,0,12.85-.25,25.67-1.9,38.53-2.21A178.25,178.25,0,0,1,1096.56,1075.14Z" transform="translate(0 -31.15)"/><polygon class="cls-4" points="1046.47 1028.79 933.2 1013.25 988.01 574.54 1101.29 590.07 1046.47 1028.79"/><rect class="cls-4" x="1224.93" y="619.05" width="114.36" height="441.97" transform="translate(-130.41 213.7) rotate(-10.38)"/><path class="cls-2" d="M1212.34,707.43l1.05-.66c17.78-11.14,39.85-7.35,49,8.41L1377.74,913.9c8.93,15.39,2.18,36.45-15.18,47.33l-1,.66c-17.78,11.14-39.85,7.34-49-8.42L1197.16,754.75C1188.23,739.36,1195,718.3,1212.34,707.43Z" transform="translate(0 -31.15)"/><path class="cls-2" d="M1080.24,708l1,.63c17.66,10.74,24.76,31.75,15.76,46.65L983.62,943.13c-8.79,14.55-29.66,17.82-46.9,7.34l-1.05-.63c-17.66-10.73-24.76-31.75-15.77-46.65l113.44-187.87C1042.12,700.77,1063,697.5,1080.24,708Z" transform="translate(0 -31.15)"/><polygon class="cls-2" points="1616.27 807.33 1514.1 799.71 1532.25 582.85 1634.41 590.47 1616.27 807.33"/><path d="M1461.11,732.71l-3.68,345.22c3.5.16,7,.37,10.5.61a47.63,47.63,0,0,1,15.68-3c3.86,0,11.24.36,17.22,2.44,1.12.19,2.25.43,3.36.71a274.28,274.28,0,0,1,32.44-.15,48.18,48.18,0,0,1,13.62-2.23,59.38,59.38,0,0,1,16,2.05c9.84-2.4,19.68-4.21,29.93-4.35,4.46-.06,13.65.46,19.93,3.56l3-.62c12.63-2.49,25.56-2.76,38.37-2.15a215.68,215.68,0,0,1,24.73,2.86,47.44,47.44,0,0,1,10.48-1.35,62.13,62.13,0,0,1,14.66,1.66,138.92,138.92,0,0,1,29.83-2.84l3.56-333.44Z" transform="translate(0 -31.15)"/><path class="cls-4" d="M1477.7,1076.06l46.59-372.84L1411,687.69l-48.69,389.67q22.14-.22,44.28-.25c20.5,0,40.91,0,61.34,1.43A45,45,0,0,1,1477.7,1076.06Z" transform="translate(0 -31.15)"/><path class="cls-4" d="M1743.7,678.33l-112.49,20.61,68.9,377.8a50.24,50.24,0,0,1,7.29,1.28c13.54-3,27.7-3.13,41.61-2.62,6.74.25,13.45.76,20.17,1.32,1.22.1,14.16.8,17.32,1.16h.08l5.84,0q6.82,0,13.65.1l10.55.14Z" transform="translate(0 -31.15)"/><path d="M1640.55,739.42l1.11-.56c18.67-9.57,40.34-3.89,48.09,12.61l97.79,207.92c7.58,16.1-1,36.5-19.2,45.84l-1.1.57c-18.67,9.56-40.34,3.88-48.09-12.61l-97.79-207.92C1613.78,769.16,1622.33,748.76,1640.55,739.42Z" transform="translate(0 -31.15)"/><path d="M1524.24,732l1,.63c17.66,10.74,24.76,31.75,15.76,46.65L1427.62,967.13c-8.79,14.55-29.66,17.82-46.9,7.34l-1-.63c-17.66-10.73-24.76-31.75-15.77-46.65l113.44-187.87C1486.12,724.77,1507,721.5,1524.24,732Z" transform="translate(0 -31.15)"/><ellipse class="cls-13" cx="476.51" cy="396.35" rx="442.49" ry="84.5"/><ellipse class="cls-2" cx="350.75" cy="501.37" rx="109.39" ry="109.91"/><ellipse cx="308.92" cy="493.63" rx="6.68" ry="6.61"/><ellipse cx="395.87" cy="497.14" rx="6.68" ry="6.61"/><path class="cls-5" d="M321.46,506c-2.12-1.48-8.25-1.71-14.47-.58-5.78,1.05-10.46,3.06-11.39,4.92" transform="translate(0 -31.15)"/><path class="cls-5" d="M418.14,519.08c-.8-4.9-6.83-9.72-14.18-11.47-6.81-1.62-13.39-.27-16,3.36" transform="translate(0 -31.15)"/><ellipse class="cls-2" cx="253.86" cy="489.42" rx="30.06" ry="29.75"/><ellipse class="cls-2" cx="445.74" cy="521.75" rx="29.56" ry="30.25" transform="translate(-110.05 893.09) rotate(-85.4)"/><ellipse class="cls-8" cx="276.2" cy="522.36" rx="18.31" ry="18.74"/><ellipse class="cls-8" cx="431.88" cy="526.84" rx="17.4" ry="15.85"/><ellipse class="cls-14" cx="267.9" cy="434.92" rx="36.27" ry="34.87"/><ellipse class="cls-14" cx="300.15" cy="403.23" rx="36.27" ry="34.87"/><ellipse class="cls-14" cx="343.68" cy="393.72" rx="36.27" ry="34.87"/><ellipse class="cls-14" cx="398.49" cy="409.57" rx="36.27" ry="34.87"/><ellipse class="cls-14" cx="437.19" cy="441.26" rx="36.27" ry="34.87"/><ellipse class="cls-2" cx="741.81" cy="498.6" rx="101.48" ry="100.83"/><ellipse cx="703" cy="491.5" rx="6.2" ry="6.07"/><ellipse cx="783.67" cy="494.72" rx="6.2" ry="6.07"/><path class="cls-5" d="M714.63,505.45c-2-1.36-7.65-1.57-13.42-.53-5.36,1-9.7,2.8-10.57,4.5" transform="translate(0 -31.15)"/><path class="cls-5" d="M804.32,517.41c-.74-4.49-6.33-8.91-13.15-10.51-6.32-1.49-12.42-.25-14.86,3.08" transform="translate(0 -31.15)"/><ellipse class="cls-2" cx="651.92" cy="487.64" rx="27.89" ry="27.29"/><ellipse class="cls-2" cx="829.93" cy="519.86" rx="27.12" ry="28.06" transform="translate(265.93 1289.3) rotate(-86.9)"/><ellipse class="cls-8" cx="672.64" cy="517.85" rx="16.98" ry="17.19"/><ellipse class="cls-8" cx="817.07" cy="521.96" rx="16.14" ry="14.54"/><ellipse class="cls-2" cx="1156.81" cy="506.6" rx="101.48" ry="100.83"/><ellipse cx="1118" cy="499.5" rx="6.2" ry="6.07"/><ellipse cx="1198.67" cy="502.72" rx="6.2" ry="6.07"/><path class="cls-5" d="M1129.63,513.45c-2-1.36-7.65-1.57-13.42-.53-5.36,1-9.7,2.8-10.57,4.5" transform="translate(0 -31.15)"/><path class="cls-5" d="M1219.32,525.41c-.74-4.49-6.33-8.91-13.15-10.51-6.32-1.49-12.42-.25-14.86,3.08" transform="translate(0 -31.15)"/><ellipse class="cls-2" cx="1066.92" cy="495.64" rx="27.89" ry="27.29"/><ellipse class="cls-2" cx="1246.93" cy="522.86" rx="27.12" ry="28.06" transform="translate(657.37 1708.53) rotate(-86.9)"/><ellipse class="cls-8" cx="1087.64" cy="525.85" rx="16.98" ry="17.19"/><ellipse class="cls-8" cx="1232.07" cy="529.96" rx="16.14" ry="14.54"/><ellipse class="cls-2" cx="1586.81" cy="520.6" rx="101.48" ry="100.83"/><ellipse cx="1548" cy="513.5" rx="6.2" ry="6.07"/><ellipse cx="1628.67" cy="516.72" rx="6.2" ry="6.07"/><path d="M1559.63,527.45a7.58,7.58,0,0,0-3-.84,23.48,23.48,0,0,0-3.14-.1,40.73,40.73,0,0,0-6.24.74,37.05,37.05,0,0,0-6,1.69,20.47,20.47,0,0,0-2.76,1.28,8,8,0,0,0-1.19.81,2.44,2.44,0,0,0-.75.85,1,1,0,0,1-1.87-.73l.06-.13,0,0a4.42,4.42,0,0,1,1.41-1.44,9.94,9.94,0,0,1,1.5-.86,21.82,21.82,0,0,1,3.09-1.15,39.62,39.62,0,0,1,6.33-1.26,41.35,41.35,0,0,1,6.39-.25,24.16,24.16,0,0,1,3.18.35A7.71,7.71,0,0,1,1559.63,527.45Z" transform="translate(0 -31.15)"/><path class="cls-5" d="M1649.32,539.41c-.74-4.49-6.33-8.91-13.15-10.51-6.32-1.49-12.42-.25-14.86,3.08" transform="translate(0 -31.15)"/><ellipse class="cls-2" cx="1496.92" cy="509.64" rx="27.89" ry="27.29"/><ellipse class="cls-2" cx="1674.93" cy="541.86" rx="27.12" ry="28.06" transform="translate(1043.24 2153.88) rotate(-86.9)"/><ellipse class="cls-8" cx="1517.64" cy="539.85" rx="16.98" ry="17.19"/><ellipse class="cls-8" cx="1662.07" cy="543.96" rx="16.14" ry="14.54"/><path class="cls-15" d="M1153.7,503.1l-62.93-1.66c-33.39-.88-51.57-22.56-32.43-38.67l33.48-28.19L1128.14,404c18.51-15.57,58.58-14.52,73.44,1.94l29.17,32.3L1257.64,468c15.37,17-7.62,37.62-41,36.74Z" transform="translate(0 -31.15)"/><line class="cls-16" x1="364.7" y1="412.74" x2="422.33" y2="392.96"/><path class="cls-17" d="M984.12,1073.28l15.69-32.71c-5.44,10.9-10.9,21.78-16.07,32.73Z" transform="translate(0 -31.15)"/><path class="cls-17" d="M999.81,1040.57c6.2-12.43,12.35-24.87,18-37.48Z" transform="translate(0 -31.15)"/><path class="cls-18" d="M1030.58,1074.4c-9.48-23.5-19.49-46.77-29.61-70" transform="translate(0 -31.15)"/><path class="cls-19" d="M338.33,1073.94l1.76.08a5.25,5.25,0,0,0,1.51-.12A18.68,18.68,0,0,0,338.33,1073.94Z" transform="translate(0 -31.15)"/><path class="cls-19" d="M1918,1026.52C1826.89,950.87,1437.29,894,970.42,894,436,894,2.67,968.52,2.67,1060.46c0,7,2.54,13.9,7.43,20.68a54.19,54.19,0,0,1,8.21-1c2.93-.12,5.84-.1,8.75,0h9.59c.74,0,1.6,0,2.56,0l.49-.12a35.91,35.91,0,0,1,9.95-1.46H52a46.41,46.41,0,0,1,12.76,1.23c5.91-3.14,14.12-4.3,18.58-4.3a58.6,58.6,0,0,1,16.29,2.15c10.79-.21,21.61-.13,32.39-.3,11.21-.17,22.38-.29,33.55-.06,20.8-7.77,43.55-10.68,65.61-11,20.66-.27,41.28,1.53,61.82,3.64,9.38,1,18.75,2,28.15,2.78,5,.42,10,.79,15.07,1l1.51.07c3.61-.56,4.09-.24,3.3,0,1,.06,2.07.15,3,.15,21.28,0,42.47-2.26,63.72-3,21.79-.71,43.69-.1,65.49-.1,6.43,0,22.59,1,25.83,9.29,10.65-.69,21.28-1.22,32,0a44.31,44.31,0,0,1,5.6-2.49c18.21-6.8,37.88-5.41,56.92-5.27,34.72.25,69.28,3,103.9,5.41q6.36.43,12.74.74c1.36.07,2.73.12,4.09.18a18.68,18.68,0,0,1,2.71.1c8.17.22,16.34.28,24.51.24,13-.08,25.9-.44,38.85-.93,3.22-.32,6.44-.62,9.67-.85,13.31-.94,27-.66,39.88,2.55,5.49-2.58,12.47-3.43,17.18-3.63,12.35-.54,25.36.27,37.28,3.81a56.69,56.69,0,0,1,13.26-3.49c10.69-1.59,21.49-1,32.2.08,1.46.15,2.93.28,4.39.42,2.87,0,5.74-.09,8.61-.27,1.23-.08,2.46-.19,3.69-.29l.19,0c2.75-.77,6.15-.66,9-1,4.77-.56,9.55-1.06,14.33-1.53a148.68,148.68,0,0,1,18.52-.76c7.54.23,16.47.47,22.62,5.66.08.06.14.13.22.2a45.65,45.65,0,0,1,14.62-2.79c.76,0,1.55,0,2.34,0,12.83-.25,25.63-1.9,38.47-2.21a177.48,177.48,0,0,1,27.76,1.05,113.82,113.82,0,0,1,15.19,2.87l1-.23c14.17-3.22,30.93-5.14,46-2a38.19,38.19,0,0,1,3.85-.22c7.57,0,15.13.28,22.68.66,10.71-.33,21.41,0,32.12.35s21.31,1,32,1.54l8.74.39.93,0,1.88,0q7.8.18,15.61.05c43.2-.77,86.36-1.54,129.57-1.54,20.46,0,40.82,0,61.22,1.43a47.42,47.42,0,0,1,15.64-3c3.86,0,11.22.36,17.19,2.44,1.12.19,2.25.43,3.35.71a273.28,273.28,0,0,1,32.38-.15,48,48,0,0,1,13.6-2.23,59.18,59.18,0,0,1,16,2.05c9.82-2.4,19.65-4.21,29.87-4.35,4.46-.06,13.63.46,19.9,3.56l3-.62c12.61-2.49,25.51-2.76,38.31-2.15a215.07,215.07,0,0,1,24.68,2.86,47.21,47.21,0,0,1,10.46-1.35,61.85,61.85,0,0,1,14.63,1.66c13.52-3,27.67-3.12,41.56-2.61,6.72.25,13.43.76,20.13,1.32,1.22.1,14.14.8,17.29,1.16h.08l5.84,0q6.81,0,13.62.1,13.67.15,27.34.44c18.06.36,36,.83,54.09.49a102.7,102.7,0,0,1,19.17,1.3,27.33,27.33,0,0,1,3.37-.88,35.61,35.61,0,0,1,10-1.47H1918v-6.11c-.92-14.48,0-29.08,0-43.56Z" transform="translate(0 -31.15)"/><rect class="cls-20" x="275.87" y="904.68" width="214.89" height="31.65"/><rect class="cls-20" x="618.01" y="861.16" width="214.89" height="36.93"/><rect class="cls-20" x="1004.95" y="868.39" width="214.89" height="36.93"/><polygon class="cls-20" points="582.75 782.2 478.92 933.24 442.15 902.74 545.98 751.69 582.75 782.2"/><polygon class="cls-20" points="588.75 786.15 484.92 937.2 448.15 906.69 551.98 755.65 588.75 786.15"/><polygon class="cls-20" points="907.33 778.07 827.01 894.92 795.1 868.45 875.42 751.6 907.33 778.07"/><line class="cls-21" x1="450.95" y1="903.49" x2="544.97" y2="773.98"/><ellipse class="cls-22" cx="1543.87" cy="473.31" rx="76.64" ry="39.59" transform="translate(-54.72 670.33) rotate(-25.17)"/><ellipse cx="690.87" cy="452.31" rx="76.64" ry="39.59" transform="translate(-126.77 305.59) rotate(-25.17)"/><ellipse class="cls-22" cx="1630.87" cy="479.31" rx="39.59" ry="76.64" transform="translate(400.34 1620.88) rotate(-60)"/><ellipse cx="798.87" cy="451.31" rx="39.59" ry="76.64" transform="translate(8.59 886.35) rotate(-60)"/><ellipse class="cls-15" cx="1162.2" cy="323.56" rx="61.8" ry="61.71"/><polygon class="cls-20" points="970.53 734.65 1049.2 878.85 1012.76 901.11 934.09 756.92 970.53 734.65"/><line class="cls-21" x1="1035.42" y1="870.29" x2="974.13" y2="755.38"/><line class="cls-23" x1="812.49" y1="851.93" x2="871.32" y2="767.52"/><path class="cls-24" d="M873,1075.59l22.37.08" transform="translate(0 -31.15)"/><path class="cls-24" d="M812.2,1075.35l27.27.11" transform="translate(0 -31.15)"/><path class="cls-24" d="M677.37,1075c37.63,0,74.63,0,112.27.33" transform="translate(0 -31.15)"/><path class="cls-24" d="M497.38,1074.23l43.3.33" transform="translate(0 -31.15)"/><path class="cls-24" d="M1,1073c57,0,113,0,170,.49" transform="translate(0 -31.15)"/><line class="cls-25" x1="1911.02" y1="1040.85" x2="8" y2="1040.85"/></svg>
