<svg xmlns="http://www.w3.org/2000/svg" width="734.64" height="61.32" viewBox="0 0 734.64 61.32"><defs><style>.cls-1{fill:#fdfefe;}.cls-2{fill:#231f20;}.cls-3{fill:#f9f9fa;}.cls-4{fill:#eb4a44;}</style></defs><title>Asset 7</title><g id="Layer_2" data-name="Layer 2"><g id="Layer_1-2" data-name="Layer 1"><rect class="cls-1" width="39.82" height="48.87"/><path class="cls-2" d="M23.39,8.6,34.64,38.68H27.77L25.49,32H14.24l-2.35,6.7H5.23L16.6,8.6Zm.38,18.45L20,16h-.08L16,27.05Z"/><rect class="cls-3" x="39.82" y="8.6" width="141.02" height="47.97"/><path class="cls-2" d="M73.73,46.82,68.64,26.35h-.09l-5,20.47h-6.7l-8-30.08h6.61l4.76,20.48h.09l5.22-20.48h6.19l5.14,20.73H77l4.93-20.73h6.48L80.3,46.82Z"/><path class="cls-2" d="M113.92,16.74V22.3H98v6.45h14.58v5.14H98v7.37h16.22v5.56H91.43V16.74Z"/><path class="cls-2" d="M141.22,16.74V22.3H125.34v6.45h14.58v5.14H125.34v7.37h16.22v5.56H118.73V16.74Z"/><path class="cls-2" d="M152.64,16.74V29.21l11.75-12.47h8.26L160.9,28.62l12.89,18.2h-8.3L156.43,33.3l-3.79,3.83v9.69H146V16.74Z"/><rect class="cls-1" x="180.84" y="3.85" width="62.45" height="48.87"/><path class="cls-2" d="M204.9,12.44l11.25,30.08h-6.87L207,35.83H195.76l-2.36,6.69h-6.66l11.37-30.08Zm.38,18.46-3.8-11h-.08l-3.92,11Z"/><path class="cls-2" d="M212.52,18V12.44h24.65V18h-9V42.52h-6.61V18Z"/><rect class="cls-1" x="243.29" y="12.44" width="96.87" height="48.87"/><path class="cls-2" d="M258.33,21V33.51L270.09,21h8.25L266.59,32.92l12.89,18.2h-8.3L262.13,37.6l-3.8,3.83v9.69h-6.61V21Z"/><path class="cls-2" d="M304.63,21V26.6H288.75v6.45h14.58v5.14H288.75v7.37H305v5.56H282.14V21Z"/><path class="cls-2" d="M324.43,21l11.25,30.08h-6.86l-2.28-6.7H315.29l-2.36,6.7h-6.65L317.65,21Zm.38,18.45-3.79-11h-.08l-3.92,11Z"/><rect class="cls-4" x="340.16" width="394.47" height="51.32"/><path class="cls-2" d="M359.56,16.7,363.4,28h.05l3.63-11.29h5.09V33.12h-3.39V21.48h0l-4,11.64h-2.78l-4-11.52h-.05V33.12h-3.38V16.7Z"/><path class="cls-2" d="M387.42,31.87a9.05,9.05,0,0,1-10.32,0,6.28,6.28,0,0,1-1.83-5V16.7h3.61V26.91a7.09,7.09,0,0,0,.12,1.31,2.53,2.53,0,0,0,.48,1.14,2.7,2.7,0,0,0,1,.81,4.3,4.3,0,0,0,1.76.31,3.37,3.37,0,0,0,2.67-.87,4.09,4.09,0,0,0,.74-2.7V16.7h3.61V26.91A6.24,6.24,0,0,1,387.42,31.87Z"/><path class="cls-2" d="M396,16.7V30.08h8v3H392.38V16.7Z"/><path class="cls-2" d="M402.62,19.73v-3h13.45v3h-4.92V33.12h-3.61V19.73Z"/><path class="cls-2" d="M421.57,16.7V33.12H418V16.7Z"/><path class="cls-2" d="M429.83,16.7,433.67,28h0l3.64-11.29h5.08V33.12h-3.38V21.48H439l-4,11.64H432.2l-4-11.52h-.05V33.12h-3.38V16.7Z"/><path class="cls-2" d="M457.89,16.7v3h-8.67v3.52h7.95v2.81h-7.95v4h8.85v3H445.6V16.7Z"/><path class="cls-2" d="M467.59,16.7a8.63,8.63,0,0,1,3,.5,6.56,6.56,0,0,1,2.37,1.52,7.08,7.08,0,0,1,1.56,2.53,10.13,10.13,0,0,1,.57,3.57,11.61,11.61,0,0,1-.46,3.31,7.33,7.33,0,0,1-1.4,2.62,6.42,6.42,0,0,1-2.32,1.74,7.9,7.9,0,0,1-3.28.63h-7.08V16.7Zm-.25,13.38a4.61,4.61,0,0,0,1.52-.25,3.35,3.35,0,0,0,1.31-.84,4.25,4.25,0,0,0,.92-1.53,6.72,6.72,0,0,0,.34-2.3,9.62,9.62,0,0,0-.24-2.24,4.35,4.35,0,0,0-.79-1.71,3.6,3.6,0,0,0-1.46-1.1,5.89,5.89,0,0,0-2.24-.38h-2.58V30.08Z"/><path class="cls-2" d="M481.16,16.7V33.12h-3.61V16.7Z"/><path class="cls-2" d="M492.53,16.7l6.14,16.42h-3.75l-1.24-3.66h-6.15l-1.28,3.66h-3.64l6.21-16.42Zm.2,10.07-2.07-6h0l-2.14,6Z"/><path class="cls-2" d="M513.57,16.7a8.68,8.68,0,0,1,3,.5,6.44,6.44,0,0,1,2.36,1.52,7.1,7.1,0,0,1,1.57,2.53,10.37,10.37,0,0,1,.56,3.57,11.27,11.27,0,0,1-.46,3.31,7.16,7.16,0,0,1-1.39,2.62,6.51,6.51,0,0,1-2.32,1.74,7.9,7.9,0,0,1-3.28.63h-7.08V16.7Zm-.25,13.38a4.56,4.56,0,0,0,1.51-.25,3.38,3.38,0,0,0,1.32-.84,4.25,4.25,0,0,0,.92-1.53,6.72,6.72,0,0,0,.34-2.3,9.62,9.62,0,0,0-.24-2.24,4.5,4.5,0,0,0-.79-1.71,3.6,3.6,0,0,0-1.46-1.1,5.94,5.94,0,0,0-2.25-.38H510.1V30.08Z"/><path class="cls-2" d="M535.81,16.7v3h-8.67v3.52h8v2.81h-8v4H536v3H523.53V16.7Z"/><path class="cls-2" d="M541.19,29.07a2.51,2.51,0,0,0,.8.93,3.25,3.25,0,0,0,1.16.53,5.22,5.22,0,0,0,1.38.18,7.73,7.73,0,0,0,1-.08,3.6,3.6,0,0,0,1-.32,2.16,2.16,0,0,0,.8-.63,1.56,1.56,0,0,0,.32-1,1.43,1.43,0,0,0-.42-1.08,3.24,3.24,0,0,0-1.12-.69,10.65,10.65,0,0,0-1.56-.49c-.58-.13-1.17-.29-1.77-.46a16.29,16.29,0,0,1-1.8-.56,6.19,6.19,0,0,1-1.56-.86A3.89,3.89,0,0,1,538,21.28a4.3,4.3,0,0,1,.54-2.2,4.87,4.87,0,0,1,1.41-1.55,6.19,6.19,0,0,1,2-.92,8.4,8.4,0,0,1,2.21-.3,10,10,0,0,1,2.47.29,6.2,6.2,0,0,1,2.11.93,4.71,4.71,0,0,1,1.46,1.64,5.07,5.07,0,0,1,.54,2.43h-3.5a2.84,2.84,0,0,0-.31-1.22,2,2,0,0,0-.7-.76,3.07,3.07,0,0,0-1-.39,6,6,0,0,0-1.23-.12,3.69,3.69,0,0,0-.87.1,2.17,2.17,0,0,0-.8.32,1.86,1.86,0,0,0-.58.57,1.79,1.79,0,0,0,0,1.66,1.61,1.61,0,0,0,.72.55,9.15,9.15,0,0,0,1.5.51l2.49.64c.31.06.74.17,1.28.33a6.29,6.29,0,0,1,1.62.77A5,5,0,0,1,550.63,26a3.94,3.94,0,0,1,.59,2.26,4.91,4.91,0,0,1-.44,2.1,4.54,4.54,0,0,1-1.3,1.67,6.25,6.25,0,0,1-2.14,1.09,10.09,10.09,0,0,1-3,.39,10,10,0,0,1-2.63-.34,6.69,6.69,0,0,1-2.26-1A5.16,5.16,0,0,1,538,30.29a5.39,5.39,0,0,1-.55-2.62h3.49A3,3,0,0,0,541.19,29.07Z"/><path class="cls-2" d="M557,16.7V33.12h-3.61V16.7Z"/><path class="cls-2" d="M569.87,33a6,6,0,0,1-2.36.5,8.42,8.42,0,0,1-3.4-.66,7.29,7.29,0,0,1-2.54-1.8A8.05,8.05,0,0,1,560,28.32a10.09,10.09,0,0,1-.55-3.34,10.48,10.48,0,0,1,.55-3.42,8.34,8.34,0,0,1,1.59-2.75A7.38,7.38,0,0,1,564.11,17a8.42,8.42,0,0,1,3.4-.66,7.73,7.73,0,0,1,2.44.38,6.81,6.81,0,0,1,2.14,1.11,6,6,0,0,1,1.58,1.82,6.17,6.17,0,0,1,.76,2.48H571A3.49,3.49,0,0,0,569.74,20a3.63,3.63,0,0,0-2.23-.69,4.29,4.29,0,0,0-2.08.47,4.1,4.1,0,0,0-1.38,1.27,5.79,5.79,0,0,0-.77,1.81A9,9,0,0,0,563,25a8.38,8.38,0,0,0,.24,2,5.71,5.71,0,0,0,.77,1.76A4,4,0,0,0,565.43,30a4.18,4.18,0,0,0,2.08.48,3.53,3.53,0,0,0,3.91-3.55h-3.64V24.24h6.9v8.88h-2.3L572,31.26A5.3,5.3,0,0,1,569.87,33Z"/><path class="cls-2" d="M581.19,16.7l6.85,11h.05v-11h3.38V33.12h-3.61l-6.83-11h0v11H577.6V16.7Z"/><path class="cls-2" d="M608.44,16.7a6.85,6.85,0,0,1,2.63.45,5,5,0,0,1,1.76,1.18,4.46,4.46,0,0,1,1,1.68,6.1,6.1,0,0,1,0,3.9,4.42,4.42,0,0,1-1,1.69,5,5,0,0,1-1.76,1.18,6.85,6.85,0,0,1-2.63.45h-3.79v5.89H601V16.7Zm-1,7.73a6.59,6.59,0,0,0,1.19-.1,2.88,2.88,0,0,0,1-.35,2,2,0,0,0,.7-.75,2.56,2.56,0,0,0,.27-1.26,2.58,2.58,0,0,0-.27-1.27,2,2,0,0,0-.7-.75,2.88,2.88,0,0,0-1-.35,7.64,7.64,0,0,0-1.19-.1h-2.81v4.93Z"/><path class="cls-2" d="M625.23,16.7a5.23,5.23,0,0,1,2,.36,4.5,4.5,0,0,1,1.52,1,4.36,4.36,0,0,1,1,1.44,4.63,4.63,0,0,1,.33,1.76,4.91,4.91,0,0,1-.61,2.51,3.84,3.84,0,0,1-2,1.61v0a2.78,2.78,0,0,1,1.11.57,3.07,3.07,0,0,1,.71.89,4.28,4.28,0,0,1,.4,1.14,9,9,0,0,1,.17,1.24c0,.26,0,.57,0,.92s0,.72.08,1.08a8.2,8.2,0,0,0,.18,1.05,2.71,2.71,0,0,0,.38.84h-3.61a6.14,6.14,0,0,1-.36-1.86q-.07-1.08-.21-2.07a3.31,3.31,0,0,0-.78-1.89,2.69,2.69,0,0,0-2-.6H620v6.42h-3.61V16.7ZM624,24.13a2.79,2.79,0,0,0,1.86-.55,2.32,2.32,0,0,0,.62-1.8,2.18,2.18,0,0,0-.62-1.73A2.79,2.79,0,0,0,624,19.5h-4v4.63Z"/><path class="cls-2" d="M632.82,21.56a8.34,8.34,0,0,1,1.59-2.75A7.38,7.38,0,0,1,637,17a9.09,9.09,0,0,1,6.8,0,7.34,7.34,0,0,1,2.53,1.84,8.34,8.34,0,0,1,1.59,2.75,10.48,10.48,0,0,1,.55,3.42,10.09,10.09,0,0,1-.55,3.34A8.05,8.05,0,0,1,646.28,31a7.25,7.25,0,0,1-2.53,1.8,9.09,9.09,0,0,1-6.8,0,7.29,7.29,0,0,1-2.54-1.8,8.05,8.05,0,0,1-1.59-2.71,10.09,10.09,0,0,1-.55-3.34A10.48,10.48,0,0,1,632.82,21.56Zm3.3,5.43a5.71,5.71,0,0,0,.77,1.76A4,4,0,0,0,638.27,30a4.17,4.17,0,0,0,2.07.48,4.12,4.12,0,0,0,2.07-.48,4,4,0,0,0,1.39-1.25,5.71,5.71,0,0,0,.77-1.76,8.38,8.38,0,0,0,.24-2,9,9,0,0,0-.24-2.09,5.79,5.79,0,0,0-.77-1.81,4,4,0,0,0-1.39-1.27,4.22,4.22,0,0,0-2.07-.47,4.28,4.28,0,0,0-2.07.47,4.1,4.1,0,0,0-1.38,1.27,5.79,5.79,0,0,0-.77,1.81,9,9,0,0,0-.24,2.09A8.38,8.38,0,0,0,636.12,27Z"/><path class="cls-2" d="M660.61,33a6,6,0,0,1-2.37.5,8.34,8.34,0,0,1-3.39-.66A7.23,7.23,0,0,1,652.3,31a8,8,0,0,1-1.58-2.71,9.84,9.84,0,0,1-.55-3.34,10.22,10.22,0,0,1,.55-3.42,8.31,8.31,0,0,1,1.58-2.75A7.33,7.33,0,0,1,654.85,17a8.34,8.34,0,0,1,3.39-.66,7.79,7.79,0,0,1,2.45.38,6.92,6.92,0,0,1,2.14,1.11,6.14,6.14,0,0,1,1.57,1.82,6,6,0,0,1,.76,2.48h-3.45A3.45,3.45,0,0,0,660.47,20a3.61,3.61,0,0,0-2.23-.69,4.28,4.28,0,0,0-2.07.47,3.92,3.92,0,0,0-1.38,1.27,5.56,5.56,0,0,0-.77,1.81,9,9,0,0,0-.24,2.09,8.38,8.38,0,0,0,.24,2,5.48,5.48,0,0,0,.77,1.76A3.87,3.87,0,0,0,656.17,30a4.17,4.17,0,0,0,2.07.48,4,4,0,0,0,2.77-.91,4,4,0,0,0,1.14-2.64h-3.64V24.24h6.9v8.88h-2.3l-.36-1.86A5.43,5.43,0,0,1,660.61,33Z"/><path class="cls-2" d="M677.19,16.7a5.23,5.23,0,0,1,2,.36,4.5,4.5,0,0,1,1.52,1,4.33,4.33,0,0,1,1,1.44,4.45,4.45,0,0,1,.34,1.76,5,5,0,0,1-.61,2.51,3.88,3.88,0,0,1-2,1.61v0a2.8,2.8,0,0,1,1.1.57,3.28,3.28,0,0,1,.72.89,4.66,4.66,0,0,1,.4,1.14,10.85,10.85,0,0,1,.17,1.24c0,.26,0,.57.05.92s0,.72.08,1.08a8.2,8.2,0,0,0,.18,1.05,2.32,2.32,0,0,0,.38.84h-3.61a6.45,6.45,0,0,1-.37-1.86q-.06-1.08-.21-2.07a3.25,3.25,0,0,0-.78-1.89,2.68,2.68,0,0,0-2-.6H672v6.42h-3.61V16.7Zm-1.29,7.43a2.75,2.75,0,0,0,1.86-.55,2.29,2.29,0,0,0,.63-1.8,2.15,2.15,0,0,0-.63-1.73,2.75,2.75,0,0,0-1.86-.55H672v4.63Z"/><path class="cls-2" d="M693.13,16.7l6.14,16.42h-3.75l-1.24-3.66h-6.14l-1.29,3.66h-3.63l6.21-16.42Zm.21,10.07-2.07-6h0l-2.14,6Z"/><path class="cls-2" d="M705.78,16.7,709.62,28h0L713.3,16.7h5.08V33.12H715V21.48h0l-4,11.64h-2.78l-4-11.52h0V33.12H700.7V16.7Z"/></g></g></svg>
