<svg xmlns="http://www.w3.org/2000/svg" width="232.61" height="232.61" viewBox="0 0 232.61 232.61"><defs><style>.cls-1,.cls-3{fill:#fdfefe;}.cls-1{stroke:#030203;stroke-miterlimit:10;}.cls-2{fill:#eb4a44;}.cls-4{fill:#231f20;}</style></defs><title>Asset 5</title><g id="Layer_2" data-name="Layer 2"><g id="Layer_1-2" data-name="Layer 1"><rect class="cls-1" x="0.5" y="0.5" width="231.61" height="231.61" rx="12"/><path class="cls-2" d="M12.5.5H220.11a12,12,0,0,1,12,12V44.27a0,0,0,0,1,0,0H.5a0,0,0,0,1,0,0V12.5a12,12,0,0,1,12-12Z"/><circle class="cls-3" cx="68.43" cy="22.38" r="7.05"/><circle class="cls-3" cx="172.29" cy="22.38" r="7.05"/><path class="cls-4" d="M57.09,133.51a21.55,21.55,0,0,1,4.15-9.28,19.28,19.28,0,0,1,8.55-5.92q5.49-2.09,14.41-2.08a44.11,44.11,0,0,1,13.92,1.83,20.79,20.79,0,0,1,8.48,5.07,17.21,17.21,0,0,1,4.28,7.51A35,35,0,0,1,112,139.8q0,8.79-2.93,14.77a40.84,40.84,0,0,1-7.82,10.87L87.86,178.5q-1.47,1.47-3.24,3.3a9.68,9.68,0,0,0-2.38,3.78H112v17.1H55.14a53.61,53.61,0,0,1,2.74-17.28,42.8,42.8,0,0,1,10.2-15.81L83.22,154.2a23.06,23.06,0,0,0,4.7-6.28,18.66,18.66,0,0,0,1.4-7.88q0-5.49-1.58-7.57a5.13,5.13,0,0,0-4.28-2.08,6.5,6.5,0,0,0-2.32.43,4.78,4.78,0,0,0-2,1.65A9.62,9.62,0,0,0,77.66,136a26.26,26.26,0,0,0-.55,5.92v3.66H55.87A67.17,67.17,0,0,1,57.09,133.51Z"/><path class="cls-4" d="M138.65,143.83H122.29V129.66a52.41,52.41,0,0,0,9-.67,20.18,20.18,0,0,0,6.47-2.2,12.54,12.54,0,0,0,4.39-4.15,23.9,23.9,0,0,0,2.81-6.41h16.36v86.45H138.65Z"/><path class="cls-4" d="M37.14,74.58V68.71H54.38v5.87h-5.2V95.24H42.27V74.58Z"/><path class="cls-4" d="M62.85,68.71v9.73h4.24V68.71H74V95.24H67.09V84.31H62.85V95.24H55.94V68.71Z"/><path class="cls-4" d="M83.88,87.84a4.24,4.24,0,0,0,.56,2.59,2.11,2.11,0,0,0,3,0,4.24,4.24,0,0,0,.56-2.59V68.71H95V86.1a15.29,15.29,0,0,1-.6,4.64,7.17,7.17,0,0,1-1.72,3,5.93,5.93,0,0,1-2.81,1.52,18.33,18.33,0,0,1-7.71,0,5.87,5.87,0,0,1-2.82-1.52,7.08,7.08,0,0,1-1.73-3A15.29,15.29,0,0,1,77,86.1V68.71h6.91Z"/><path class="cls-4" d="M108.75,68.71a9.57,9.57,0,0,1,3.36.52,5.45,5.45,0,0,1,3.53,3.71,9.83,9.83,0,0,1,.39,2.83A7.71,7.71,0,0,1,115,80.08a4.75,4.75,0,0,1-3.45,2v.08a4.15,4.15,0,0,1,3.41,1.74,8.07,8.07,0,0,1,.93,4.2v3.35c0,.37,0,.72,0,1.06a7.56,7.56,0,0,0,.11.91,2.26,2.26,0,0,0,.19.63l.29.43a1.61,1.61,0,0,0,.49.39v.37H109.6a4.94,4.94,0,0,1-.39-1.23A13.63,13.63,0,0,1,109,92.6c0-.47-.06-.92-.07-1.36s0-.78,0-1V88.4a13.66,13.66,0,0,0-.11-1.86,2.87,2.87,0,0,0-.39-1.17,1.49,1.49,0,0,0-.71-.59,2.9,2.9,0,0,0-1.06-.17h-1.82V95.24H97.93V68.71Zm-2.53,11.22a2.65,2.65,0,0,0,2.19-.87,3.56,3.56,0,0,0,.71-2.29,3.33,3.33,0,0,0-.69-2.38,3,3,0,0,0-2.25-.7h-1.34v6.24Z"/><path class="cls-4" d="M129.59,75.73a4,4,0,0,0-.48-2,1.61,1.61,0,0,0-1.49-.83,1.87,1.87,0,0,0-1.63.72,2.7,2.7,0,0,0-.52,1.62,2.67,2.67,0,0,0,.83,2.06,7.7,7.7,0,0,0,2.1,1.32c.85.37,1.75.75,2.72,1.13a12.42,12.42,0,0,1,2.71,1.51,7.55,7.55,0,0,1,2.1,2.43,8,8,0,0,1,.83,3.92q0,4.24-2.41,6.15t-7,1.92a18.14,18.14,0,0,1-3.81-.36,6.74,6.74,0,0,1-2.78-1.22A5.39,5.39,0,0,1,119,91.78a8.92,8.92,0,0,1-.6-3.49v-.93h6.69V88a3.56,3.56,0,0,0,.63,2.4,2.14,2.14,0,0,0,1.64.69,2,2,0,0,0,1.65-.75,2.83,2.83,0,0,0,.58-1.82,2.73,2.73,0,0,0-.8-2.06,6.91,6.91,0,0,0-2-1.3c-.8-.36-1.67-.72-2.62-1.1a11.36,11.36,0,0,1-2.62-1.45,7.07,7.07,0,0,1-2-2.34,7.73,7.73,0,0,1-.8-3.79,8.31,8.31,0,0,1,2.15-6.17q2.16-2.11,6.54-2.11c3,0,5.21.65,6.56,2s2,3.37,2,6.22h-6.47Z"/><path class="cls-4" d="M149.25,68.71a8.48,8.48,0,0,1,4.68,1.09,6.78,6.78,0,0,1,2.51,2.94,12.34,12.34,0,0,1,1,4.23c.13,1.6.19,3.27.19,5s-.06,3.4-.19,5a12.4,12.4,0,0,1-1,4.24,6.81,6.81,0,0,1-2.51,2.93,8.48,8.48,0,0,1-4.68,1.1h-10V68.71ZM147.5,90.26a3.76,3.76,0,0,0,1.6-.28,1.91,1.91,0,0,0,.91-1.17,9.46,9.46,0,0,0,.41-2.53c.06-1.09.09-2.52.09-4.31s0-3.22-.09-4.31a9.38,9.38,0,0,0-.41-2.52A1.9,1.9,0,0,0,149.1,74a3.94,3.94,0,0,0-1.6-.27h-1.37V90.26Z"/><path class="cls-4" d="M172.92,68.71l6.47,26.53H172l-.71-4.65h-5.5l-.7,4.65h-7.25l6.36-26.53Zm-4.38,5.42-1.9,11.26h3.87l-1.9-11.26Z"/><path class="cls-4" d="M175.71,68.71h7.47l2.6,9.25h.07l2.61-9.25H196L189.27,84.8V95.24h-6.91V84.8Z"/></g></g></svg>
