<svg xmlns="http://www.w3.org/2000/svg" width="232.61" height="232.61" viewBox="0 0 232.61 232.61"><defs><style>.cls-1,.cls-3{fill:#fdfefe;}.cls-1{stroke:#030203;stroke-miterlimit:10;}.cls-2{fill:#eb4a44;}.cls-4{fill:#231f20;}</style></defs><title>Asset 6</title><g id="Layer_2" data-name="Layer 2"><g id="Layer_1-2" data-name="Layer 1"><rect class="cls-1" x="0.5" y="0.5" width="231.61" height="231.61" rx="12"/><path class="cls-2" d="M12.5.5H220.11a12,12,0,0,1,12,12V44.27a0,0,0,0,1,0,0H.5a0,0,0,0,1,0,0V12.5A12,12,0,0,1,12.5.5Z"/><circle class="cls-3" cx="68.43" cy="22.38" r="7.05"/><circle class="cls-3" cx="172.29" cy="22.38" r="7.05"/><path class="cls-4" d="M57.09,133.51a21.55,21.55,0,0,1,4.15-9.28,19.28,19.28,0,0,1,8.55-5.92q5.49-2.09,14.41-2.08a44.11,44.11,0,0,1,13.92,1.83,20.79,20.79,0,0,1,8.48,5.07,17.21,17.21,0,0,1,4.28,7.51A35,35,0,0,1,112,139.8q0,8.79-2.92,14.77a40.84,40.84,0,0,1-7.82,10.87L87.86,178.5q-1.47,1.47-3.24,3.3a9.68,9.68,0,0,0-2.38,3.78H112v17.1H55.14a53.57,53.57,0,0,1,2.74-17.28,42.8,42.8,0,0,1,10.2-15.81L83.22,154.2a23.06,23.06,0,0,0,4.7-6.28,18.66,18.66,0,0,0,1.4-7.88c0-3.66-.53-6.19-1.58-7.57a5.13,5.13,0,0,0-4.28-2.08,6.5,6.5,0,0,0-2.32.43,4.78,4.78,0,0,0-2,1.65A9.62,9.62,0,0,0,77.66,136a26.26,26.26,0,0,0-.55,5.92v3.66H55.87A67.17,67.17,0,0,1,57.09,133.51Z"/><path class="cls-4" d="M120.58,133.51a21.55,21.55,0,0,1,4.15-9.28,19.28,19.28,0,0,1,8.55-5.92q5.49-2.09,14.41-2.08a44.11,44.11,0,0,1,13.92,1.83,20.79,20.79,0,0,1,8.48,5.07,17.21,17.21,0,0,1,4.28,7.51,35,35,0,0,1,1.16,9.16q0,8.79-2.93,14.77a40.84,40.84,0,0,1-7.82,10.87L151.35,178.5q-1.47,1.47-3.24,3.3a9.68,9.68,0,0,0-2.38,3.78h29.8v17.1h-56.9a53.57,53.57,0,0,1,2.74-17.28,42.8,42.8,0,0,1,10.2-15.81l15.14-15.39a23.06,23.06,0,0,0,4.7-6.28,18.65,18.65,0,0,0,1.41-7.88c0-3.66-.54-6.19-1.59-7.57a5.13,5.13,0,0,0-4.28-2.08,6.5,6.5,0,0,0-2.32.43,4.78,4.78,0,0,0-2,1.65,9.62,9.62,0,0,0-1.47,3.48,26.34,26.34,0,0,0-.54,5.92v3.66H119.36A67.17,67.17,0,0,1,120.58,133.51Z"/><path class="cls-4" d="M80.28,68.71v5.64H71.47v4.54h8.25v5.42H71.47V95.24H64.56V68.71Z"/><path class="cls-4" d="M93.25,68.71a9.57,9.57,0,0,1,3.36.52,5.68,5.68,0,0,1,2.27,1.46,5.8,5.8,0,0,1,1.26,2.25,9.83,9.83,0,0,1,.39,2.83,7.71,7.71,0,0,1-1.08,4.31,4.73,4.73,0,0,1-3.45,2v.08a4.16,4.16,0,0,1,3.42,1.74,8.07,8.07,0,0,1,.93,4.2v3.35c0,.37,0,.72,0,1.06a7.46,7.46,0,0,0,.12.91,2.29,2.29,0,0,0,.18.63l.3.43a1.68,1.68,0,0,0,.48.39v.37H94.1A4.94,4.94,0,0,1,93.71,94q-.12-.7-.18-1.41c0-.47-.06-.92-.08-1.36s0-.78,0-1.06V88.4a12.06,12.06,0,0,0-.12-1.86,2.87,2.87,0,0,0-.39-1.17,1.47,1.47,0,0,0-.7-.59,3,3,0,0,0-1.06-.17H89.35V95.24H82.44V68.71ZM90.72,79.93a2.63,2.63,0,0,0,2.19-.88,3.46,3.46,0,0,0,.71-2.28,3.33,3.33,0,0,0-.69-2.38,3,3,0,0,0-2.24-.71H89.35v6.25Z"/><path class="cls-4" d="M110.42,68.71V95.24h-6.91V68.71Z"/><path class="cls-4" d="M123.46,68.71a8.48,8.48,0,0,1,4.68,1.09,6.78,6.78,0,0,1,2.51,2.94,12.34,12.34,0,0,1,1,4.23c.13,1.6.19,3.27.19,5s-.06,3.4-.19,5a12.4,12.4,0,0,1-1,4.24,6.81,6.81,0,0,1-2.51,2.93,8.48,8.48,0,0,1-4.68,1.1h-10V68.71Zm-1.75,21.55a3.76,3.76,0,0,0,1.6-.28,1.91,1.91,0,0,0,.91-1.17,9.54,9.54,0,0,0,.41-2.53c.06-1.09.09-2.52.09-4.31s0-3.22-.09-4.31a9.54,9.54,0,0,0-.41-2.53,1.91,1.91,0,0,0-.91-1.17,3.93,3.93,0,0,0-1.6-.28h-1.37V90.26Z"/><path class="cls-4" d="M147.13,68.71l6.47,26.53h-7.36l-.71-4.65H140l-.7,4.65h-7.25l6.36-26.53Zm-4.38,5.42-1.9,11.26h3.87l-1.9-11.26Z"/><path class="cls-4" d="M149.92,68.71h7.47L160,78h.07l2.61-9.25h7.58L163.48,84.8V95.24h-6.91V84.8Z"/></g></g></svg>
