<svg xmlns="http://www.w3.org/2000/svg" width="232.61" height="232.61" viewBox="0 0 232.61 232.61"><defs><style>.cls-1,.cls-3{fill:#fdfefe;}.cls-1{stroke:#030203;stroke-miterlimit:10;}.cls-2{fill:#eb4a44;}.cls-4{fill:#231f20;}</style></defs><title>Asset 4</title><g id="Layer_2" data-name="Layer 2"><g id="Layer_1-2" data-name="Layer 1"><rect class="cls-1" x="0.5" y="0.5" width="231.61" height="231.61" rx="12"/><path class="cls-2" d="M12.5.5H220.11a12,12,0,0,1,12,12V44.27a0,0,0,0,1,0,0H.5a0,0,0,0,1,0,0V12.5A12,12,0,0,1,12.5.5Z"/><circle class="cls-3" cx="68.43" cy="22.38" r="7.05"/><circle class="cls-3" cx="172.29" cy="22.38" r="7.05"/><path class="cls-4" d="M57.09,133.51a21.55,21.55,0,0,1,4.15-9.28,19.28,19.28,0,0,1,8.55-5.92q5.49-2.09,14.41-2.08a44.11,44.11,0,0,1,13.92,1.83,20.79,20.79,0,0,1,8.48,5.07,17.21,17.21,0,0,1,4.28,7.51A35,35,0,0,1,112,139.8q0,8.79-2.93,14.77a40.62,40.62,0,0,1-7.82,10.87L87.86,178.5q-1.47,1.47-3.24,3.3a9.68,9.68,0,0,0-2.38,3.78H112v17.1H55.14a53.61,53.61,0,0,1,2.74-17.28,42.8,42.8,0,0,1,10.2-15.81L83.22,154.2a23.06,23.06,0,0,0,4.7-6.28,18.66,18.66,0,0,0,1.4-7.88q0-5.49-1.58-7.57a5.13,5.13,0,0,0-4.28-2.08,6.5,6.5,0,0,0-2.32.43,4.78,4.78,0,0,0-2,1.65A9.62,9.62,0,0,0,77.66,136a26.26,26.26,0,0,0-.55,5.92v3.66H55.87A67.17,67.17,0,0,1,57.09,133.51Z"/><path class="cls-4" d="M120.4,138.7q1.77-8.55,5.37-13.56a18.82,18.82,0,0,1,9.16-7,39.67,39.67,0,0,1,13.12-2,39.73,39.73,0,0,1,13.13,2,18.91,18.91,0,0,1,9.16,7q3.6,5,5.37,13.56a109.38,109.38,0,0,1,1.77,21.61A109.2,109.2,0,0,1,175.71,182q-1.77,8.49-5.37,13.43a18.2,18.2,0,0,1-9.16,6.78A42.13,42.13,0,0,1,148.05,204a42.06,42.06,0,0,1-13.12-1.83,18.12,18.12,0,0,1-9.16-6.78q-3.6-4.93-5.37-13.43a109.2,109.2,0,0,1-1.77-21.67A109.38,109.38,0,0,1,120.4,138.7ZM142.92,187a5.69,5.69,0,0,0,10.26,0q1.59-3.24,1.59-12.4V146q0-9.15-1.59-12.39a5.68,5.68,0,0,0-10.26,0q-1.57,3.24-1.58,12.39v28.57Q141.34,183.76,142.92,187Z"/><path class="cls-4" d="M40.26,68.71,43,87.06h.08L44.9,68.71h6.69L47.06,95.24H39.48L37.17,77.4H37.1L34.8,95.24H27.21L22.68,68.71h6.69l2.08,18.35h.08L34,68.71Z"/><path class="cls-4" d="M69,68.71v5.64H60.14v4.54h8.25v5.42H60.14v5.28h9.14v5.65H53.23V68.71Z"/><path class="cls-4" d="M81.84,68.71a8.48,8.48,0,0,1,4.68,1.09A6.78,6.78,0,0,1,89,72.74a12.34,12.34,0,0,1,1,4.23c.13,1.6.19,3.27.19,5s-.06,3.4-.19,5a12.4,12.4,0,0,1-1,4.24,6.81,6.81,0,0,1-2.51,2.93,8.48,8.48,0,0,1-4.68,1.1h-10V68.71ZM80.09,90.26a3.73,3.73,0,0,0,1.6-.28,1.91,1.91,0,0,0,.91-1.17A9.46,9.46,0,0,0,83,86.28c.06-1.09.1-2.52.1-4.31s0-3.22-.1-4.31a9.38,9.38,0,0,0-.41-2.52A1.9,1.9,0,0,0,81.69,74a3.91,3.91,0,0,0-1.6-.27H78.72V90.26Z"/><path class="cls-4" d="M100.87,68.71l4.46,16.35h.07V68.71h6.47V95.24h-7.58L99.68,78.85H99.6V95.24H93.14V68.71Z"/><path class="cls-4" d="M130.86,68.71v5.64h-8.81v4.54h8.25v5.42h-8.25v5.28h9.14v5.65h-16V68.71Z"/><path class="cls-4" d="M144.05,75.73a4,4,0,0,0-.48-2,1.62,1.62,0,0,0-1.49-.83,1.9,1.9,0,0,0-1.64.72,2.77,2.77,0,0,0-.52,1.62,2.64,2.64,0,0,0,.84,2.06,7.7,7.7,0,0,0,2.1,1.32c.84.37,1.75.75,2.71,1.13a12.19,12.19,0,0,1,2.71,1.51,7.32,7.32,0,0,1,2.1,2.43,8,8,0,0,1,.84,3.92c0,2.83-.8,4.88-2.42,6.15s-3.93,1.92-7,1.92a18,18,0,0,1-3.81-.36,6.84,6.84,0,0,1-2.79-1.22,5.56,5.56,0,0,1-1.73-2.29,9.12,9.12,0,0,1-.59-3.49v-.93h6.69V88a3.56,3.56,0,0,0,.63,2.4,2.12,2.12,0,0,0,1.64.69,2,2,0,0,0,1.65-.75,2.89,2.89,0,0,0,.58-1.82,2.73,2.73,0,0,0-.8-2.06,7.19,7.19,0,0,0-2-1.3c-.81-.36-1.68-.72-2.62-1.1A11.16,11.16,0,0,1,136,82.6a7.09,7.09,0,0,1-2-2.34,7.84,7.84,0,0,1-.8-3.79,8.28,8.28,0,0,1,2.16-6.17q2.16-2.11,6.54-2.11t6.56,2q2,2,2,6.22h-6.46Z"/><path class="cls-4" d="M163.71,68.71a8.53,8.53,0,0,1,4.68,1.09,6.84,6.84,0,0,1,2.51,2.94,12.82,12.82,0,0,1,1,4.23c.12,1.6.18,3.27.18,5s-.06,3.4-.18,5a12.88,12.88,0,0,1-1,4.24,6.88,6.88,0,0,1-2.51,2.93,8.52,8.52,0,0,1-4.68,1.1h-10V68.71ZM162,90.26a3.76,3.76,0,0,0,1.6-.28,1.94,1.94,0,0,0,.91-1.17,9.89,9.89,0,0,0,.41-2.53c.06-1.09.09-2.52.09-4.31s0-3.22-.09-4.31a9.8,9.8,0,0,0-.41-2.52,1.94,1.94,0,0,0-.91-1.18,3.94,3.94,0,0,0-1.6-.27h-1.38V90.26Z"/><path class="cls-4" d="M187.38,68.71l6.46,26.53h-7.35l-.71-4.65h-5.5l-.71,4.65h-7.24l6.35-26.53ZM183,74.13,181.1,85.39H185l-1.89-11.26Z"/><path class="cls-4" d="M190.17,68.71h7.46L200.24,78h.07l2.6-9.25h7.58L203.73,84.8V95.24h-6.91V84.8Z"/></g></g></svg>
