<svg xmlns="http://www.w3.org/2000/svg" width="232.61" height="232.61" viewBox="0 0 232.61 232.61"><defs><style>.cls-1,.cls-3{fill:#fdfefe;}.cls-1{stroke:#030203;stroke-miterlimit:10;}.cls-2{fill:#eb4a44;}.cls-4{fill:#231f20;}</style></defs><title>Asset 3</title><g id="Layer_2" data-name="Layer 2"><g id="Layer_1-2" data-name="Layer 1"><rect class="cls-1" x="0.5" y="0.5" width="231.61" height="231.61" rx="12"/><path class="cls-2" d="M12.5.5H220.11a12,12,0,0,1,12,12V44.27a0,0,0,0,1,0,0H.5a0,0,0,0,1,0,0V12.5A12,12,0,0,1,12.5.5Z"/><circle class="cls-3" cx="68.43" cy="22.38" r="7.05"/><circle class="cls-3" cx="172.29" cy="22.38" r="7.05"/><path class="cls-4" d="M75.16,143.83H58.8V129.66a52.21,52.21,0,0,0,9-.67,20.16,20.16,0,0,0,6.48-2.2,12.54,12.54,0,0,0,4.39-4.15,23.9,23.9,0,0,0,2.81-6.41H97.87v86.45H75.16Z"/><path class="cls-4" d="M143.29,188.51c.9,1.14,2.4,1.71,4.52,1.71a5.79,5.79,0,0,0,4.33-2c1.26-1.34,1.9-3.36,1.9-6.05V168.37h-.25a10.61,10.61,0,0,1-5.43,4.88,21.52,21.52,0,0,1-9.1,1.83,26,26,0,0,1-8.42-1.28,15.52,15.52,0,0,1-6.54-4.27,20,20,0,0,1-4.21-8.06,46.15,46.15,0,0,1-1.46-12.64,51.59,51.59,0,0,1,1.89-15,25.43,25.43,0,0,1,5.62-10.13,21.49,21.49,0,0,1,9.09-5.74,39.36,39.36,0,0,1,12.33-1.77A43.6,43.6,0,0,1,160.63,118a20.17,20.17,0,0,1,9.34,6,28.1,28.1,0,0,1,5.62,11.35,69.93,69.93,0,0,1,1.89,17.7v9.53a135.39,135.39,0,0,1-1,17.76,34.17,34.17,0,0,1-4.21,13.07,19.5,19.5,0,0,1-9,7.93q-5.85,2.63-15.5,2.63A45.8,45.8,0,0,1,134,202.31a20,20,0,0,1-8.3-4.76,16.45,16.45,0,0,1-4.15-7,29.44,29.44,0,0,1-1.16-8.37h21.24C141.66,185.1,142.23,187.21,143.29,188.51Zm-.55-32.72a5,5,0,0,0,4.95,2.93,5.12,5.12,0,0,0,4.76-2.93q1.59-2.92,1.59-11.23t-1.41-11.24a5,5,0,0,0-4.94-2.93,5.13,5.13,0,0,0-4.77,2.93q-1.57,2.94-1.58,11.24T142.74,155.79Z"/><path class="cls-4" d="M49.18,74.58V68.71H66.42v5.87h-5.2V95.24H54.31V74.58Z"/><path class="cls-4" d="M74.59,87.84a4.24,4.24,0,0,0,.56,2.59,2.11,2.11,0,0,0,3,0,4.24,4.24,0,0,0,.56-2.59V68.71h6.91V86.1a15.29,15.29,0,0,1-.6,4.64,7.17,7.17,0,0,1-1.72,3,6,6,0,0,1-2.81,1.52,18.33,18.33,0,0,1-7.71,0A5.87,5.87,0,0,1,70,93.72a7.08,7.08,0,0,1-1.73-3,15.29,15.29,0,0,1-.6-4.64V68.71h6.91Z"/><path class="cls-4" d="M104.36,68.71v5.64H95.55v4.54h8.25v5.42H95.55v5.28h9.14v5.65h-16V68.71Z"/><path class="cls-4" d="M117.55,75.73a4,4,0,0,0-.48-2,1.61,1.61,0,0,0-1.49-.83,1.87,1.87,0,0,0-1.63.72,2.7,2.7,0,0,0-.52,1.62,2.67,2.67,0,0,0,.83,2.06,7.7,7.7,0,0,0,2.1,1.32c.85.37,1.75.75,2.72,1.13a12.42,12.42,0,0,1,2.71,1.51,7.55,7.55,0,0,1,2.1,2.43,8,8,0,0,1,.83,3.92q0,4.24-2.41,6.15t-7,1.92a18.14,18.14,0,0,1-3.81-.36,6.74,6.74,0,0,1-2.78-1.22A5.54,5.54,0,0,1,107,91.78a8.92,8.92,0,0,1-.6-3.49v-.93h6.69V88a3.5,3.5,0,0,0,.64,2.4,2.1,2.1,0,0,0,1.63.69,2,2,0,0,0,1.65-.75,2.83,2.83,0,0,0,.58-1.82,2.73,2.73,0,0,0-.8-2.06,6.91,6.91,0,0,0-2-1.3c-.8-.36-1.67-.72-2.62-1.1a11.36,11.36,0,0,1-2.62-1.45,7.07,7.07,0,0,1-2-2.34,7.73,7.73,0,0,1-.8-3.79,8.31,8.31,0,0,1,2.15-6.17q2.16-2.11,6.54-2.11c3,0,5.21.65,6.56,2s2,3.37,2,6.22h-6.47Z"/><path class="cls-4" d="M137.21,68.71a8.48,8.48,0,0,1,4.68,1.09,6.78,6.78,0,0,1,2.51,2.94,12.34,12.34,0,0,1,1,4.23c.13,1.6.19,3.27.19,5s-.06,3.4-.19,5a12.4,12.4,0,0,1-1,4.24,6.81,6.81,0,0,1-2.51,2.93,8.48,8.48,0,0,1-4.68,1.1h-10V68.71Zm-1.75,21.55a3.76,3.76,0,0,0,1.6-.28,1.91,1.91,0,0,0,.91-1.17,9.46,9.46,0,0,0,.41-2.53c.06-1.09.09-2.52.09-4.31s0-3.22-.09-4.31a9.38,9.38,0,0,0-.41-2.52,1.9,1.9,0,0,0-.91-1.18,3.93,3.93,0,0,0-1.6-.28h-1.37V90.26Z"/><path class="cls-4" d="M160.88,68.71l6.47,26.53H160l-.71-4.65h-5.5l-.7,4.65h-7.25l6.36-26.53Zm-4.38,5.42-1.9,11.26h3.87l-1.9-11.26Z"/><path class="cls-4" d="M163.67,68.71h7.47l2.6,9.25h.07l2.61-9.25H184L177.23,84.8V95.24h-6.91V84.8Z"/></g></g></svg>
