<svg xmlns="http://www.w3.org/2000/svg" width="232.61" height="232.61" viewBox="0 0 232.61 232.61"><defs><style>.cls-1,.cls-3{fill:#fdfefe;}.cls-1{stroke:#030203;stroke-miterlimit:10;}.cls-2{fill:#eb4a44;}.cls-4{fill:#231f20;}</style></defs><title>Asset 2</title><g id="Layer_2" data-name="Layer 2"><g id="Layer_1-2" data-name="Layer 1"><rect class="cls-1" x="0.5" y="0.5" width="231.61" height="231.61" rx="12"/><path class="cls-2" d="M12.5.5H220.11a12,12,0,0,1,12,12V44.27a0,0,0,0,1,0,0H.5a0,0,0,0,1,0,0V12.5A12,12,0,0,1,12.5.5Z"/><circle class="cls-3" cx="68.43" cy="22.38" r="7.05"/><circle class="cls-3" cx="172.29" cy="22.38" r="7.05"/><path class="cls-4" d="M75.16,143.83H58.8V129.66a52.41,52.41,0,0,0,9-.67,20.18,20.18,0,0,0,6.47-2.2,12.54,12.54,0,0,0,4.39-4.15,23.9,23.9,0,0,0,2.81-6.41H97.87v86.45H75.16Z"/><path class="cls-4" d="M135.66,202.92a20.73,20.73,0,0,1-9.22-4.21,19.71,19.71,0,0,1-5.8-8.36,37.64,37.64,0,0,1-2-13.31,24,24,0,0,1,3.6-13.44,14.58,14.58,0,0,1,10.8-6.47v-.24a17.37,17.37,0,0,1-6.28-2.62,14.23,14.23,0,0,1-4-4.16,15.41,15.41,0,0,1-2-5.13,28.69,28.69,0,0,1-.55-5.55,27.71,27.71,0,0,1,1.53-9.4,17.93,17.93,0,0,1,4.88-7.33,23.39,23.39,0,0,1,8.67-4.76,41.93,41.93,0,0,1,12.76-1.71,41.75,41.75,0,0,1,12.82,1.71,23.44,23.44,0,0,1,8.61,4.76,18,18,0,0,1,4.89,7.33,29.24,29.24,0,0,1,1,14.95,15.39,15.39,0,0,1-2,5.13,14.54,14.54,0,0,1-3.91,4.16,16.86,16.86,0,0,1-6.35,2.62v.24a17.87,17.87,0,0,1,6.66,2.57,15.59,15.59,0,0,1,4.45,4.45,19.22,19.22,0,0,1,2.51,5.93,30,30,0,0,1,.79,7,37.39,37.39,0,0,1-2,13.31,19.94,19.94,0,0,1-5.73,8.36,20.38,20.38,0,0,1-9.22,4.21,64.16,64.16,0,0,1-12.46,1.1A63,63,0,0,1,135.66,202.92Zm7.45-15.26a6.06,6.06,0,0,0,9.89,0q1.77-2.57,1.77-10.26T153,167.27a6,6,0,0,0-9.89,0q-1.77,2.56-1.77,10.13T143.11,187.66ZM142.68,146a9.53,9.53,0,0,0,1.28,3.24,4.27,4.27,0,0,0,1.83,1.59,6,6,0,0,0,2.26.42,5.2,5.2,0,0,0,4.15-2.07c1.14-1.39,1.71-4.19,1.71-8.43a23.12,23.12,0,0,0-.48-5.19,9.74,9.74,0,0,0-1.29-3.17,4.27,4.27,0,0,0-1.83-1.59,6.15,6.15,0,0,0-4.52,0,4.27,4.27,0,0,0-1.83,1.59,9.53,9.53,0,0,0-1.28,3.17,22.48,22.48,0,0,0-.49,5.19A23.16,23.16,0,0,0,142.68,146Z"/><path class="cls-4" d="M63.21,68.71,66,84.43h.08l2.78-15.72h9.89V95.24H72.27V75.47H72.2L68.52,95.24h-5L59.86,75.47h-.07V95.24H53.32V68.71Z"/><path class="cls-4" d="M81.45,75.64a11.33,11.33,0,0,1,1.6-4.28A6.5,6.5,0,0,1,86,69a13.47,13.47,0,0,1,8.92,0,6.48,6.48,0,0,1,2.94,2.41,11.49,11.49,0,0,1,1.6,4.28A35.71,35.71,0,0,1,99.92,82a35.83,35.83,0,0,1-.48,6.34,11.37,11.37,0,0,1-1.6,4.27,6.13,6.13,0,0,1-2.94,2.36,14.36,14.36,0,0,1-8.92,0,6.15,6.15,0,0,1-2.93-2.36,11.21,11.21,0,0,1-1.6-4.27A35.83,35.83,0,0,1,81,82,35.71,35.71,0,0,1,81.45,75.64Zm6.73,10.77a16.11,16.11,0,0,0,.31,2.81,2.73,2.73,0,0,0,.71,1.45,1.82,1.82,0,0,0,1.24.41,1.84,1.84,0,0,0,1.25-.41,2.72,2.72,0,0,0,.7-1.45,15.06,15.06,0,0,0,.32-2.81c.05-1.17.07-2.65.07-4.44s0-3.26-.07-4.44a14.93,14.93,0,0,0-.32-2.8,2.69,2.69,0,0,0-.7-1.45,1.8,1.8,0,0,0-1.25-.41,1.77,1.77,0,0,0-1.24.41,2.69,2.69,0,0,0-.71,1.45,16,16,0,0,0-.31,2.8c-.05,1.18-.08,2.66-.08,4.44S88.13,85.24,88.18,86.41Z"/><path class="cls-4" d="M110.14,68.71l4.46,16.35h.07V68.71h6.47V95.24h-7.58L109,78.85h-.07V95.24h-6.47V68.71Z"/><path class="cls-4" d="M134.44,68.71a8.48,8.48,0,0,1,4.68,1.09,6.78,6.78,0,0,1,2.51,2.94,12.34,12.34,0,0,1,1,4.23c.13,1.6.19,3.27.19,5s-.06,3.4-.19,5a12.4,12.4,0,0,1-1,4.24,6.81,6.81,0,0,1-2.51,2.93,8.48,8.48,0,0,1-4.68,1.1h-10V68.71Zm-1.75,21.55a3.73,3.73,0,0,0,1.6-.28,1.91,1.91,0,0,0,.91-1.17,9.46,9.46,0,0,0,.41-2.53c.06-1.09.1-2.52.1-4.31s0-3.22-.1-4.31a9.38,9.38,0,0,0-.41-2.52,1.9,1.9,0,0,0-.91-1.18,3.89,3.89,0,0,0-1.6-.28h-1.37V90.26Z"/><path class="cls-4" d="M158.11,68.71l6.47,26.53h-7.36l-.7-4.65H151l-.71,4.65h-7.25l6.36-26.53Zm-4.38,5.42-1.9,11.26h3.87l-1.9-11.26Z"/><path class="cls-4" d="M160.9,68.71h7.47L171,78H171l2.61-9.25h7.58L174.46,84.8V95.24h-6.91V84.8Z"/></g></g></svg>
