<svg id="Layer_1" data-name="Layer 1" xmlns="http://www.w3.org/2000/svg" xmlns:xlink="http://www.w3.org/1999/xlink" width="1920" height="1080" viewBox="0 0 1920 1080"><defs><style>.cls-1{fill:url(#linear-gradient);}.cls-2{fill:url(#linear-gradient-2);}.cls-3{fill:none;stroke:#000;stroke-miterlimit:10;stroke-width:10px;}.cls-4{fill:#4c374b;}.cls-5{fill:#20604c;}</style><linearGradient id="linear-gradient" x1="1524.392" y1="-811.864" x2="1524.392" y2="268.136" gradientTransform="translate(-1044.892 811.864)" gradientUnits="userSpaceOnUse"><stop offset="0" stop-color="#fff"/><stop offset="0.114" stop-color="#d2ede5"/><stop offset="0.233" stop-color="#a9dcce"/><stop offset="0.341" stop-color="#8cd1bd"/><stop offset="0.435" stop-color="#7acab3"/><stop offset="0.503" stop-color="#74c7af"/></linearGradient><linearGradient id="linear-gradient-2" x1="1394.167" y1="-463.333" x2="1394.167" y2="616.667" gradientTransform="translate(46.333 463.333)" gradientUnits="userSpaceOnUse"><stop offset="0" stop-color="#fff"/><stop offset="0.089" stop-color="#dfdbe8"/><stop offset="0.204" stop-color="#bbb3cf"/><stop offset="0.31" stop-color="#a197bd"/><stop offset="0.401" stop-color="#9285b2"/><stop offset="0.468" stop-color="#8c7fae"/></linearGradient></defs><title>design_code</title><rect class="cls-1" width="959" height="1080" transform="translate(959 1080) rotate(180)"/><rect class="cls-2" x="960" width="961" height="1080" transform="translate(2881 1080) rotate(180)"/><line class="cls-3" x1="959.5" y1="-0.5" x2="959" y2="1080"/><line class="cls-4" x1="959.5" y1="-0.5" x2="959" y2="1080"/><path class="cls-4" d="M1069.47,642.984,1100,637.516l-1.484,6.872-20.374,3.546,17.092,11.64-1.485,6.872L1068.2,648.859Z"/><path class="cls-4" d="M1107.55,627.544l7.649,1.652-2.765,12.8.11.024c1.991-2.239,4.872-2.951,8.087-2.256,4.765,1.03,7.029,4.245,5.76,10.12L1121.613,672l-7.647-1.652,4.442-20.562c.647-2.993-.1-4.373-2.373-4.863-2.6-.564-4.391.732-5.11,4.058l-4.275,19.786L1099,667.115Z"/><path class="cls-4" d="M1136.22,660.771l-.515,2.382c-.754,3.493-.555,7.132,2.272,7.743,2.549.551,4.023-1.162,5.256-4.724l6.872,1.485c-1.774,6.868-5.936,10.03-13.141,8.473-11.085-2.4-9.685-11.026-8.08-18.452,1.724-7.982,4.88-15.074,15.189-12.846,8.923,1.928,9.625,8.345,7.65,17.489l-.372,1.718Zm8.8-2.857c.815-4.581.811-7.25-2.348-7.933-3.049-.658-4.618,2.31-5.217,5.081l-.251,1.164Z"/><path class="cls-4" d="M1156.781,657.961l.157-.72c1.484-6.873,6.7-8.182,12.462-6.937,9.089,1.964,9.993,6.1,8.831,11.479l-3.388,15.685c-.6,2.771-.708,4.082-.3,5.968l-7.315-1.581a12.807,12.807,0,0,1-.273-3.307l-.111-.024c-2.444,2.72-4.773,3.03-8.431,2.239-5.32-1.15-6.223-6.1-5.361-10.091,1.21-5.6,3.972-7.38,9.549-7.683l4.575-.23c2.4-.118,3.372-.838,3.8-2.833.491-2.273-.208-3.873-2.757-4.424-2.328-.5-3.882.785-4.385,3.113l-.18.831Zm12.722,8.781a9.673,9.673,0,0,1-3.594.791c-3.247-.006-4.79,1.228-5.365,3.888-.491,2.272-.066,4.336,1.983,4.779a4.619,4.619,0,0,0,5.706-3.582Z"/><path class="cls-4" d="M1195.005,684.551l-.111-.024a7.4,7.4,0,0,1-7.612,2.474c-6.262-1.353-8.15-6.576-5.756-17.661s6.271-15.062,12.534-13.709a7.324,7.324,0,0,1,5.663,4.937l.11.024,2.706-12.526,7.649,1.653-8.549,39.572-7.316-1.581Zm-3.959-2.886c3.381.731,4.764-2.451,6.165-8.936s1.454-9.954-1.927-10.684c-3.325-.719-4.708,2.464-6.109,8.948S1187.721,680.946,1191.046,681.665Z"/><path class="cls-4" d="M1216.245,678.06l-.515,2.383c-.753,3.492-.554,7.132,2.272,7.743,2.55.55,4.023-1.162,5.256-4.724l6.873,1.484c-1.776,6.868-5.938,10.03-13.143,8.473-11.085-2.395-9.683-11.025-8.079-18.452,1.725-7.981,4.88-15.073,15.189-12.846,8.923,1.928,9.625,8.345,7.649,17.49l-.372,1.718Zm8.8-2.856c.815-4.581.812-7.25-2.347-7.933-3.049-.659-4.618,2.309-5.216,5.081l-.251,1.164Z"/><path class="cls-4" d="M1238.837,666.118l7.315,1.581-.862,3.99.111.024c2.175-2.547,4.744-3.964,7.9-3.281a11.688,11.688,0,0,1,1.362.41l-1.58,7.316c-.765-.223-1.584-.458-2.36-.626-2.661-.575-5.953.164-6.815,4.155l-3.867,17.9-7.648-1.652Z"/><path class="cls-4" d="M1252.3,693.506l20.373-3.546-17.092-11.641,1.485-6.872,25.553,17.587-1.269,5.875-30.535,5.469Z"/><path class="cls-4" d="M1082.837,888.524l6.021-1.224-.49,17.916a16.3,16.3,0,0,0,.159,2.889,1.227,1.227,0,0,0,1.648,1.091c2.669-.543,6.157-6.169,4.7-13.355-1.85-9.1-11.892-13.974-21.4-12.04-10.745,2.184-17.026,13.011-15.022,22.865,2.116,10.4,12.806,17.068,23.208,14.953a28.629,28.629,0,0,0,13.962-7.4l6.091-1.239c-3.4,7.819-10.121,13.319-20.388,15.406a25.91,25.91,0,0,1-10.323-50.782c13.689-2.782,27.061,3.05,29.607,15.575,2.936,14.441-8.75,22.161-13.2,23.065-2.6.529-4.494-.368-5.186-2.723l-.137.029a11.394,11.394,0,0,1-7.476,5.3c-4.858.987-10.881-2.349-12.356-9.6-1.7-8.349,2.257-17.991,11.223-19.813a9.347,9.347,0,0,1,9.213,2.9Zm-7.174,22.554c4.653-.946,6.978-6.337,6.157-10.374a5.291,5.291,0,0,0-6.19-4.159c-4.38.891-6.719,6.213-5.954,9.976C1070.289,909.533,1072.72,911.676,1075.663,911.078Z"/><path class="cls-4" d="M1111.5,870.367l5.246,25.8.137-.028,6.716-15.69,10.4-2.115L1126.348,895l16.717,19.835-10.4,2.114-10.945-13.524-2.463,5.061,2.184,10.745-9.444,1.92-9.934-48.865Z"/><path class="cls-4" d="M1150.5,895.65l.6,2.943c.877,4.312,2.9,8.319,6.393,7.609,3.149-.639,3.962-3.3,3.591-7.928l8.486-1.725c1.4,8.623-1.735,14.249-10.631,16.058-13.689,2.783-16.379-7.645-18.244-16.816-2-9.856-1.951-19.417,10.779-22.005,11.019-2.24,14.985,4.652,17.281,15.943l.431,2.123Zm8.509-7.574c-1.346-5.569-2.671-8.579-6.571-7.786-3.765.766-4.067,4.889-3.372,8.311l.292,1.437Z"/><path class="cls-4" d="M1178.579,912.818a15.272,15.272,0,0,0,2.506-.3c3.489-.709,4.4-2.889,4.007-6.23l-17.821-34.72,9.856-2,10.65,24.347.137-.028-.384-26.433,9.445-1.92-1.912,36.165c-.7,13.4-2.459,15.61-11.218,17.39l-3.833.779Z"/><path class="cls-4" d="M1203.827,870.84l-4.791.974-1.307-6.433,4.791-.975-.85-4.175c-1.35-6.638,1.971-9.592,8.061-10.831,1.711-.347,3.368-.614,5.106-.824l1.364,6.707a16.883,16.883,0,0,0-1.862.306c-2.669.543-3.46,1.558-3.028,3.681l.654,3.216,5.474-1.113,1.308,6.434-5.475,1.113,6.178,30.387-9.445,1.92Z"/><path class="cls-4" d="M1220.726,860.705l9.034-1.836,1,4.928.136-.028c1.194-3.949,3.39-6.819,7.291-7.612a14.569,14.569,0,0,1,1.738-.21l1.837,9.033c-.972.127-2.013.267-2.971.461-3.285.668-6.633,3.13-5.631,8.058l4.494,22.106-9.444,1.92Z"/><path class="cls-4" d="M1245.743,867.379l-.18-.891c-1.725-8.486,3.507-12.544,10.625-13.991,11.224-2.281,14.291,1.941,15.641,8.58l3.938,19.368c.7,3.422,1.221,4.954,2.611,6.882l-9.034,1.837a15.778,15.778,0,0,1-1.943-3.6l-.137.028c-1.41,4.278-3.885,5.779-8.4,6.7-6.569,1.336-10.037-3.8-11.039-8.73-1.4-6.913.83-10.29,6.97-13.39l5.047-2.524c2.653-1.323,3.388-2.613,2.888-5.076-.571-2.8-2.151-4.266-5.3-3.626-2.874.584-3.99,2.806-3.407,5.68l.209,1.027Zm18.7,3.611a11.906,11.906,0,0,1-3.663,2.668c-3.665,1.6-4.8,3.755-4.128,7.04.571,2.806,2.071,4.925,4.6,4.41a5.69,5.69,0,0,0,4.662-6.863Z"/><path class="cls-4" d="M1276.438,849.38l9.034-1.837.765,3.765.137-.029a10.715,10.715,0,0,1,8.347-6.615c4.312-.877,7.891.606,9.683,4.161l.137-.028c.644-4.193,3.662-6.874,8.111-7.778,6.228-1.267,9.964,2.038,11.411,9.155l5.44,26.76-9.444,1.92-5.232-25.734c-.626-3.079-2-4.582-4.67-4.04-3.011.612-4.51,3.056-3.647,7.3l4.926,24.227-9.445,1.92-5.231-25.733c-.627-3.079-2-4.582-4.67-4.039-3.012.611-4.511,3.055-3.649,7.3l4.926,24.227-9.444,1.921Z"/><path class="cls-4" d="M1340.429,857.038l.6,2.942c.877,4.313,2.9,8.32,6.393,7.61,3.148-.64,3.962-3.3,3.591-7.928l8.486-1.724c1.4,8.623-1.735,14.249-10.632,16.057-13.687,2.782-16.379-7.645-18.243-16.816-2-9.857-1.951-19.417,10.778-22,11.02-2.24,14.986,4.652,17.282,15.943l.431,2.123Zm8.509-7.574c-1.346-5.569-2.67-8.579-6.572-7.786-3.763.765-4.066,4.888-3.37,8.31l.292,1.438Z"/><path class="cls-4" d="M1371.957,855.759l.251,1.233c.653,3.216,2.795,4.99,6.012,4.336,2.875-.584,4.5-2.411,3.9-5.354-.487-2.4-2.284-3.17-4.27-3.48l-7.126-1.045c-5.578-.791-8.9-3.465-9.957-8.666-1.239-6.091,1.579-11.867,11.3-13.843,8.555-1.739,13.373,1.273,14.722,7.912l.307,1.506-8.487,1.726c-.751-3.7-2.222-5.321-5.3-4.695-2.4.487-4.17,2.272-3.642,4.874.362,1.778,1.626,3.09,4.984,3.475l6.069.763c6.358.773,9.16,3.339,10.287,8.884,1.572,7.732-3.4,12.734-11.337,14.348-10.607,2.157-14.5-1.9-15.93-8.948l-.263-1.3Z"/><path class="cls-4" d="M1485.926,499.741c.214-3.122-.156-6.523-3.278-6.737-4.081-.28-4.989,3.275-5.5,10.719-.547,7.983-.052,11.334,3.669,11.589,2.761.189,4.182-2.065,4.539-7.288l7.924.544c-.581,8.463-4.447,12.962-13.211,12.362-8.284-.569-12.089-4.869-11.2-17.835.909-13.265,6.627-16.613,14.251-16.09s11.25,5.656,10.728,13.279Z"/><path class="cls-4" d="M1510.673,488.894c9.975.5,12.329,6.634,11.559,17.859-.756,11.045-4.4,16.765-13.889,16.115-9.976-.5-12.33-6.635-11.561-17.859C1497.539,493.964,1501.188,488.243,1510.673,488.894Zm-1.943,28.332c3.362.23,4.667-3,5.219-11.04s-.3-11.419-3.664-11.65c-4.082-.279-4.766,4.438-5.22,11.04S1504.648,516.945,1508.73,517.226Z"/><path class="cls-4" d="M1528.806,480.367l8.283.569-2.939,42.857-8.283-.568Z"/><path class="cls-4" d="M1553.89,491.856c9.975.5,12.329,6.636,11.559,17.861-.757,11.044-4.4,16.764-13.889,16.114-9.976-.5-12.331-6.635-11.561-17.859C1540.756,496.927,1544.406,491.206,1553.89,491.856Zm-1.943,28.332c3.362.231,4.667-3,5.219-11.04s-.3-11.419-3.664-11.649c-4.08-.279-4.766,4.438-5.219,11.04S1547.866,519.908,1551.947,520.188Z"/><path class="cls-4" d="M1571,493.874l7.923.543-.3,4.322.12.009c1.895-3.006,4.377-4.887,7.8-4.652a12.635,12.635,0,0,1,1.492.222l-.543,7.924c-.836-.118-1.732-.24-2.573-.3-2.881-.2-6.225,1.081-6.521,5.4l-1.33,19.387-8.283-.568Z"/><path class="cls-4" d="M1589.9,518.207l7.922.543-.642,9.364-7.923-.544Zm1.5-21.909,7.923.543-.641,9.364-7.923-.544Z"/><path class="cls-4" d="M1616,512.157l5.223.358,1.462-7.257-4.382-.3.461-6.723,5.162.354,2.036-10.354,5.763.4-1.977,10.357,5.822.4,2.036-10.354,5.823.4-2.036,10.354,4.382.3-.461,6.724-5.163-.355-1.462,7.258,4.382.3-.461,6.722-5.163-.353-2.036,10.353-5.822-.4,2.036-10.354-5.881-.4-1.977,10.359-5.823-.4,2.036-10.354-4.441-.3Zm11.045.757,5.822.4,1.462-7.256-5.883-.4Z"/><path class="cls-4" d="M1671.542,498.114l-15.667-1.074-1.562,9.6.12.007c1.772-2.109,4.359-2.9,8.02-2.646,8.164.559,9.916,7.555,9.455,14.278-.638,9.3-3.78,15.54-14.7,14.792-10.8-.741-12.058-7.943-11.733-12.685l.078-1.141,8.283.568c-.193,2.822,0,7,3.725,7.251,3.481.239,5.231-2.416,5.609-7.937.481-7.024-.462-9.078-4.364-9.346-2.461-.169-3.885,1.241-4.349,3.621l-7.743-.53,3.145-23L1672,491.391Z"/><path class="cls-4" d="M1674.38,517.426l15.929-25.624,8.943.613-1.848,26.951,4.081.28-.461,6.723-4.081-.28-.605,8.823-7.924-.543.606-8.823-15.125-1.037Zm16.208-14.75-.119-.008-9.392,15.579,8.4.576Z"/><path class="cls-4" d="M1729.165,502.064l-15.666-1.073-1.562,9.6.12.009c1.771-2.111,4.359-2.9,8.02-2.647,8.163.56,9.915,7.555,9.454,14.277-.637,9.3-3.78,15.541-14.7,14.792-10.8-.741-12.058-7.943-11.733-12.684l.078-1.141,8.283.568c-.193,2.821,0,7,3.725,7.251,3.481.239,5.231-2.415,5.609-7.938.482-7.022-.463-9.078-4.365-9.346-2.461-.168-3.884,1.243-4.348,3.622l-7.744-.531,3.145-23,22.149,1.519Z"/><path class="cls-4" d="M1732,521.377l15.929-25.624,8.944.612-1.848,26.951,4.081.281-.461,6.723-4.081-.28-.605,8.823-7.924-.543.606-8.823-15.126-1.037Zm16.208-14.75-.119-.009L1738.7,522.2l8.4.576Z"/><path class="cls-4" d="M1786.79,506.016l-15.667-1.075-1.561,9.6.119.008c1.772-2.11,4.359-2.9,8.021-2.647,8.163.56,9.915,7.555,9.454,14.279-.637,9.3-3.78,15.541-14.7,14.792-10.8-.742-12.058-7.944-11.733-12.686l.078-1.141,8.284.569c-.193,2.821,0,7,3.724,7.251,3.481.238,5.231-2.416,5.609-7.938.482-7.023-.462-9.078-4.364-9.345-2.461-.169-3.885,1.242-4.349,3.622l-7.743-.532,3.145-23,22.149,1.52Z"/><path class="cls-4" d="M1789.628,525.327l15.929-25.624,8.943.613-1.848,26.952,4.082.28-.461,6.723-4.082-.28-.605,8.823-7.923-.543.606-8.824-15.126-1.037Zm16.208-14.75-.119-.008-9.391,15.579,8.4.577Z"/><path class="cls-4" d="M1828.315,534.553l-.535,7.8c-.436,6.363-2.246,10.762-8.709,10.922l.288-4.2c2.125-.216,3.294-2.306,3.447-4.527l.065-.961-3.121-.214.643-9.364Zm1.5-21.909-.641,9.364-7.923-.543.642-9.364Z"/><path class="cls-4" d="M1592.7,145.525l-.391,5.716-4.837-.331.391-5.716Z"/><path class="cls-4" d="M1596.87,137.822l.032-.476c.312-4.544,3.532-5.869,7.343-5.608,6.01.412,6.974,2.982,6.731,6.536l-.711,10.37a8.043,8.043,0,0,0,.362,3.853l-4.838-.331a8.286,8.286,0,0,1-.481-2.095l-.074,0c-1.313,1.972-2.778,2.387-5.2,2.221-3.517-.241-4.558-3.331-4.377-5.97.254-3.7,1.86-5.1,5.4-5.814l2.912-.573c1.53-.3,2.084-.851,2.173-2.171a2.1,2.1,0,0,0-2.179-2.579,2.265,2.265,0,0,0-2.521,2.4l-.038.55Zm8.973,4.445a6.306,6.306,0,0,1-2.231.84c-2.081.3-2.955,1.234-3.075,2.993-.1,1.5.36,2.785,1.716,2.878a2.991,2.991,0,0,0,3.323-2.828Z"/><path class="cls-4" d="M1623.848,151.306l-.074-.006a4.791,4.791,0,0,1-4.648,2.3c-4.141-.284-5.838-3.456-5.335-10.784s2.616-10.24,6.757-9.956a4.742,4.742,0,0,1,4.089,2.636l.074.006.568-8.281,5.057.346-1.794,26.163-4.838-.332Zm-2.807-1.481c2.235.153,2.826-2.015,3.12-6.3s0-6.516-2.231-6.669c-2.2-.151-2.789,2.018-3.083,6.3S1618.843,149.674,1621.041,149.825Z"/><path class="cls-4" d="M1642.167,152.562l-.073-.005a4.794,4.794,0,0,1-4.649,2.3c-4.14-.285-5.838-3.456-5.335-10.785s2.617-10.239,6.757-9.955a4.742,4.742,0,0,1,4.089,2.636l.074,0,.569-8.28,5.056.346-1.794,26.162-4.838-.331Zm-2.807-1.481c2.236.153,2.827-2.016,3.12-6.3s0-6.516-2.231-6.669c-2.2-.151-2.789,2.018-3.083,6.3S1637.162,150.93,1639.36,151.081Z"/><path class="cls-4" d="M1666.791,130.063l-.3,4.324-9.345-.641-.421,6.155,8.793.6-.3,4.324-8.794-.6-.482,7.035,9.711.666-.3,4.324-14.987-1.027,1.794-26.162Z"/><path class="cls-4" d="M1678.547,137.348l5.057.346-6.3,19.375-5.862-.4L1667.7,136.6l5.277.362,1.854,14.3.073,0Z"/><path class="cls-4" d="M1689.065,148.745l-.108,1.575c-.158,2.309.309,4.623,2.178,4.751,1.685.116,2.469-1.118,2.928-3.517l4.543.312c-.5,4.568-2.871,6.982-7.633,6.655-7.329-.5-7.236-6.166-6.9-11.075.362-5.277,1.724-10.116,8.539-9.649,5.9.405,6.948,4.453,6.533,10.5l-.078,1.136Zm5.373-2.65c.1-3.012-.156-4.723-2.245-4.866-2.014-.138-2.743,1.91-2.869,3.742l-.053.769Z"/><path class="cls-4" d="M1702.433,138.985l4.837.332-.159,2.308.075.006a5.417,5.417,0,0,1,5.211-2.478c3.153.217,4.9,2.067,4.636,5.951l-1,14.62-5.055-.347.931-13.594c.136-1.979-.471-2.793-1.973-2.9-1.723-.118-2.748.879-2.9,3.077l-.9,13.081-5.057-.346Z"/><path class="cls-4" d="M1722.238,134.674l5.057.347-.387,5.643,2.932.2-.236,3.445-2.932-.2-.731,10.663c-.106,1.539.182,2.184,1.647,2.285a10.633,10.633,0,0,0,1.141,0l-.241,3.518a31.593,31.593,0,0,1-3.313-.007c-3.957-.271-4.608-1.53-4.333-5.524l.773-11.285-2.564-.176.236-3.445,2.565.176Z"/><path class="cls-4" d="M1730.392,160.708l1.794-26.162,5.276.362-1.5,21.838,9.345.641-.3,4.324Z"/><path class="cls-4" d="M1748.743,142.161l5.057.346-1.352,19.714-5.056-.347Zm.462-6.743,5.057.347-.3,4.324-5.057-.346Z"/><path class="cls-4" d="M1760.146,156.269l-.046.659c-.119,1.723.719,2.921,2.441,3.039,1.54.106,2.618-.593,2.726-2.169a2.325,2.325,0,0,0-1.679-2.36l-3.466-1.526c-2.717-1.181-4.028-3-3.838-5.786.224-3.261,2.46-5.8,7.663-5.438,4.58.314,6.6,2.514,6.357,6.068l-.055.807-4.543-.312c.136-1.979-.383-3.008-2.031-3.122a2.157,2.157,0,0,0-2.529,1.962c-.065.953.392,1.794,2.041,2.46l2.971,1.234c3.114,1.281,4.177,2.974,3.974,5.942-.284,4.141-3.5,5.981-7.753,5.69-5.68-.39-7.085-2.989-6.826-6.763l.048-.7Z"/><path class="cls-4" d="M1775.105,138.3l5.057.347-.387,5.642,2.932.2-.236,3.445-2.932-.2-.73,10.663c-.107,1.539.181,2.184,1.646,2.284a10.413,10.413,0,0,0,1.142,0l-.242,3.517a31.862,31.862,0,0,1-3.313-.006c-3.956-.271-4.607-1.53-4.333-5.525l.773-11.285-2.564-.176.236-3.444,2.565.175Z"/><path class="cls-4" d="M1788.06,155.532l-.109,1.575c-.158,2.309.309,4.623,2.178,4.751,1.685.116,2.47-1.118,2.93-3.517l4.543.312c-.5,4.568-2.873,6.982-7.635,6.656-7.329-.5-7.236-6.166-6.9-11.076.362-5.276,1.725-10.116,8.539-9.649,5.9.405,6.948,4.453,6.534,10.5l-.078,1.136Zm5.373-2.65c.1-3.012-.156-4.723-2.245-4.866-2.014-.138-2.744,1.91-2.87,3.742l-.052.769Z"/><path class="cls-4" d="M1801.428,145.772l4.836.332-.159,2.309.075,0a5.42,5.42,0,0,1,5.213-2.478c3.151.217,4.9,2.067,4.635,5.951l-1,14.62-5.056-.347.931-13.594c.136-1.979-.471-2.793-1.973-2.9-1.723-.118-2.748.879-2.9,3.077l-.9,13.082-5.056-.347Z"/><path class="cls-4" d="M1823.341,157.951l-.109,1.575c-.158,2.309.31,4.623,2.178,4.751,1.686.116,2.47-1.118,2.93-3.517l4.543.312c-.5,4.568-2.871,6.982-7.635,6.656-7.328-.5-7.235-6.166-6.9-11.076.361-5.277,1.724-10.116,8.54-9.649,5.9.405,6.946,4.453,6.532,10.5l-.078,1.136Zm5.373-2.65c.1-3.012-.155-4.723-2.244-4.866-2.015-.138-2.744,1.91-2.87,3.742l-.053.769Z"/><path class="cls-4" d="M1836.709,148.191l4.836.332-.181,2.638.074,0c1.157-1.834,2.671-2.982,4.759-2.839a7.643,7.643,0,0,1,.911.136l-.332,4.837c-.509-.072-1.057-.147-1.57-.182-1.759-.12-3.8.66-3.98,3.3l-.812,11.835-5.057-.346Z"/><path class="cls-4" d="M1388.29,669.368l61.291-33.389L1451.3,651.7l-40.969,22.059,44.766,12.691,1.717,15.726-67.054-19.368Z"/><path class="cls-4" d="M1480.857,605.1l14.2-1.552-18.381,97.234-14.2,1.552Z"/><path class="cls-4" d="M1503.146,627.046l16.741-1.829.79,7.228.254-.028c3.112-6.756,7.64-9.947,14.488-10.7,14.331-1.566,22.076,8.241,24.848,33.606s-2.674,36.611-17.005,38.177c-6.6.721-11.324-1.457-15.6-6.51l-.253.028,3.132,28.663-17.5,1.912Zm32.94,53.64c7.609-.832,8.3-8.608,6.679-23.446s-3.975-22.283-11.584-21.451c-7.737.845-8.427,8.621-6.805,23.461S1528.35,681.53,1536.086,680.686Z"/><path class="cls-4" d="M1572.533,673.623l40.968-22.059-44.765-12.691-1.718-15.726,67.055,19.368,1.469,13.443-61.291,33.391Z"/><path class="cls-4" d="M1095.913,115.9,1150.36,99.09l-1.169,12.862-36.351,11.027,33.769,17.395-1.168,12.862-50.527-26.342Z"/><path class="cls-4" d="M1161.892,79.221l14.315,1.3-2.129,23.443.207.018c3.413-4.187,7.241-6.035,12.635-5.545,11.722,1.065,16.333,10.164,14.449,30.91s-8.06,28.865-19.782,27.8c-5.6-.508-9.346-3.044-11.986-8.514l-.207-.019-.538,5.913-13.692-1.244Zm16.027,66.508c6.223.564,8.033-5.546,9.136-17.682s.422-18.473-5.8-19.038c-6.328-.575-8.137,5.535-9.239,17.672S1171.591,145.153,1177.919,145.729Z"/><path class="cls-4" d="M1232.354,102.564c17.248,1.253,21.087,11.956,19.326,31.353-1.735,19.086-8.27,28.847-24.659,27.357-17.247-1.253-21.086-11.956-19.324-31.352C1209.431,110.836,1215.966,101.075,1232.354,102.564Zm-4.447,48.96c5.809.529,8.2-5.007,9.457-18.907s-.087-19.775-5.895-20.3c-7.054-.64-8.42,7.5-9.456,18.909S1220.854,150.884,1227.907,151.524Z"/><path class="cls-4" d="M1285.987,159.206l-.207-.019c-3.584,4.9-7.723,6.724-13.324,6.215-11.722-1.065-16.333-10.164-14.448-30.91s8.059-28.865,19.781-27.8c5.394.491,8.827,3,11.43,7.732l.207.019L1291.555,91l14.315,1.3-6.727,74.062-13.693-1.243Zm-7.865-4.375c6.329.575,8.138-5.536,9.24-17.672s.424-18.473-5.9-19.048c-6.224-.565-8.032,5.545-9.135,17.682S1271.9,154.266,1278.122,154.831Z"/><path class="cls-4" d="M1308,174.8a22.8,22.8,0,0,0,3.706.65c5.29.481,7.524-2.244,8.392-7.185l-10.594-57.23,14.937,1.357,4.793,39.34.208.02,10.766-37.928,14.314,1.3-18.214,50.848c-6.732,18.84-10.193,21.246-23.47,20.04l-5.809-.528Z"/><path class="cls-4" d="M1355.939,159.391l36.352-11.027-33.77-17.4,1.169-12.864,50.528,26.344-1,11-54.448,16.808Z"/><path class="cls-4" d="M1557.879,774.025l.057-.473c.544-4.523,3.828-5.681,7.621-5.225,5.98.72,6.812,3.335,6.386,6.872L1570.7,785.52a8.074,8.074,0,0,0,.164,3.867l-4.813-.579a8.306,8.306,0,0,1-.374-2.118l-.073-.008c-1.414,1.9-2.9,2.241-5.3,1.951-3.5-.421-4.38-3.561-4.065-6.186.444-3.682,2.118-5,5.7-5.529l2.935-.424c1.544-.221,2.125-.743,2.282-2.056a2.1,2.1,0,0,0-2.043-2.687,2.263,2.263,0,0,0-2.641,2.271l-.066.547Zm8.733,4.9a6.27,6.27,0,0,1-2.27.725c-2.1.193-3.016,1.08-3.226,2.83-.18,1.5.219,2.8,1.568,2.963a2.992,2.992,0,0,0,3.463-2.653Z"/><path class="cls-4" d="M1577.132,763.728l5.032.605-3.133,26.036-5.032-.605Z"/><path class="cls-4" d="M1585.108,771.2l5.033.606-2.361,19.618-5.032-.606Zm.808-6.71,5.032.606-.517,4.3-5.033-.6Z"/><path class="cls-4" d="M1608.373,774l-2.241,18.634c-.623,5.178-3.225,7.418-9.1,6.711-4.265-.513-6.444-2.7-6.041-6.054l4.814.579a1.764,1.764,0,0,0,.586,1.587,2.982,2.982,0,0,0,1.612.749c2.042.246,2.955-1.2,3.2-3.2l.312-2.589-.073-.009a5.337,5.337,0,0,1-4.483,1.9c-4.012-.483-5.688-3.459-4.824-10.642.553-4.6,1.895-9.908,7.365-9.251a4.413,4.413,0,0,1,3.724,3.186l.072.008.263-2.187Zm-9.419,14.626c2.116.255,3.012-1.968,3.411-5.286.575-4.777.171-6.639-1.835-6.88-2.224-.268-2.841,1.471-3.477,6.759C1596.729,785.914,1596.84,788.369,1598.954,788.623Z"/><path class="cls-4" d="M1611.908,774.423l4.813.579-.277,2.3.074.009a5.421,5.421,0,0,1,5.334-2.207c3.135.378,4.79,2.315,4.325,6.18l-1.751,14.55-5.032-.605,1.627-13.529c.238-1.969-.327-2.814-1.822-2.994-1.715-.206-2.79.737-3.053,2.925l-1.567,13.018-5.031-.6Z"/><path class="cls-4" d="M1639.516,784.772l-.519,4.3-10.283-1.237.517-4.3Z"/><path class="cls-4" d="M1643.811,778.261l5.032.605-2.361,19.618-5.032-.605Zm.807-6.709,5.032.605-.517,4.3-5.032-.606Z"/><path class="cls-4" d="M1654.148,773.808l5.032.605-.676,5.616,2.918.351-.412,3.428-2.918-.351-1.277,10.611c-.184,1.532.071,2.191,1.529,2.367a11.055,11.055,0,0,0,1.139.063l-.421,3.5a31.408,31.408,0,0,1-3.309-.176c-3.939-.473-4.522-1.765-4.044-5.74l1.352-11.23-2.553-.308.412-3.428,2.553.308Z"/><path class="cls-4" d="M1666.2,791.684l-.188,1.567c-.277,2.3.072,4.633,1.931,4.856,1.677.2,2.524-.99,3.105-3.363l4.521.545c-.73,4.536-3.225,6.825-7.966,6.255-7.292-.878-6.909-6.528-6.321-11.414.632-5.251,2.241-10.015,9.024-9.2,5.87.707,6.71,4.8,5.986,10.819l-.137,1.131Zm5.5-2.372c.25-3,.088-4.725-1.991-4.975-2-.241-2.839,1.767-3.059,3.591l-.091.765Z"/><path class="cls-4" d="M1680.052,782.622l4.813.579-.241,2,.073.009a5.635,5.635,0,0,1,5.263-1.919,4.337,4.337,0,0,1,4.144,3.68l.073.008a4.912,4.912,0,0,1,5.336-2.539c3.319.4,4.636,2.666,4.18,6.458l-1.715,14.259-5.033-.605,1.65-13.711c.2-1.641-.24-2.618-1.661-2.79-1.605-.193-2.758.778-3.03,3.039L1692.351,804l-5.033-.606,1.65-13.71c.2-1.641-.239-2.62-1.661-2.791-1.605-.192-2.758.779-3.03,3.04l-1.553,12.909-5.033-.606Z"/><path class="cls-4" d="M1709.784,799.591l-.079.656c-.206,1.714.569,2.953,2.283,3.16,1.532.184,2.645-.459,2.833-2.027a2.325,2.325,0,0,0-1.555-2.443l-3.384-1.7c-2.653-1.318-3.869-3.2-3.536-5.974.39-3.246,2.754-5.662,7.931-5.039,4.558.549,6.464,2.849,6.038,6.386l-.1.8-4.521-.544c.238-1.97-.228-3.024-1.87-3.221a2.153,2.153,0,0,0-2.624,1.829c-.113.948.3,1.811,1.911,2.56l2.9,1.386c3.045,1.439,4.019,3.183,3.665,6.138-.5,4.12-3.806,5.794-8.036,5.285-5.652-.681-6.921-3.349-6.469-7.105l.083-.692Z"/><path class="cls-4" d="M1722.494,801.859l4.813.579-.685,5.689-4.812-.579Zm1.6-13.309,4.812.579-.684,5.688-4.813-.579Z"/><path class="cls-4" d="M1749.972,798.211c.227-1.9.108-3.982-1.788-4.21-2.479-.3-3.144,1.841-3.688,6.362-.583,4.851-.388,6.908,1.874,7.181,1.677.2,2.614-1.128,3-4.3l4.813.579c-.619,5.142-3.117,7.764-8.442,7.123-5.031-.605-7.216-3.347-6.268-11.223.969-8.059,4.558-9.92,9.19-9.364s6.682,3.8,6.125,8.432Z"/><path class="cls-4" d="M1761.289,803.124l-.188,1.568c-.277,2.3.071,4.633,1.931,4.857,1.677.2,2.524-.991,3.105-3.363l4.521.543c-.73,4.538-3.225,6.827-7.966,6.256-7.293-.878-6.909-6.528-6.321-11.415.632-5.25,2.241-10.014,9.024-9.2,5.87.706,6.709,4.8,5.985,10.819l-.137,1.131Zm5.5-2.371c.25-3,.088-4.725-1.991-4.975-2-.241-2.839,1.767-3.059,3.59l-.092.767Z"/><path class="cls-4" d="M1775.14,794.063l4.813.579-.276,2.3.073.009a5.42,5.42,0,0,1,5.333-2.207c3.137.377,4.79,2.316,4.325,6.181l-1.751,14.55-5.032-.606,1.628-13.528c.237-1.97-.327-2.815-1.822-3-1.714-.206-2.789.737-3.053,2.926l-1.566,13.017-5.033-.6Z"/><path class="cls-4" d="M1795.14,790.772l5.032.606-.676,5.615,2.918.352-.412,3.427-2.918-.351-1.276,10.611c-.185,1.532.07,2.191,1.528,2.366a10.3,10.3,0,0,0,1.14.064l-.422,3.5a31.946,31.946,0,0,1-3.309-.177c-3.937-.473-4.523-1.765-4.045-5.739l1.352-11.232-2.552-.306.412-3.428,2.552.307Z"/><path class="cls-4" d="M1807.193,808.647l-.188,1.569c-.276,2.3.071,4.632,1.932,4.855,1.676.2,2.523-.99,3.1-3.362l4.522.544c-.731,4.537-3.226,6.826-7.966,6.256-7.293-.878-6.909-6.529-6.322-11.415.632-5.25,2.242-10.015,9.024-9.2,5.87.706,6.709,4.8,5.985,10.819l-.137,1.131Zm5.5-2.371c.25-3,.088-4.724-1.991-4.975-2-.241-2.839,1.767-3.058,3.591l-.092.766Z"/><path class="cls-4" d="M1821.044,799.586l4.813.579-.315,2.626.073.009c1.248-1.774,2.821-2.843,4.9-2.593a7.4,7.4,0,0,1,.9.184l-.579,4.813c-.5-.1-1.048-.2-1.56-.262-1.75-.211-3.828.464-4.144,3.089l-1.417,11.779-5.032-.606Z"/><path class="cls-4" d="M1836.614,815.591l-.57,4.74c-.465,3.866-1.706,6.49-5.651,6.386l.306-2.552c1.3-.066,2.081-1.3,2.243-2.653l.071-.583-1.9-.229.685-5.688Zm1.6-13.31-.685,5.689-4.813-.579.684-5.689Z"/><path class="cls-4" d="M1397.772,995.2l-.072.016a4.789,4.789,0,0,1-3.794,3.532c-4.048.917-6.584-1.635-8.206-8.8s-.431-10.559,3.616-11.475a4.738,4.738,0,0,1,4.673,1.351l.073-.016-1.833-8.1,4.943-1.119,5.791,25.576-4.729,1.07Zm-3.114-.613c2.185-.5,2.129-2.742,1.18-6.934s-1.866-6.242-4.051-5.748c-2.148.487-2.093,2.735-1.143,6.925S1392.51,995.076,1394.658,994.59Z"/><path class="cls-4" d="M1408.729,974.081c5.921-1.454,8.373,1.72,9.889,8.418,1.492,6.591.361,10.575-5.3,11.856-5.922,1.455-8.373-1.718-9.889-8.417C1401.938,979.347,1403.069,975.362,1408.729,974.081Zm3.828,16.907c2.006-.454,2.2-2.57,1.118-7.37s-2.178-6.624-4.184-6.17c-2.435.552-2.011,3.431-1.118,7.37S1410.121,991.54,1412.557,990.988Z"/><path class="cls-4" d="M1429.937,977.112c-.422-1.863-1.235-3.788-3.1-3.366-2.436.552-2.344,2.79-1.338,7.232,1.079,4.764,1.954,6.637,4.177,6.134,1.646-.373,2.084-1.94,1.378-5.056l4.727-1.071c1.144,5.051-.329,8.36-5.559,9.543-4.944,1.119-7.921-.729-9.673-8.466-1.793-7.916.964-10.875,5.513-11.906s7.57,1.336,8.6,5.886Z"/><path class="cls-4" d="M1449.407,983.285l-.071.017a5.421,5.421,0,0,1-4.283,3.869c-3.081.7-5.289-.572-6.149-4.369l-3.236-14.293,4.943-1.119,3.009,13.29c.439,1.933,1.253,2.541,2.722,2.208,1.684-.381,2.38-1.631,1.893-3.781l-2.895-12.788,4.943-1.119,4.363,19.272-4.728,1.071Z"/><path class="cls-4" d="M1453.577,964.454l4.728-1.07.446,1.97.072-.016a5.636,5.636,0,0,1,4.313-3.575,4.335,4.335,0,0,1,5.138,2.075l.072-.016a4.91,4.91,0,0,1,4.175-4.183c3.259-.739,5.261.955,6.105,4.679l3.171,14.006-4.943,1.119-3.049-13.468c-.365-1.612-1.105-2.386-2.5-2.07-1.576.357-2.336,1.659-1.833,3.88l2.871,12.681-4.944,1.119-3.049-13.469c-.365-1.612-1.105-2.386-2.5-2.069-1.576.356-2.336,1.658-1.833,3.879l2.871,12.681-4.944,1.12Z"/><path class="cls-4" d="M1487.305,967.738l.348,1.54c.512,2.257,1.622,4.34,3.449,3.927,1.648-.373,2.045-1.781,1.8-4.21l4.442-1.006c.834,4.519-.747,7.513-5.4,8.568-7.166,1.621-8.7-3.83-9.788-8.63-1.168-5.158-1.251-10.186,5.412-11.7,5.767-1.3,7.932,2.272,9.27,8.182l.251,1.11Zm4.385-4.08c-.773-2.913-1.5-4.48-3.545-4.017-1.97.445-2.081,2.617-1.675,4.408l.17.753Z"/><path class="cls-4" d="M1497.309,954.553l4.728-1.071.511,2.257.072-.016a5.419,5.419,0,0,1,4.283-3.869c3.081-.7,5.288.573,6.148,4.37l3.236,14.292-4.942,1.119-3.009-13.289c-.439-1.935-1.254-2.541-2.723-2.209-1.683.382-2.38,1.631-1.893,3.781l2.895,12.787-4.943,1.12Z"/><path class="cls-4" d="M1515.043,944.738l4.943-1.119,1.249,5.517,2.867-.65.761,3.368L1522,952.5l2.359,10.425c.341,1.5.8,2.039,2.235,1.715a11.03,11.03,0,0,0,1.095-.323l.778,3.439a32.06,32.06,0,0,1-3.176.944c-3.868.877-4.852-.143-5.737-4.049l-2.5-11.032-2.508.567-.762-3.367,2.507-.567Z"/><path class="cls-4" d="M1533.932,960.646l1.265,5.588-4.727,1.071-1.266-5.588Z"/><path class="cls-4" d="M1548.045,961.443l-.072.016a4.745,4.745,0,0,1-3.637,3.233c-4.048.917-6.584-1.634-8.206-8.8s-.432-10.559,3.616-11.475a4.786,4.786,0,0,1,4.945,1.554l.072-.017-.462-2.042,4.729-1.07,5.79,25.576-4.943,1.119Zm-5.828-13.593c-2.149.486-2.093,2.733-1.144,6.923s1.866,6.245,4.015,5.758c2.185-.5,2.13-2.742,1.181-6.933S1544.4,947.354,1542.217,947.85Z"/><path class="cls-4" d="M1566.063,956.874l-.072.016a5.425,5.425,0,0,1-4.283,3.87c-3.081.7-5.289-.573-6.148-4.37l-3.237-14.293,4.944-1.119,3.008,13.29c.438,1.934,1.253,2.541,2.722,2.208,1.685-.381,2.38-1.631,1.894-3.781l-2.9-12.788,4.943-1.119,4.364,19.273-4.729,1.07Z"/><path class="cls-4" d="M1576.811,947.474l.348,1.54c.512,2.257,1.624,4.34,3.45,3.925,1.647-.373,2.045-1.78,1.8-4.21l4.442-1c.835,4.517-.746,7.511-5.4,8.566-7.164,1.622-8.7-3.83-9.787-8.63-1.168-5.158-1.251-10.185,5.412-11.693,5.767-1.306,7.932,2.27,9.271,8.181l.251,1.111Zm4.385-4.081c-.772-2.914-1.5-4.48-3.546-4.018-1.969.446-2.08,2.617-1.674,4.409l.17.752Z"/><path class="cls-4" d="M1586.815,934.287l4.728-1.07.584,2.58.073-.017c.581-2.09,1.7-3.624,3.743-4.087a7.991,7.991,0,0,1,.911-.13l1.072,4.728c-.51.078-1.055.164-1.557.277-1.719.389-3.451,1.723-2.867,4.3l2.62,11.57-4.943,1.12Z"/><path class="cls-4" d="M1604.341,953.328a8.087,8.087,0,0,0,1.314-.183c1.826-.415,2.281-1.572,2.034-3.324l-9.772-18.047,5.159-1.168,5.882,12.677.071-.016-.509-13.894,4.944-1.119-.586,19.037c-.21,7.052-1.11,8.234-5.7,9.272l-2.006.455Z"/><path class="cls-4" d="M1622.142,938.151l.17.753c.543,2.4,1.574,3.786,4.3,3.17a3.021,3.021,0,0,0,2.367-3.849c-.528-2.329-1.9-2.922-5.575-3.332-4.942-.539-7.485-1.959-8.45-6.221-1.127-4.981,1.342-8.213,6.214-9.316,4.585-1.038,8.362.178,9.474,5.085l.162.717-4.943,1.119c-.543-2.4-1.684-3.61-3.655-3.164-2.328.527-2.6,2.133-2.263,3.638.356,1.576,1.041,2.438,3.436,2.874l4.366.819c4.25.808,5.7,2.551,6.4,5.667,1.224,5.41-1.519,8.592-7.108,9.857-5.839,1.322-8.748-.882-9.818-5.61l-.236-1.039Z"/><path class="cls-4" d="M1640.456,933.063l.349,1.541c.511,2.256,1.623,4.339,3.449,3.925,1.648-.373,2.046-1.78,1.8-4.209l4.44-1.006c.835,4.519-.746,7.512-5.4,8.567-7.164,1.622-8.7-3.83-9.786-8.629-1.168-5.158-1.251-10.186,5.411-11.694,5.766-1.306,7.932,2.27,9.27,8.181l.251,1.111Zm4.387-4.081c-.774-2.913-1.5-4.479-3.546-4.017-1.97.446-2.081,2.617-1.676,4.409l.17.753Z"/><path class="cls-4" d="M1649.213,913.533l4.942-1.119,5.791,25.576L1655,939.109Z"/><path class="cls-4" d="M1665.635,927.363l.348,1.539c.512,2.258,1.622,4.34,3.451,3.927,1.646-.373,2.044-1.78,1.8-4.21l4.442-1.006c.834,4.52-.747,7.513-5.4,8.568-7.165,1.622-8.7-3.83-9.788-8.63-1.167-5.158-1.251-10.186,5.412-11.694,5.767-1.306,7.932,2.271,9.27,8.182l.251,1.109Zm4.386-4.081c-.773-2.913-1.5-4.479-3.546-4.017-1.97.446-2.08,2.617-1.675,4.409l.17.752Z"/><path class="cls-4" d="M1686.491,919.026c-.422-1.863-1.234-3.788-3.1-3.366-2.436.551-2.344,2.79-1.338,7.232,1.079,4.763,1.955,6.636,4.175,6.133,1.647-.373,2.084-1.939,1.378-5.056l4.728-1.071c1.143,5.051-.329,8.36-5.559,9.543-4.943,1.12-7.922-.729-9.674-8.466-1.792-7.916.965-10.875,5.515-11.906s7.568,1.337,8.6,5.886Z"/><path class="cls-4" d="M1692.049,904.663l4.943-1.119,1.249,5.516,2.865-.649.763,3.367-2.865.649,2.359,10.425c.341,1.5.8,2.039,2.234,1.714a10.063,10.063,0,0,0,1.094-.322l.779,3.439a32.2,32.2,0,0,1-3.175.945c-3.869.876-4.853-.145-5.737-4.049l-2.5-11.033-2.508.567-.762-3.367,2.507-.567Z"/><path class="cls-4" d="M1709.66,905.947c5.921-1.453,8.372,1.72,9.889,8.418,1.492,6.592.361,10.575-5.3,11.858-5.922,1.453-8.373-1.72-9.89-8.419C1702.868,911.213,1704,907.229,1709.66,905.947Zm3.828,16.907c2.006-.454,2.2-2.57,1.117-7.37s-2.177-6.624-4.183-6.17c-2.436.552-2.011,3.431-1.118,7.371S1711.053,923.406,1713.488,922.854Z"/><path class="cls-4" d="M1720.017,904.13l4.728-1.071.584,2.58.072-.017c.581-2.09,1.7-3.624,3.745-4.087a8.138,8.138,0,0,1,.91-.131l1.071,4.729c-.51.078-1.055.164-1.557.277-1.718.39-3.451,1.723-2.867,4.3l2.62,11.57-4.943,1.119Z"/><path class="cls-5" d="M358.84,495.19h4.61a1.477,1.477,0,0,1-.01.21h-4.82C358.69,495.33,358.77,495.26,358.84,495.19Z"/><path class="cls-5" d="M732.144,492.893c3.348-3.127,6.572-6.406,9.754-9.712,3.5-3.651,3.554-8.335.262-11.668-3.389-3.444-8.183-3.348-11.931.289-2.149,2.066-4.229,4.216-6.337,6.323-5.138,5.125-5.138,5.125-10.208.055-3.554-3.554-3.554-3.554-7.053-.069-3.926,3.913-4.064,4.078.014,7.715,2.2,1.97,1.639,3-.138,4.753-10.7,10.566-21.284,21.243-31.933,31.851-1.254,1.253-2.521,2.4-1.888,4.229.234,2.81.345,5.455.675,8.073.786,6.075-.785,4.794,5.676,5.483,2.287.248,4.615.22,6.861.606,2.3.413,3.829-.4,5.414-2.012,10.649-10.759,21.394-21.422,32.1-32.139,1.075-1.075,1.888-2.384,3.513-.538,1.4,1.6,2.934,4.381,4.643,4.106,1.873-.317,3.361-2.866,5.014-4.45.166-.152.3-.345.482-.482,1.667-1.171,1.9-2.232.124-3.692-1.846-1.529-3.32-3.5-5.179-5.029C730.243,495.125,730.684,494.257,732.144,492.893Zm-15.663,14.589c-8.748,8.748-17.551,17.427-26.175,26.285-2.039,2.094-3.981,3.32-6.351,2.508-6.185-.441-6.185-.441-6.612-6.2-.138-2-.593-3.829,1.267-5.648,10.4-10.167,20.651-20.471,30.859-30.817,1.5-1.516,2.4-1.681,3.747,0a41.487,41.487,0,0,0,3.375,3.416C721.8,502.192,721.8,502.192,716.481,507.482Z"/><path class="cls-5" d="M358.84,495.19h4.61a1.477,1.477,0,0,1-.01.21h-4.82C358.69,495.33,358.77,495.26,358.84,495.19Z"/><path class="cls-5" d="M853.764,111.09c-14.587-7.759-30.073-8.753-45.906-4.905-11.354,2.76-21.557,7.712-28.479,17.646-6.986,10.03-5.6,21.147,3.453,29.363a69.049,69.049,0,0,0,12.632,8.674c1.435.82,1.655,1.372.835,2.948-2.3,4.463-1.372,8.295,2.492,11.528a18.441,18.441,0,0,0,11.669,4.1c2.208.063,2.665.773,2.192,2.839a29.106,29.106,0,0,1-4.415,10.455c-1.514,2.145.347,2.633,1.388,3.627,1.624,1.545,2.223.079,2.9-1.009,2-3.249,3.974-6.624,4.5-10.408.567-4.148,1.561-7.712,5.771-9.572a3.009,3.009,0,0,0,1.467-1.782c.788-2.681,2.791-2.918,5.141-3.154,12.426-1.262,23.843-5.125,33.163-13.846,5.772-5.425,9.32-11.969,9.556-20.958C871.615,124.809,864.313,116.688,853.764,111.09Zm-52.371,60.9c-1.467-1.372-2-3.154-.694-4.905,1.514-2.034,2.823-.22,3.942.552,2.839,1.956,5.725,3.958,7.333,7.664A12.751,12.751,0,0,1,801.393,171.992Zm18.576.142c-1.308,1.514-2.633,3.264-4.068-.111-1.246-2.965-3.911-4.857-6.2-7.017l2.555-.962a10.763,10.763,0,0,1,7.238,3.516C820.726,168.932,821.4,170.509,819.969,172.134Zm38.494-17.473c-8.926,7.853-19.68,11.2-31.35,12.111a3.065,3.065,0,0,1-3-1.293c-4.952-6.276-11.638-7.68-19.066-6.15a7.616,7.616,0,0,1-6.165-1.088c-4.1-2.587-8.358-4.936-12.064-8.106-8.2-7.065-9.21-16.148-2.507-24.711,6.181-7.9,14.76-12.064,24.253-14.334,17.047-4.053,33.368-2.744,48.113,7.679,6.7,4.747,10.439,11.623,10.471,18.482C867.042,144.442,863.667,150.088,858.463,154.661Z"/><path class="cls-5" d="M140.468,131.505q-4.974,5.133-9.934,10.329c-.593-.654-.867-.821-.867-1-.137-7.941-.137-7.941-8.215-7.941-5.324,0-10.648.137-15.958-.061-2.571-.091-2.86.989-2.829,3.134.121,6.846.167,13.691-.015,20.522-.076,2.647.654,3.7,3.362,3.392a57.948,57.948,0,0,1,6.069-.045c-4.092,4.107-7.56,7.591-11.044,11.059-.776.761-1.354.122-1.886-.411-3.317-3.3-6.618-6.587-9.995-9.934,1.05-1.217,2.251-.684,3.24-.7,5.477-.076,5.507-.046,5.477-5.69-.046-6.572-.152-13.143-.228-19.731-.533-.2-.563-.456-.092-.76-.563-1.324-1.749-.73-2.647-.746-6.967-.045-13.934.092-20.9-.076-2.571-.061-3.362.776-3.088,3.241a60.616,60.616,0,0,1,.046,6.145c-4.032-3.985-7.485-7.408-10.938-10.816-.715-.7-.5-1.308.122-1.932,3.316-3.423,6.632-6.845,9.994-10.329.5.654.761.837.761,1.019.228,7.941.228,7.941,8.23,7.941,5.2,0,10.39-.091,15.578.046,2.418.061,3.3-.548,3.225-3.18q-.3-10.245.015-20.506c.076-2.662-.609-3.7-3.3-3.377a10.8,10.8,0,0,1-5.6-.837c3.407-3.3,6.86-6.572,10.207-9.934,1.156-1.156,1.719-.3,2.449.4,3.241,3.179,6.481,6.358,9.584,9.416-.365,1.2-1.08.989-1.658.989-6.937.152-6.937.152-6.937,6.907,0,5.7.107,11.409-.045,17.114-.046,2.266.517,3.073,2.936,3.027,6.967-.167,13.934-.137,20.9,0,2.434.046,3.514-.563,3.179-3.179a55.3,55.3,0,0,1-.045-6.314c4.077,4.062,7.484,7.485,10.922,10.893C141.229,130.272,141.092,130.85,140.468,131.505Z"/><path class="cls-5" d="M144.2,971.464c-5.753-5.5-11.571-10.956-17.272-16.5-1.284-1.258-2.254-1.127-3.67-.327q-11.421,6.389-22.934,12.607a5.408,5.408,0,0,0-2.8,3.342c-4.194,12.725-8.4,25.45-12.83,38.1-.9,2.556.655,3.5,1.861,4.954,1.14,1.376,2.215,1.953,4.18,1.324,13.577-4.4,27.207-8.663,40.836-12.9a4.216,4.216,0,0,0,2.909-2.726c3.408-8.02,6.907-16.014,10.38-24.008.249-.6.511-1.206.747-1.743C145.672,972.473,144.807,972.04,144.2,971.464Zm-4.049,4.521q-4.482,10.006-8.728,20.1a4.612,4.612,0,0,1-3.316,2.779c-11.663,3.59-23.3,7.247-34.951,10.877-.773.511-1.678,1.232-2.451.485-.38-.354.5-.944,1.062-1.219,6.736-6.815,13.5-13.616,20.208-20.483,1.022-1.036,1.822-1.468,3.355-.865,2.948,1.153,5.438.078,7.011-2.556a5.812,5.812,0,1,0-10.654-1.376,2.673,2.673,0,0,1-.826,3.106c-6.592,6.513-13.118,13.079-19.671,19.619a2.234,2.234,0,0,1-1.586,1.441,3.75,3.75,0,0,1,.839-2.844C94,994.293,97.576,983.534,101.1,972.761a4.277,4.277,0,0,1,2.345-2.516c6.514-3.538,13.027-7.09,19.5-10.72,1.179-.655,1.939-.878,3.066.236,4.443,4.364,8.964,8.623,13.538,12.843A2.5,2.5,0,0,1,140.155,975.985Z"/><path class="cls-5" d="M161.608,965.344c-9.029-8.859-18.085-17.692-27.075-26.6-1.324-1.31-1.874-.694-2.713.406-2.136,2.766-4.272,5.531-6.539,8.178-1.154,1.35-1.1,2.176.222,3.42q11.992,11.127,23.812,22.45c1.141,1.087,1.966,1.31,3.316.327,2.831-2.031,5.78-3.892,8.689-5.831.432-.289.839-.63,1.415-1.075C162.3,966.117,161.975,965.7,161.608,965.344Z"/><path class="cls-5" d="M183.545,592.316c-1.944-.833-3.4.1-4.688,1.453q-28.59,29.668-57.2,59.3c-1.339,1.388-1.486,2.205.049,3.56,3.855,3.43,7.693,6.925,11.27,10.633,2.025,2.074,2.923,1.682,4.442-.523q23.324-33.685,46.826-67.275a7.628,7.628,0,0,0,1.7-3.658A3.845,3.845,0,0,0,183.545,592.316Z"/><path class="cls-5" d="M119.716,664.67c-6.255-2.564-12.3.114-15.418,7.235a74.438,74.438,0,0,1-11.531,18.113c-2.352,2.777-4.867,5.407-7.807,8.624,7.66.85,14.553.85,21.314-.8,9.359-2.287,17.264-6.729,20.841-16.333A13.146,13.146,0,0,0,119.716,664.67Z"/><path class="cls-5" d="M827.881,750.788C817.356,733.536,807.089,716.12,796.236,698c-9.423,19.76-18.26,38.443-27.238,57.008a38.942,38.942,0,0,0-3.071,24.5c2.86,15.7,15.026,27.59,29.629,28.9,16.221,1.477,29.606-7.008,35.395-22.854C835.335,773.573,834.725,761.969,827.881,750.788ZM825.865,776.9c-.422,2.485-.7,5.04-2.391,7.1-4.5,11.229-13.2,17.37-24.425,17.253-11.181-.117-19.573-6.165-23.839-17.159a31.825,31.825,0,0,1-.821-26.675c6.728-15.94,14.651-31.387,22.574-48.053,8.133,13.548,15.517,26.464,23.511,39C826.146,757.328,827.6,766.751,825.865,776.9Z"/><path class="cls-5" d="M125.67,518.86c.01.06-.04.12-.07.18-.35-.13-.37-.3-.06-.5A1.788,1.788,0,0,1,125.67,518.86Z"/><path class="cls-5" d="M323.263,114.191c-6.617,1.288-9.757,6.452-8.322,13.935a67.021,67.021,0,0,1,1.14,15.062,133.529,133.529,0,0,1-1.747,15.086c8.488-4.334,15.006-9.777,19.1-15.974,3.715-5.6,5.59-11.7,4.091-18.464A12.2,12.2,0,0,0,323.263,114.191Z"/><path class="cls-5" d="M339.22,90.761,323.713,68.523c-.874,10.483-1.667,19.87-2.419,29.266-.277,3.59-1.859,8.036-.309,10.51,1.587,2.554,6.6,1.644,10.064,2.469.346.093.73.089,1.062.21,2,.719,2.991.2,3.465-2.047,1.077-5.169,2.444-10.275,3.69-15.4C339.5,92.605,339.856,91.673,339.22,90.761Z"/><path class="cls-5" d="M276.327,125.854c1.741-1.213,1.8-2.292.637-3.629-.848-2.049-1.956-1.417-3.119-.536-1.053.787-2.44,1.473-.942,3.016C273.828,125.678,274.409,127.192,276.327,125.854Z"/><path class="cls-5" d="M270.242,132.3c.684-.811,2.274-1.761.789-3.488-1.085.034-1.6-2.514-3.039-1.1-.876.839-2.911,2.135-1.32,3.736C267.392,132.173,268.827,133.953,270.242,132.3Z"/><path class="cls-5" d="M266.775,140.576c.948-.661,1.07-2.277.913-3.664-1.352-.324-2.742-1.837-3.911-.863-.937.777-1.639,2.8-.848,3.882A3.159,3.159,0,0,0,266.775,140.576Z"/><path class="cls-5" d="M265.968,149.235c1.033-.739.378-2.411.349-3.764-1.377-.536-3.16-1-4.074-.239-.984.81-.907,2.939-.145,3.956C262.987,150.363,264.981,149.94,265.968,149.235Z"/><path class="cls-5" d="M270.154,163.669c-.619-2.4-2.087-1.2-3.361-.807-2.169.65-1.018,1.871-.588,3.068.624,1.677,1.519,1.774,3.016.994C270.842,166.093,271.448,165.2,270.154,163.669Z"/><path class="cls-5" d="M278.029,176.9c-.826.734-3.033,1.481-1.39,3.257.758.809,1.617,2.621,3.078,1.461.9-.7,2.536-1.663,1.558-3.445C280.174,177.608,279.512,175.623,278.029,176.9Z"/><path class="cls-5" d="M285.4,117.8c-1.489-.95-2.908-.26-4.018.32-1.838.948-.27,2.389.1,3.4.74,2.019,2.352.6,3.3.216C286.864,120.9,284.951,119.242,285.4,117.8Z"/><path class="cls-5" d="M327.237,165.873c-.854.719-1.432,2.566-.611,3.541.8.941,2.634,1.683,3.761.775,1-.818,1.057-2.5.856-4.047C329.856,165.9,328.331,164.969,327.237,165.873Z"/><path class="cls-5" d="M267.2,158.268a3.453,3.453,0,0,0-.263-3.935c-.863-1.264-2.564-.447-3.538.074-1.715.949-.529,2.674-.015,3.689C264.335,160.018,265.777,157.921,267.2,158.268Z"/><path class="cls-5" d="M324.485,174.269c-.738.708-2.282,1.978-.964,3.312.785.773,1.718,2.111,3.346,1.416.5-1.28,2.284-2.4,1.267-3.735C327.479,174.4,325.859,172.959,324.485,174.269Z"/><path class="cls-5" d="M293.949,121.292c.5-1.372,1.195-2.98.331-4.067-.769-.978-2.727-.932-3.7-.339-1.34.829-.994,2.788-.328,3.819C290.947,121.784,292.607,121.312,293.949,121.292Z"/><path class="cls-5" d="M318.788,181.445c-1.048,1-1.975,1.659-.687,3.154.9,1.042,1.531,2.347,3.553.2.222-.261,2.211-.715.53-2.394C321.268,181.493,320.607,179.737,318.788,181.445Z"/><path class="cls-5" d="M293.085,185.8c-.848.855-1.964,2.637-.855,3.747.834.843,2.771,1.728,3.91.635a4.151,4.151,0,0,0,.542-3.968C295.435,186.343,294.14,184.764,293.085,185.8Z"/><path class="cls-5" d="M285.246,182.131c-.922.7-2.513,2-1.4,3.473.675.867,2.076,2.144,3.286,1.4a4.077,4.077,0,0,0,1.662-3.623C287.477,182.881,286.492,181.192,285.246,182.131Z"/><path class="cls-5" d="M310.586,186.038c-1.886.928-.643,2.737-.1,3.642,1,1.693,2.578.367,3.643-.252,1.812-1.035-.126-2.2-.1-3.222C312.889,184.292,311.518,185.582,310.586,186.038Z"/><path class="cls-5" d="M301.77,187.276a2.915,2.915,0,0,0-.436,3.841,3.154,3.154,0,0,0,3.971.117c1.075-.855.165-2.438.182-3.752A3.54,3.54,0,0,0,301.77,187.276Z"/><path class="cls-5" d="M271.585,170.591c-1.155.893-2.179,1.519-.786,3.012.864.911,1.394,2.53,3.047.937,1.233-.806,2.3-1.57.892-3.314C273.747,169.981,273.039,169.471,271.585,170.591Z"/><path class="cls-5" d="M302.48,119.268c-.767-.873-1.891-1.374-2.578-.948-1.3.784-1.508,2.407-1.275,3.776.124.758,1.478,1.134,2.107.8C302.109,122.167,302.015,120.543,302.48,119.268Z"/><path class="cls-5" d="M629.687,58.9c-1.535-.6-2.675.078-3.764,1.206q-22.9,23.843-45.888,47.619c-1.141,1.193-1.062,1.784.092,2.833,3.174,2.846,6.3,5.744,9.3,8.747,1.43,1.43,2.086,1.089,3.135-.433Q611.385,91.7,630.316,64.6a5.342,5.342,0,0,0,1.3-2.937A2.8,2.8,0,0,0,629.687,58.9Z"/><path class="cls-5" d="M578.671,117.1c-4.642-1.98-9.442-.6-11.658,4.144a76.372,76.372,0,0,1-16.63,22.99c9.417,1.023,17.81.577,25.534-3.83,4.2-2.4,7.41-5.8,8.774-10.6A10.546,10.546,0,0,0,578.671,117.1Z"/><path class="cls-5" d="M569.937,81.623c-1.574-2.347-.826-3.475,1.5-4.669,9.548-4.878,19.528-6.754,30.15-4.76,1.089.2,2.217.983,2.9-.853.813-2.19-.066-2.872-2.059-3.226a48.6,48.6,0,0,0-33.5,5.679c-1.8,1.023-2.583.905-3.318-1.049a52.978,52.978,0,0,0-2.583-5.207C557.046,74.056,551.3,80.338,545.19,87H572.6A48.766,48.766,0,0,0,569.937,81.623Z"/><path class="cls-5" d="M614.736,115.708c-.865.8-2.465,1.259-2.177,2.531.25,1.049,1,2.688,2.466,2.413,1.01-.184,2.466-1.194,2.308-2.348A3.807,3.807,0,0,0,614.736,115.708Z"/><path class="cls-5" d="M620.1,110.134c-1.259-.184-2.046,1.4-2.164,2.387-.144,1.246,1.325,2.138,2.295,2.36,1.561.341,1.731-1.547,2.768-2.491A4.112,4.112,0,0,0,620.1,110.134Z"/><path class="cls-5" d="M623.969,103.393c-1.744,0-1.875,1.574-1.967,2.492-.171,1.639,1.679,1.993,2.662,2.059,1.6.105,1.849-1.757,1.915-2.82C626.671,103.564,624.821,104.023,623.969,103.393Z"/><path class="cls-5" d="M626.08,96.036c-1.927-.42-1.875,1-1.993,2.321-.2,1.994,1.456,1.456,2.413,1.692,1.954.472,1.574-1.167,1.8-2.216C628.664,95.957,627.418,96,626.08,96.036Z"/><path class="cls-5" d="M625.307,92.259c.839-.328,2.282.249,2.5-1.285.132-.84-.34-1.535-1.337-1.181-.944.328-2.348.027-2.675,1.351C623.536,92.206,624.415,92.311,625.307,92.259Z"/><path class="cls-5" d="M608.717,120.455a.882.882,0,0,0-1.01,1.22c.485,1.023.63,2.452,2.033,2.675a1.037,1.037,0,0,0,1.141-1.259C610.251,122.134,609.989,120.783,608.717,120.455Z"/><path class="cls-5" d="M249.561,473.034c-1.9.033-2.721.541-2.623,2.557a79.334,79.334,0,0,1,.033,8.146c-.114,2.18,1.016,2.328,2.738,2.344,1.9.033,2.786-.525,2.606-2.524-.115-1.361-.017-2.721-.017-4.081a30.31,30.31,0,0,1,.033-3.656C252.577,473.624,251.675,472.985,249.561,473.034Z"/><path class="cls-5" d="M249.43,498.767c-2.967.049-2.41,1.852-2.426,3.524-.016,2.442.082,4.885-.016,7.327-.082,2.049,1.147,2.081,2.639,2.032,1.425-.033,2.786.049,2.638-2.032-.081-1.344-.016-2.7-.016-4.065h.016c0-1.082-.049-2.18.017-3.262C252.413,500.21,252.364,498.718,249.43,498.767Z"/><path class="cls-5" d="M252.265,529.221a10.18,10.18,0,0,0-.016-1.459c-.213-1.278.836-3.278-1.737-3.262-1.656,0-3.737-.639-3.541,2.361.115,1.622-1.3,1.426-2.344,1.475-1.311.082-1.507.967-1.458,1.983.065,1.033-.443,2.688.786,2.868a19.237,19.237,0,0,0,7.245.033C253.282,532.745,251.856,530.417,252.265,529.221Z"/><path class="cls-5" d="M248.725,460.332c.426.442,2.786.786,3.229-.541a12.875,12.875,0,0,0,.016-7.589c-.508-1.688-2.638-.59-4.163-.951a12.849,12.849,0,0,0-3.868.361c-1.41.557-1.082,2.786-.688,3.18C245.086,456.627,246.938,458.447,248.725,460.332Z"/><path class="cls-5" d="M163.773,453.546c.115-1.541-.574-2.082-2.114-2.262-6.212-.721-6.737-.344-7,5.524a8.988,8.988,0,0,1-.328,1.573v.328c2.377,2.688,4.671,2.524,5.458-.59.394-1.541,1.18-1.557,2.3-1.574C164.3,456.48,163.675,454.808,163.773,453.546Z"/><path class="cls-5" d="M161.445,528.319c-1.573.148-1.622-1.1-1.589-2.229.016-1.245-.672-1.7-1.8-1.59-1.033.115-2.77-.508-2.967.508a19.9,19.9,0,0,0-.213,7.229c.41,2.327,2.754.754,3.966,1.229.722,0,1.263.033,1.8,0,1.377-.082,3.246.557,3.131-1.95C163.691,529.942,164.166,528.057,161.445,528.319Z"/><path class="cls-5" d="M157.217,486.015c1.475-.016,2.77.033,2.622-2.032-.082-1.344-.016-2.7-.016-4.065h.033c0-1.213-.082-2.442.016-3.655.18-2.082-.262-3.229-2.8-3.212-2.589.032-2.393,1.508-2.376,3.179.016,2.574.082,5.147-.033,7.72C154.578,485.966,155.709,486.048,157.217,486.015Z"/><path class="cls-5" d="M157.184,511.65c1.459-.033,2.8.017,2.688-2.049-.082-1.36-.016-2.737-.016-4.1,0-1.229-.082-2.459.016-3.688.164-1.918-.213-3-2.573-3.016-2.3,0-2.77.918-2.672,2.918a76.839,76.839,0,0,1,0,7.769C154.545,511.486,155.643,511.667,157.184,511.65Z"/><path class="cls-5" d="M226.155,456.693c1.967-1.1,6.475,1.917,5.606-3.245-.77-4.459-4.688-1.344-7.081-1.935-1.344-.327-4.032-1.442-4.229,1.935C220.14,458.725,224.188,455.611,226.155,456.693Z"/><path class="cls-5" d="M226.713,528.352c-1.639,0-2.885.1-4.1-.016-1.95-.164-2.229.9-2.164,2.491.05,1.442-.049,2.754,2.049,2.655,2.459-.1,4.917-.032,7.376,0,1.344.017,1.885-.524,2-1.917C232.334,526.385,228.352,529.041,226.713,528.352Z"/><path class="cls-5" d="M205.569,528.287c-1.754.032-3.524.114-5.278.016-1.852-.115-2.655.426-2.655,2.475,0,2.147.754,2.95,2.852,2.737a30.522,30.522,0,0,1,3.245-.016c.672,0,1.344,0,2.033.016,1.753.016,3.425.361,3.474-2.491C209.289,527.975,207.519,528.237,205.569,528.287Z"/><path class="cls-5" d="M203,456.529c1.491,0,2.72-.066,3.933.016,1.934.131,2.213-.967,2.213-2.54,0-1.492-.016-2.721-2.065-2.639-2.574.1-5.18.033-7.753.033-1.262,0-1.492.77-1.606,1.868C197.193,458.447,201.176,455.841,203,456.529Z"/><path class="cls-5" d="M181.131,528.352c-1.672,0-3.033,0-4.377-.016-1.18,0-1.836.541-1.671,1.737.163,1.115-.607,2.983.9,3.164a70.9,70.9,0,0,0,9.326.131c.8-.017.967-.787,1.065-1.476C187.179,526.533,183.081,528.893,181.131,528.352Z"/><path class="cls-5" d="M180.262,456.545c1.606,0,2.95-.016,4.294,0,1.41.033,1.967-.721,1.8-2.016-.131-1.081.672-2.884-1-3.032a79.522,79.522,0,0,0-9.277-.016c-.819.016-.934.737-1.032,1.458C174.214,458.184,178.2,456.1,180.262,456.545Z"/><path class="cls-5" d="M98.26,349.06q15.915-16.05,31.87-32.08c1.15-1.15,1.2-1.75.01-2.91-4.6-4.47-9.09-9.05-13.59-13.63-.85-.87-1.39-1.36-2.53-.2q-19.815,20.115-39.76,40.1c-.93.93-.93,1.49,0,2.39,3.33,3.27,6.6,6.6,9.87,9.93a2.821,2.821,0,0,0,2.17.96q16.11-.105,32.23-.14a2.059,2.059,0,0,0-.01-2.86c-.16-.02-.33-.03-.49-.05q-10.47-.1-20.94-.22h0C97.48,349.92,97.85,349.47,98.26,349.06Zm-8.98,1.4c-2.18.53-3.61-.5-4.98-2.03-1.76-1.99-3.67-3.86-5.61-5.67-.92-.87-1.04-1.4-.07-2.36q7.095-7,14.05-14.15c.92-.94,1.37-.69,2.15.1,3.19,3.27,6.39,6.53,9.69,9.69,1.01.97.81,1.5-.05,2.35-3.72,3.68-7.46,7.34-11.05,11.15C92.12,350.91,90.66,350.3,89.28,350.46Z"/><path class="cls-5" d="M644.659,939.9c-.351-4.536-3.647-7.1-7.719-5.99-3.045.852-3.346-.163-3.033-2.607a11.583,11.583,0,0,0,.013-2.18c-.238-4.7-3.722-7.92-8.309-7.143-2.368.4-2.443-.376-2.556-2.268a7.73,7.73,0,0,0-5.764-7.03c-3.4-.752-6.429-.125-8.5,3.02a1.275,1.275,0,0,0-.74,1.128,2.7,2.7,0,0,0-.714,2.444v.012h0c-.2,1.954-.514,3.082-3.233,2.668-4.8-.714-8.835,3.183-9.11,8.183-.126,2.08-.025,4.173-.025,6.253v20.138c-2.081-2.857-3.6-4.937-5.1-7a16.855,16.855,0,0,0-6.253-5.551,7.512,7.512,0,0,0-8.27.739c-2.519,1.905-2.594,4.6-1.705,7.381.627,1.98,1.366,3.922,2.081,5.877,4.436,12.118,9.887,23.609,18.709,33.308,14.486,15.94,37.443,8.847,44.811-7.143,4.123-8.922,5.4-18.346,5.664-27.982A159.85,159.85,0,0,0,644.659,939.9Zm-8.383,41.19c-5.4,13.008-17.344,16.579-27.043,14.8-5.038-.927-8.885-4.047-12.256-7.694-8.22-8.922-13.12-19.724-17.293-30.927-.764-2.055-1.6-4.072-2.243-6.165-.351-1.153-.8-2.519.564-3.409a3.711,3.711,0,0,1,3.885-.188,14.375,14.375,0,0,1,5.012,4.612c3.722,5.163,7.469,10.3,11.592,16,.062.075.113.163.175.238,0-.112.013-.213.013-.313.075-1.5.163-2.494.163-3.5q.018-15.959.012-31.93a12.312,12.312,0,0,1,.288-3.408c.715-2.369,2.369-3.735,4.913-3.421,2.381.3,2.869,2.193,2.882,4.185.063,5.953.012,11.892.088,17.845.012.952-.564,2.055.426,2.907h.012c2.782,1.04,3.572-.025,3.521-2.832-.125-8.058-.062-16.128-.025-24.173.013-.451.013-.89.013-1.341,0-1.278.2-2.544.313-3.809h.2a1.349,1.349,0,0,0-.176-.2c3.283-2.97,5.138-2.857,7.369.451a.283.283,0,0,1,.138.452c.689,1.04.413,2.217.426,3.345.025,8.735.012,17.469.012,26.216,0,1.315-.338,2.681,1.892,2.681,2.106,0,2.03-1.127,2.018-2.581q-.057-9.06.012-18.108c.013-1.09-.4-2.3.577-3.245,1.441-2.193,3.108-2.669,5.113-.677.175.213.35.439.526.652,1.027.927.576,2.155.589,3.245.05,7.206.037,14.411.025,21.6,0,1.379-.263,2.619,1.942,2.632,2.168,0,1.993-1.166,1.98-2.582-.037-2.932-.025-5.852.013-8.772a6.656,6.656,0,0,1,1.591-4.924,3.362,3.362,0,0,1,3.434-1.028,2.552,2.552,0,0,1,1.829,2.632C641.213,954.144,641.714,967.966,636.276,981.086Z"/><path class="cls-5" d="M894.317,513.029c.964.148,1.988-.03,2.967.03,1.662.089,2.819-.075,2.79-2.285-.015-2.048-.816-2.552-2.656-2.419s-3.709-.029-5.564,0c-1.157.03-1.721-.3-1.943-1.587-1.217-6.973-.223-8.249,6.735-8.308a1.589,1.589,0,0,0,.371-.015c1.009-.178,2.611.608,2.834-.876.208-1.35,1.1-3.293-1.187-4.065a25.1,25.1,0,0,1-8.16-.148c-1.424-2.582.03-5.43-.757-8.071.03-.089.1-.178.09-.267-.03-.163-.119-.312-.164-.475-3.1-1.573-6.394-.534-9.584-.638-6.276-.193-6.276-.059-6.35-6.454-.015-1.617.593-3.427-2.329-3.427-2.982,0-2.27,1.869-2.285,3.457-.06,6.409-.045,6.409-6.35,6.38a3.059,3.059,0,0,0-.371,0c-2.611.474-3.605-.609-3.205-3.2.134-.831-.1-1.736.045-2.567.667-3.664-1.054-4.569-4.288-3.872.03.237.059.489.089.742-.089,2.937-.163,5.875-.252,8.827l-.356.015-.341-.074c-.49.044-.98.1-1.469.1-7.641.119-7.686.119-7.938-7.329-.059-1.647-.311-2.448-2.21-2.448-1.974-.015-2.671.652-2.493,2.581.134,1.469-.119,2.982.059,4.451.3,2.359-.712,2.8-2.922,2.864-3.219.089-6.542-.9-9.671.592h-.009v0l0,0c-1.285,1.795.832,4.759-1.125,5.708-1.81.875-4.347.237-6.558.267a3.059,3.059,0,0,1-.371,0c-1.676-.208-2.374.327-2.418,2.2-.03,2.018.682,2.611,2.567,2.448,1.468-.119,2.967.133,4.421-.045,2.492-.3,3.115.727,3.115,3.116.015,6.84.119,6.84-6.676,6.9a6.068,6.068,0,0,1-.742-.015c-1.721-.178-2.685.149-2.7,2.315,0,2.136.9,2.448,2.671,2.344,1.839-.089,3.694.029,5.533-.015,1.187-.045,1.677.312,1.87,1.617,1.1,7.27.4,8.19-6.662,8.264a8.9,8.9,0,0,1-1.1-.015c-1.854-.222-2.27.683-2.284,2.374-.03,1.721.46,2.359,2.27,2.433,2.522.089,6.038-1.3,7.314.623s.4,5.238.475,7.938c.015.86.015,1.721.029,2.581a1.889,1.889,0,0,0-.157.143c-.318.327-.282.616.276.836,2.715,1.247,5.564.312,8.338.52,2.582.193,5.742-.8,7.641.371,2.4,1.469.623,4.94.9,7.507.178,1.573.312,2.492,2.255,2.463,1.929-.045,2.7-.594,2.537-2.567-.148-1.84.015-3.709-.074-5.549-.059-1.469.252-2.121,1.988-2.24,7.774-.564,7.774-.653,7.893,7.121a4.086,4.086,0,0,1,0,.742c-.282,2.018.727,2.478,2.582,2.493,2.047.029,2.121-1.1,2.077-2.6-.06-1.854.059-3.709-.03-5.563-.074-1.528.415-2.077,2.062-2.2,7.834-.549,7.834-.608,7.938,7.107a9.381,9.381,0,0,1-.015,1.112c-.238,2.018.994,2.077,2.522,2.122,1.647.044,2.062-.549,2.122-2.137.089-2.67-1.291-6.305.652-7.729,1.781-1.306,5.223-.371,7.938-.416a12.453,12.453,0,0,1,1.484,0c1.379.1,1.928-.4,1.973-1.9.059-2.433-1.128-5.549.519-7.121,1.617-1.543,4.718-.534,7.136-.475,2.107.044,2.508-.905,2.389-2.685-.223-3.591-2.952-1.87-4.466-1.929-5.623-.223-5.356-.1-5.712-5.7C889.614,513.622,890.845,512.435,894.317,513.029ZM884.08,498.356c1.469,0,1.38,1.083,1.365,2.092,0,1.973-.045,3.946.015,5.934.044,1.261-.134,2.255-1.692,2.166-1.661-.1-2.062.668-2.032,2.226.015,1.528.371,2.344,2.047,2.255,1.558-.089,1.736.95,1.706,2.2-.059,1.973-.074,3.961-.014,5.934.044,1.336-.327,2.137-1.84,2.033-1.454-.1-1.9.623-1.9,2.018.015,1.424.193,2.359,1.988,2.3,2.507-.074,1.587,1.944,1.736,3.235.207,1.795-1.039,2.21-2.33,1.869-1.914-.5-5.237,1.929-5.43-2.567-.044-1.276-1.617-.682-2.507-.771s-1.929,0-1.795,1.216c.252,2.345-1.187,2.256-2.775,2.2s-3.2-.015-4.807-.015c-1.365-.015-2.863.208-2.7-1.958.1-1.454-.935-1.5-1.988-1.454-.935.059-2.27-.282-2.2,1.2.1,2.3-1.276,2.255-2.863,2.21-1.721-.044-3.457-.044-5.178.015-1.261.03-2.226-.119-2.077-1.75s-.92-1.707-2.152-1.707c-1.35-.015-2.522-.044-2.388,1.84.133,1.706-1.1,1.6-2.24,1.587a49.332,49.332,0,0,1-5.549-.044c-1.617-.163-4.006,1.113-4.7-.786-.713-1.974-.282-4.377-.238-6.6a1.118,1.118,0,0,1,1.321-1.008c1.676.178,2.477-.238,2.388-2.181-.089-1.632-.623-2.2-2.21-2.063-1.35.119-1.617-.845-1.617-1.928,0-2.107.059-4.2.014-6.306-.029-1.365.431-2.181,1.9-2,1.855.223,1.9-.86,1.929-2.255.015-1.5-.3-2.374-2.032-2.136-1.588.207-1.8-.787-1.766-2.077.059-1.974.015-3.947-.044-5.92-.03-1.439.3-2.508,2.032-2.3,1.691.223,1.736-.845,1.78-2.047.03-1.38,0-2.508-1.943-2.226-.8.119-1.884-.015-1.736-1.305.119-.935.935-1.009,1.706-1.009,1.721,0,3.457,0,5.178.015.772.015,1.662.118,1.677,1.053.014,1.647.118,2.715,2.344,2.789,2.8.089,1.469-2.3,2.388-3.264a1.422,1.422,0,0,1,.327-.178,20.147,20.147,0,0,1,8.976.074c1.038.965-.386,3.635,2.67,3.383,1.974-.163,2.508-.935,2.523-2.6-.119-1.024.46-1.38,1.305-1.2,2.775.579,5.92-1.424,8.4,1.2.371,1.142.163,2.374,2.181,2.581,3.086.342,1.8-2.4,2.893-3.368,3.234-1.053,6.557-.267,9.836-.459,1.706-.089,1.6,1.276,1.484,2.344-.119,1.172.816,3.071-1.41,3.13-1.795.045-2.3.712-2.329,2.433C881.691,498.252,882.73,498.341,884.08,498.356Z"/><path class="cls-5" d="M363.45,495.19a1.477,1.477,0,0,1-.01.21h-4.82c.07-.07.15-.14.22-.21Z"/><line class="cls-5" x1="353.61" y1="529.48" x2="351.99" y2="530.09"/><line class="cls-5" x1="353.61" y1="529.48" x2="351.99" y2="530.09"/><path class="cls-5" d="M449.712,548.443c-10-.015-19.993-.149-29.99.044-3.119.06-4.129-.49-4.1-3.921.163-21.226.029-42.453,0-63.679-.342-.193-.609-.193-.773,0-.148-.015-.3-.044-.46-.059-.045,0-.1-.015-.149-.015-.742,0-1.485,0-2.243.015a.521.521,0,0,0-.133-.06.5.5,0,0,0-.3-.029,2.132,2.132,0,0,0-.253-.639,3.007,3.007,0,0,0-.015.728v.742a2.6,2.6,0,0,1,.282-.519.058.058,0,0,0,.045.014,1.927,1.927,0,0,1,0,.416q.022,33.645.03,67.3c0,1.322-.357,2.7.356,3.981q17.8.09,35.635.164C451.614,552.943,449.534,550.166,449.712,548.443Z"/><path class="cls-5" d="M399.388,495.934c-4.561.134-9.136.089-13.711.045-1.678-.015-2.748.119-2.673,2.347.059,2.035.787,2.54,2.644,2.436,2.213-.119,4.441-.03,6.654-.03,2.362.015,4.709-.045,7.056.03,1.574.044,2.54-.208,2.5-2.184C401.809,496.766,401.452,495.875,399.388,495.934Z"/><path class="cls-5" d="M487.545,548.368c-4.56.1-9.135.119-13.71,0-1.9-.044-2.54.55-2.585,2.511-.044,2.257,1.159,2.3,2.778,2.257,2.228-.074,4.456-.029,6.684-.029s4.442-.06,6.67.029c1.678.06,2.718-.1,2.718-2.3C490.1,548.814,489.432,548.324,487.545,548.368Z"/><path class="cls-5" d="M461.046,496.469q-18.939-.045-37.848-.06c-.936,3.372.164,4.486,3.788,4.367,8.9-.267,17.8.06,26.692-.163,3.179-.089,3.8.966,3.788,3.936-.134,20.023-.089,40.046-.03,60.069,0,1.233-.742,2.689.624,3.744.253.044.5.089.743.133.238,0,.475,0,.713-.015a2.69,2.69,0,0,0,2.317-.044v-2.02q-.023-33.132-.1-66.248C461.729,498.95,462.516,497.449,461.046,496.469Z"/><path class="cls-5" d="M410.528,553.478c.015,0,.015.015.03.015s.014.015.029.015v-.03h-.059Z"/><path class="cls-5" d="M607.835,697.522q-19.427-19.49-38.895-38.937c-4.74-4.719-7.235-5.01-11.871-.645-2.37,2.245-3.409,1.58-5.051-.623a32.965,32.965,0,0,0-11.684-10.083c-10.061-5.052-18.294-1.393-20.975,9.521-2.37,9.688-1.352,19.375,1.788,28.626,1.725,5.093.685,8.129-3.1,11.579-6.652,6.05-12.827,12.619-19.167,19.022-5.634,5.675-5.592,8,.166,13.762q17.993,17.992,36.027,35.964c10.727,10.707,11.766,10.644,21.994-1.185,14.926-14.344,29.6-28.916,43.864-43.9,1.31-1.289,2.64-2.557,3.95-3.846l2.37-2.37C615.485,707.064,615.568,705.276,607.835,697.522Zm-82.281-38.958c1.476-6.923,5.467-8.731,11.828-5.571,4.6,2.286,7.879,6.049,10.956,10.04,1,1.289,1.227,2.266-.062,3.555-6.528,6.549-13.014,13.18-20,20.269C525.1,676.962,523.579,667.9,525.554,658.564Zm70.432,58.6c-.271.229-.541.457-.811.707a88.348,88.348,0,0,0-9.189,9.105c-.416.458-.81.894-1.205,1.352q-16.466,15.528-31.994,31.952a1.788,1.788,0,0,0-.478.062,1.1,1.1,0,0,0-.021.457c-6.923,6.133-6.923,6.112-13.783-.769q-17.212-17.276-34.468-34.53c-1.455-1.455-3.139-2.453-.706-4.864,16.464-16.278,32.783-32.722,49.539-49.5,2.765,4.761,3.908,9.521,5.01,14.3.395,1.642-.707,2.432-1.538,3.555-3.368,4.552-2.7,9.812,1.455,12.784A8.644,8.644,0,0,0,570.1,699.5c2.827-4.241,1.6-9.251-3.326-12.411a5.387,5.387,0,0,1-2.828-3.929,47.351,47.351,0,0,0-4.989-14.677c-1.663-3.014.748-3.971,2.12-5.509,1.975-2.224,2.994.021,4.075,1.081,13.118,13.055,26.131,26.215,39.332,39.207,2.225,2.183,1.954,3.451-.187,5.281a65.621,65.621,0,0,0-4.968,5.239,1.82,1.82,0,0,0-.354.041.353.353,0,0,0-.021.146.3.3,0,0,0,.042.145v.021C597.981,715.13,596.963,716.148,595.986,717.167Z"/><path class="cls-5" d="M619.435,713.966a1.264,1.264,0,0,0-2.162,0c-4.511,5.259-9.168,10.539-9.417,17.961-.229,6.278,4.386,10.6,10.872,10.561,6.258-.021,10.166-4.075,10.166-11.746C628.291,724.609,623.988,719.225,619.435,713.966Z"/><path class="cls-5" d="M269.341,849.58c.42-.335.824-.745,1.244-1.068q31.079-23.8,62.067-47.718a4.388,4.388,0,0,1,.379-.255c.212-.128.439-.253.663-.384a4.984,4.984,0,0,0,.6-.4,1.81,1.81,0,0,0,.738-1.771l-.01-.013,0-.022c-.065-.208-.133-.4-.2-.588a3.45,3.45,0,0,0-1.513-2.063,1.641,1.641,0,0,0-.648-.151,2.354,2.354,0,0,0-.737.1,7.389,7.389,0,0,0-2.294,1.326q-7.729,6-15.477,11.98-15.493,11.959-31.024,23.87-7.761,5.962-15.516,11.931c-.365.28-.784.537-1.173.807a6.678,6.678,0,0,0-.55.42c-.084.073-.164.149-.238.226a2.1,2.1,0,0,0-.365.5,1.507,1.507,0,0,0-.164.59,1.89,1.89,0,0,0,.1.708,2.96,2.96,0,0,0,.169.406,5.427,5.427,0,0,0,.616.934c.766.946,1.412,1.266,1.99,1.242a1.967,1.967,0,0,0,.983-.359C269.106,849.756,269.224,849.673,269.341,849.58Z"/><path class="cls-5" d="M327.908,788.186c-2.669-3.366-5.4-6.705-7.816-10.246-1.486-2.2-2.674-2.18-4.875-.936-9.924,5.612-19.966,10.99-29.962,16.455-1.8.283-2.171-1.366-2.838-2.34-3.121-4.669-7.748-8.3-9.616-13.832a5.142,5.142,0,0,1,.236-.752c4.8-9.253,3.4-18.281-3.828-24.454a18.753,18.753,0,0,0-23.469-.8,18.964,18.964,0,0,0-6.01,23.076c3.749,8.321,12.3,12.421,22.129,10.343a3.372,3.372,0,0,1,4.011,1.561c2.708,3.682,5.4,7.374,8.369,10.859,1.916,2.254,1.969,3.7-.281,5.94-7.448,7.376-14.618,15.007-21.872,22.58-.763.81-2.391,1.634-1.351,2.933,3.591,4.511,6.206,9.874,11.035,13.373l.01.013-.013.009.022,0c.258-.035.563.016.755-.131q32.6-25,65.188-50.016C329.409,790.536,328.964,789.534,327.908,788.186Z"/><path class="cls-5" d="M331.436,793.357l-67.47,51.871c.1.151.2.292.313.432l67.405-51.821Z"/><rect class="cls-5" x="260.331" y="825.131" width="84.765" height="0.436" transform="translate(-440.323 355.527) rotate(-37.553)"/><path class="cls-5" d="M363.45,495.19a1.477,1.477,0,0,1-.01.21h-4.82c.07-.07.15-.14.22-.21Z"/><path class="cls-5" d="M450.566,955.785c-3.08-10.53-6.076-21.091-9.3-31.6-.695-2.285-.444-3.222,1.816-4.4,16.139-8.407,18.265-31.6,3.983-42.087l0,0a13.275,13.275,0,0,0-2-1.757,12.08,12.08,0,0,0-2.9-1.517c-.358-.13-.721-.251-1.1-.349a16.792,16.792,0,0,0-2.81-1.258c-10.153-2.586-19.138-.428-26.192,7.431-7.228,8.062-8.78,17.516-4.392,27.4,4.365,9.871,12.367,15.026,23.225,15.145,2.546.02,3.551.688,4.2,3.125,1.964,7.367,4.184,14.664,6.32,21.99,1.133,3.875,2.26,7.761,3.431,11.626.642,2.106,2.13,3.1,4.25,2.438,1.98-.622,2.484-2.234,2.013-4.169C450.953,957.115,450.756,956.456,450.566,955.785ZM419.6,915.247a21.227,21.227,0,1,1,29.251-6.313A21.214,21.214,0,0,1,419.6,915.247Z"/><path class="cls-5" d="M438.4,880.544c-6.791-3.5-17-1.1-21.564,5.1-.595.807-1.964,1.708-.246,2.781,1.216.749,2.123,1.764,3.7-.053,4.378-5.074,9.984-6.348,16.242-3.863,1.523.595,2.352.519,2.857-.831C440.594,881.7,440.59,881.677,438.4,880.544Z"/><path class="cls-5" d="M874.8,897.544h0c.033-.1.132-.214.1-.3a3.648,3.648,0,0,0-.23-.527,1.935,1.935,0,0,0-.284-.414,1.419,1.419,0,0,0-1.068-.448c-.521-.014-1.077.138-1.562.138-29.354-.033-58.708.016-88.062-.083-2.55,0-3.448.681-3.622,2.737-.025.294-.035.616-.033.968.1,22.768.05,45.537.083,68.306a8.688,8.688,0,0,0-.113,1.94,1.4,1.4,0,0,0,.837.957h.016a2.31,2.31,0,0,0,1.15.468,3.553,3.553,0,0,0,.4.03c.134,0,.269,0,.4-.006s.271-.015.4-.024c.27-.019.539-.04.8-.04q43.66.05,87.337.017c.264,0,.532.019.8.036.135.008.27.016.4.02s.269,0,.4,0a2.416,2.416,0,0,0,1.535-.549c.082-.264.165-.527.263-.807.083-4.758.247-9.532.231-14.29C874.966,936.3,874.867,916.922,874.8,897.544Zm-4.955,65.211a6.976,6.976,0,0,1-.181,2.058v.016a.017.017,0,0,1-.017.017,2.661,2.661,0,0,1-1.1,1.037c0,.017,0,.017-.016.017a4.542,4.542,0,0,1-1.383.164c-26.835-.148-53.67-.164-80.5-.23-.263-.066-.543-.132-.807-.2-1.086-1.169-.51-2.6-.527-3.885-.049-18.686-.033-37.355-.049-56.041,0-.905-.066-1.811-.148-2.716l-.1-1.334c.263-.263.527-.527.79-.774.05.083.148.165.132.231a2.281,2.281,0,0,1-.148.477l.346-.345.1.1a.8.8,0,0,0,.181-.378c.066,0,.149.016.215.016.954.083,1.909.181,2.864.231.05,0,.082.016.115,0,.428.033.84.049,1.268.049q36.821.049,73.623.033c1.5,0,2.98.2,4.478.3,1.482.593.824,1.877.824,2.832Q869.845,933.591,869.846,962.755Z"/><path class="cls-5" d="M786.246,962.344v-.429a.142.142,0,0,1-.017-.082C786.229,962,786.246,962.179,786.246,962.344Z"/><path class="cls-5" d="M828.375,910.913c.033-1.976-.543-2.8-2.947-2.371-.806.3-2.963-.445-2.568,2.025.247,1.547-.132,3.688,2.782,3.358C827.733,913.711,828.342,912.921,828.375,910.913Z"/><path class="cls-5" d="M849.629,934.85c-2.4-.823-2.288,1.251-2.585,2.815-.51,2.75,1.96,2.272,3.227,2.568,2.47.61,1.844-1.679,2.19-2.93C853.07,935.031,851.539,934.866,849.629,934.85Z"/><path class="cls-5" d="M805.508,933.7c2.173.658,2.222-1.021,2.4-2.783.313-2.947-2.156-2.469-3.556-2.634-2.387-.3-1.481,2.009-1.811,3.194C801.886,933.829,803.615,933.73,805.508,933.7Z"/><path class="cls-5" d="M847.341,918.436c-.214-1.432-1.7-3.243-3.227-3.21-1.482.033-2.963,1.844-2.98,3.309,0,1.185,1.416,2.47,3.177,3.1C845.1,920.329,847.637,920.346,847.341,918.436Z"/><path class="cls-5" d="M846.468,927.079c.214,1.252.033,3.244,2.5,2.914.922-.773,3.44.511,3.078-1.959-.2-1.366-.066-3.786-2.074-3.7C848.724,924.379,846.007,924.363,846.468,927.079Z"/><path class="cls-5" d="M810.381,944.958c-1.383.033-3.408,1.07-3.392,2.453.017,1.614,1.433,3.589,3.244,3.639,1.267.033,2.305-1.7,3.144-3.095C812.455,946.819,812.011,944.909,810.381,944.958Z"/><path class="cls-5" d="M845.464,943.905c-1.515-.214-2.585,1.794-2.634,3.013-.066,1.679,1.893,2.354,3.177,3.473,1.465-1.037,2.815-2.37,2.931-3.819C849.069,944.7,846.781,944.069,845.464,943.905Z"/><path class="cls-5" d="M808.356,938.916c-.247-1.267.033-3.342-2.848-2.733-.675.494-3.145-.724-2.6,1.927.279,1.333-.346,3.819,2.206,3.441C806.4,941.369,808.833,941.468,808.356,938.916Z"/><path class="cls-5" d="M838.187,950.655c-1.119.247-3.7.576-2.782,2.979.428,1.136.214,3.507,2.436,2.849,1.334-.395,3.178-.774,3.589-2.766C840.2,952.729,840.113,950.227,838.187,950.655Z"/><path class="cls-5" d="M828.26,953.437c-2.272.115-2.535,1.152-2.75,3-.263,2.371,1.054,2.387,2.684,2.239,1.4-.1,3.26.379,2.733-2.156C830.631,955.017,830.861,953.322,828.26,953.437Z"/><path class="cls-5" d="M818.086,951.3c-2.108-.445-2.75,1.942-2.881,3.111-.247,2.256,2.3,2.536,3.737,2.717,2.074.28,1.251-2.239,2.156-3.227C821.263,951.609,819.189,951.527,818.086,951.3Z"/><path class="cls-5" d="M839.109,912.18c-.675-1.893-2.469-2.14-3.885-2.4-2.453-.461-1.828,1.992-2.19,3.111-.757,2.354,1.745,2.256,2.832,2.5C838.121,915.917,837.808,913.283,839.109,912.18Z"/><path class="cls-5" d="M818.81,915.012c.115-1.416-.527-3.671-2.288-3.721a4.524,4.524,0,0,0-3.836,2.717c.691,1.333,1.333,3.045,2.782,3.259C816.851,917.465,818.7,916.428,818.81,915.012Z"/><path class="cls-5" d="M809.047,924.544a3.936,3.936,0,0,0,2.569-3.375,3.516,3.516,0,0,0-3.425-2.848c-1.547.181-2.667,2.189-2.6,3.737C805.656,923.754,807.878,923.639,809.047,924.544Z"/><path class="cls-4" d="M1041.707,394.742l-.448,6.533-5.528-.379.449-6.533Z"/><path class="cls-4" d="M1047.979,383.054l-2.932-.2.27-3.936,2.932.2.175-2.554c.278-4.063,2.674-5.244,6.4-4.989,1.046.072,2.049.182,3.09.338l-.282,4.1a10.4,10.4,0,0,0-1.127-.12c-1.634-.111-2.254.351-2.343,1.649l-.135,1.969,3.35.229-.271,3.937-3.349-.23-1.275,18.594-5.779-.4Z"/><path class="cls-4" d="M1058.037,386.731l.037-.544c.356-5.193,4.036-6.708,8.392-6.41,6.868.471,7.971,3.408,7.692,7.47l-.812,11.852a9.211,9.211,0,0,0,.413,4.4l-5.528-.379a9.446,9.446,0,0,1-.551-2.394l-.084-.006c-1.5,2.254-3.174,2.728-5.938,2.539-4.02-.276-5.209-3.808-5-6.824.29-4.229,2.124-5.828,6.178-6.644l3.326-.656c1.75-.342,2.381-.972,2.485-2.48.117-1.717-.564-2.816-2.491-2.948-1.758-.121-2.761.989-2.882,2.747l-.043.629Zm10.254,5.079a7.155,7.155,0,0,1-2.549.961c-2.379.342-3.377,1.41-3.514,3.419-.119,1.718.412,3.185,1.961,3.291a3.419,3.419,0,0,0,3.8-3.232Z"/><path class="cls-4" d="M1088.875,402.142l-.083-.006a5.478,5.478,0,0,1-5.313,2.623c-4.733-.325-6.673-3.95-6.1-12.326s2.991-11.7,7.724-11.378a5.419,5.419,0,0,1,4.673,3.013l.084.006.649-9.465,5.779.4-2.05,29.9-5.528-.379Zm-3.209-1.693c2.555.175,3.23-2.3,3.566-7.2s.005-7.446-2.549-7.621c-2.513-.173-3.187,2.306-3.523,7.2S1083.153,400.276,1085.666,400.449Z"/><path class="cls-4" d="M1103.747,395.125l-.123,1.8c-.182,2.638.353,5.284,2.488,5.43,1.927.132,2.824-1.279,3.348-4.02l5.192.356c-.567,5.221-3.281,7.98-8.725,7.607-8.376-.575-8.268-7.047-7.883-12.658.413-6.032,1.97-11.563,9.759-11.029,6.743.463,7.94,5.089,7.467,12l-.089,1.3Zm6.141-3.03c.109-3.443-.177-5.4-2.564-5.562-2.3-.158-3.137,2.184-3.281,4.278l-.061.879Z"/><path class="cls-4" d="M1119.239,383.984l5.78.4-1.545,22.531-5.78-.4Zm.529-7.7,5.779.4-.339,4.942-5.779-.4Z"/><path class="cls-4" d="M1130.78,378.3l5.78.4-.443,6.45,3.35.229-.271,3.937-3.349-.23-.835,12.187c-.121,1.758.207,2.5,1.882,2.611a11.607,11.607,0,0,0,1.3,0l-.275,4.021a36.251,36.251,0,0,1-3.786-.007c-4.523-.31-5.266-1.749-4.952-6.314l.883-12.9-2.931-.2.27-3.937,2.932.2Z"/><path class="cls-4" d="M1150.194,395.869a3.174,3.174,0,0,0,3-3.2l.554-8.083c.244-3.56,1.894-5.508,4.741-5.313l3.727.255-.287,4.188-1.256-.086c-1.341-.092-1.73,1.312-1.84,2.9l-.476,6.952c-.169,2.471-1.507,4.189-3.331,4.4l-.006.084c1.778.459,2.869,2.343,2.7,4.813l-.477,6.952c-.109,1.591.085,3.035,1.426,3.127l1.256.086-.287,4.188-3.727-.255c-2.847-.195-4.216-2.351-3.971-5.911l.553-8.082a3.173,3.173,0,0,0-2.529-3.582Z"/><path class="cls-4" d="M1081.864,431.329c6.962.351,8.6,4.629,8.067,12.46-.529,7.706-3.075,11.7-9.692,11.244-6.96-.352-8.6-4.63-8.064-12.461C1072.7,434.866,1075.248,430.875,1081.864,431.329ZM1080.51,451.1c2.345.16,3.257-2.091,3.641-7.7s-.211-7.967-2.556-8.127c-2.848-.2-3.325,3.095-3.642,7.7S1077.662,450.9,1080.51,451.1Z"/><path class="cls-4" d="M1093.805,432.737l5.527.379-.163,2.386.084.006a5.476,5.476,0,0,1,5.312-2.623c4.733.325,6.672,3.95,6.1,12.325s-2.99,11.7-7.723,11.379a5.425,5.425,0,0,1-4.674-3.013l-.083-.006-.649,9.464-5.779-.4Zm7.555,19.284c2.513.171,3.188-2.307,3.524-7.207s.006-7.447-2.507-7.619c-2.555-.175-3.23,2.3-3.565,7.2S1098.806,451.845,1101.36,452.021Z"/><path class="cls-4" d="M1114.229,441.08l.038-.545c.356-5.193,4.037-6.708,8.391-6.409,6.869.471,7.973,3.407,7.694,7.47l-.813,11.851a9.228,9.228,0,0,0,.413,4.4l-5.528-.379a9.5,9.5,0,0,1-.551-2.394l-.084-.006c-1.5,2.253-3.175,2.728-5.937,2.538-4.021-.276-5.209-3.808-5-6.823.29-4.229,2.125-5.829,6.176-6.644l3.328-.656c1.749-.343,2.38-.973,2.484-2.481.117-1.716-.564-2.816-2.491-2.947-1.758-.121-2.76.988-2.881,2.747l-.043.629Zm10.255,5.078a7.157,7.157,0,0,1-2.547.962c-2.379.341-3.378,1.409-3.516,3.419-.117,1.718.412,3.184,1.963,3.29a3.419,3.419,0,0,0,3.8-3.231Z"/><path class="cls-4" d="M1145.181,444.422c.149-2.178-.11-4.552-2.287-4.7-2.848-.2-3.481,2.286-3.837,7.479-.382,5.57-.036,7.907,2.56,8.085,1.927.132,2.917-1.44,3.167-5.084l5.529.379c-.405,5.905-3.1,9.044-9.218,8.625-5.779-.4-8.434-3.4-7.814-12.444.635-9.255,4.623-11.59,9.942-11.225s7.85,3.946,7.486,9.265Z"/><path class="cls-4" d="M1154.491,436.9l5.78.4-1.545,22.531-5.78-.4Zm.529-7.7,5.779.4-.339,4.941-5.779-.4Z"/><path class="cls-4" d="M1166.032,431.209l5.78.4-.443,6.45,3.35.229-.27,3.937-3.349-.23-.836,12.187c-.12,1.759.208,2.5,1.882,2.612a11.853,11.853,0,0,0,1.3,0l-.276,4.021a36.509,36.509,0,0,1-3.785-.007c-4.523-.31-5.266-1.75-4.953-6.315l.884-12.9-2.931-.2.269-3.936,2.932.2Z"/><path class="cls-4" d="M1174.976,464.01a9.158,9.158,0,0,0,1.5.229c2.135.146,3.011-.972,3.316-2.97l-4.778-22.965,6.03.414,2.282,15.808.084.006,4-15.378,5.779.4L1186.3,460.2c-2.544,7.652-3.917,8.651-9.278,8.284l-2.345-.161Z"/><path class="cls-4" d="M1194.564,455.718l5.529.379-.448,6.533-5.529-.379Zm1.048-15.286,5.529.379-.448,6.533-5.528-.379Z"/><path class="cls-4" d="M1219.169,455.258c-.152,3.44.306,5.365,2.943,5.546,2.932.2,3.458-1.951,3.636-4.547.181-2.639-.238-5.108-3.546-5.335l-2.012-.137.27-3.937,1.97.135c2.512.172,3.589-2.026,3.755-4.455.189-2.764-.654-3.958-2.623-4.093-2.6-.178-3.195,1.8-3.387,4.607l-5.528-.379c.4-5.822,3.7-8.541,9.31-8.156,5.36.368,8.381,2.973,8.022,8.208-.245,3.559-2.123,5.787-4.972,6.223l-.006.084c3.77.847,5.054,3.628,4.8,7.355-.273,3.978-2.251,8.892-10.46,8.33-5.736-.394-8.346-4.065-7.958-9.719l.009-.126Z"/><path class="cls-4" d="M1244.146,435.891c7.161.491,9.03,4.532,8.309,15.044-.566,8.25-1.547,15.8-10.383,15.193-7.161-.491-9.029-4.532-8.308-15.044C1234.326,442.876,1235.31,435.285,1244.146,435.891Zm-4.441,16.9c-.512,7.455.041,9.218,2.638,9.4,2.637.181,3.427-2.122,3.949-9.743l.222-3.225c.51-7.454-.042-9.218-2.638-9.4-2.639-.182-3.428,2.121-3.95,9.743Z"/><path class="cls-4" d="M1261.61,437.088c5.193.356,6.105,3.028,5.734,8.43s-1.638,7.924-6.83,7.568-6.1-3.027-5.733-8.429S1256.417,436.732,1261.61,437.088Zm15.5.349,3.728.255-19.175,30.494-3.727-.255ZM1260.731,449.9c1.676.115,1.958-1.549,2.185-4.858.2-2.973.152-4.66-1.523-4.775s-1.958,1.549-2.163,4.522C1259,448.1,1259.057,449.789,1260.731,449.9Zm17.66,2.641c5.193.356,6.1,3.027,5.733,8.429s-1.637,7.924-6.83,7.568-6.1-3.027-5.733-8.429S1273.2,452.189,1278.391,452.545Zm-.878,12.814c1.675.116,1.957-1.548,2.184-4.857.2-2.973.151-4.66-1.524-4.775s-1.959,1.549-2.162,4.523C1275.783,463.558,1275.837,465.245,1277.513,465.359Z"/><path class="cls-4" d="M1292.987,462.465l-.373,5.445c-.3,4.439-1.567,7.508-6.077,7.62l.2-2.932c1.484-.151,2.3-1.61,2.4-3.159l.045-.67-2.177-.149.448-6.534Zm1.048-15.285-.447,6.532-5.528-.379.447-6.532Z"/><path class="cls-4" d="M1027.426,504.852l1.256.086c1.34.092,1.731-1.312,1.84-2.9l.477-6.952c.169-2.471,1.508-4.188,3.33-4.4l.006-.084c-1.776-.458-2.868-2.342-2.7-4.813l.477-6.952c.109-1.591-.087-3.035-1.427-3.127l-1.256-.086.287-4.188,3.726.255c2.849.195,4.216,2.351,3.972,5.911l-.554,8.082a3.175,3.175,0,0,0,2.532,3.582l-.236,3.434a3.175,3.175,0,0,0-3,3.2l-.554,8.083c-.244,3.56-1.892,5.508-4.741,5.313l-3.726-.256Z"/></svg>
