<svg xmlns="http://www.w3.org/2000/svg" width="5526" height="921" viewBox="0 0 5526 921"><defs><style>.cls-1{isolation:isolate;}.cls-2{fill:#353131;}.cls-3{fill:#221e1e;}.cls-11,.cls-4,.cls-7{fill:#fcfdff;}.cls-11,.cls-12,.cls-4{stroke:#c2c1c3;}.cls-11,.cls-12,.cls-4,.cls-5,.cls-6,.cls-7{stroke-miterlimit:10;}.cls-5{fill:#eaeae9;}.cls-5,.cls-6{stroke:#adadad;}.cls-6{fill:#f9f9f9;}.cls-7{stroke:#a0a0a0;}.cls-10,.cls-8,.cls-9{fill:#020101;}.cls-9{opacity:0.58;}.cls-10,.cls-9{mix-blend-mode:multiply;}.cls-10{opacity:0.38;}.cls-11{opacity:0.32;}.cls-12{fill:#f2f2f2;}.cls-13{fill:#4054a3;}</style></defs><title>hat-sprite</title><g class="cls-1"><g id="Layer_1" data-name="Layer 1"><path class="cls-2" d="M854.69,485.16c0,219.44-177.89,397.34-397.34,397.34S60,704.6,60,485.16Z"/><ellipse class="cls-3" cx="457.35" cy="485.16" rx="397.34" ry="103.88"/><rect class="cls-4" x="288.26" y="420.3" width="156.03" height="156.03" transform="translate(75.91 -47.73) rotate(8.31)"/><rect class="cls-4" x="638.31" y="406.53" width="147.41" height="147.41" transform="translate(76.93 -97.92) rotate(8.31)"/><rect class="cls-4" x="76.2" y="392.99" width="147.41" height="147.41" transform="translate(-16.35 5.57) rotate(-2.02)"/><rect class="cls-4" x="312.08" y="359.65" width="147.41" height="147.41" transform="translate(15.57 -13.38) rotate(2.03)"/><rect class="cls-4" x="421.13" y="359.65" width="147.41" height="147.41" transform="translate(67.87 -67) rotate(8.31)"/><rect class="cls-4" x="504.12" y="380.64" width="147.41" height="147.41" transform="translate(16.43 -20.16) rotate(2.03)"/><rect class="cls-4" x="383.64" y="461.6" width="147.41" height="147.41" transform="matrix(1, -0.04, 0.04, 1, -18.58, 16.45)"/><rect class="cls-5" x="183.28" y="391.81" width="162.92" height="162.92" transform="matrix(0.96, -0.29, 0.29, 0.96, -125.62, 96.85)"/><path class="cls-6" d="M366.28,527.67,210.33,574.81,163.19,418.86l150.15-34.6Q339.82,456,366.28,527.67Z"/><rect class="cls-7" x="523.45" y="435.49" width="162.92" height="162.92" transform="translate(370.63 1277.38) rotate(-113.39)"/><path class="cls-7" d="M647.33,409.84,712,559.37,562.49,624.05l-51.57-145.2Z"/><path class="cls-8" d="M60,485.16a65.76,65.76,0,0,0-10.39,23.18,67.77,67.77,0,0,0,3.44,40.16c59.49,36.75,210.46,119,418.77,115.88,191.05-2.85,330-76,390.09-112.44,2.7-6.44,9-24,3.44-44.75a66.35,66.35,0,0,0-10.67-22,937,937,0,0,1-380.56,88.58C282.37,577.18,135.6,520.6,60,485.16Z"/><path class="cls-9" d="M67.16,479.52A66.35,66.35,0,0,0,57,502.7a68.82,68.82,0,0,0,3.38,40.16c58.47,36.75,206.82,119,411.52,115.88,187.75-2.85,324.24-76,383.34-112.44,2.66-6.44,8.88-24,3.38-44.75a67,67,0,0,0-10.48-22c-72.44,34.59-203.45,85.47-374,88.58C285.67,571.54,141.44,515,67.16,479.52Z"/><path class="cls-10" d="M76.07,499.39a67.23,67.23,0,0,0-10,23.18,70.27,70.27,0,0,0,3.31,40.16c57.15,36.74,202.18,119,402.28,115.87,183.53-2.84,317-76,374.73-112.43,2.6-6.44,8.69-24,3.31-44.75a67.33,67.33,0,0,0-10.25-22C768.66,534,640.6,584.86,473.89,588,289.68,591.41,148.69,534.83,76.07,499.39Z"/></g><g id="Layer_2" data-name="Layer 2"><rect class="cls-5" x="1282.98" y="320.24" width="210.52" height="210.52" transform="translate(-63.73 419.9) rotate(-16.82)"/><path class="cls-6" d="M1519.45,495.8l-201.51,60.91L1257,355.2l194-44.71Z"/></g><g id="Layer_3" data-name="Layer 3"><rect class="cls-5" x="2163.58" y="187.12" width="242.44" height="255.12" transform="translate(6.69 674.59) rotate(-16.82)"/><path class="cls-6" d="M2418.58,483.12l-210.19-11.95-75.09-248L2335,218Q2376.79,350.55,2418.58,483.12Z"/></g><g id="Layer_4" data-name="Layer 4"><path class="cls-5" d="M3356.77,394.24l-230.11,34.52-93.75-296,215.71-95.17Z"/><path class="cls-6" d="M3345.27,467.88l-218.61-39.12q-46.17-150.19-92.35-300.38l223.08,25Q3301.33,310.65,3345.27,467.88Z"/></g><g id="Layer_5" data-name="Layer 5"><path class="cls-4" d="M4439.5,535l-583,5c16.93-96.48,25-132.31,28-134,.21-.12,2.4-1.23,2.48-2.89s-2.29-3.17-2.48-3.3c-3-2.05-16.31-57.08-45-192.79l578-2c-36.86,133.16-52.69,188.45-53.72,189.05l-.22.13c-.67.42-2.63,1.71-2.39,2.72.2.84,1.81,1.14,2.32,1.22l.16,0C4364.49,398.25,4386.76,438.25,4439.5,535Z"/><path class="cls-11" d="M4361.17,396.9,3887,403.09Z"/><polygon class="cls-12" points="4361.5 397 4439.5 535 3856.5 540 3886.5 400 4361.5 397"/><path class="cls-13" d="M4209.09,283.76l-72.37-1.47-72.12-1.46-40.68-.83a2.57,2.57,0,0,0-2.41,1.84q-12.95,37-25.1,74.23-3.43,10.51-6.79,21a2.53,2.53,0,0,0,3.08,3.08q15.89-3.6,31.85-6.79c16.07-3.21,32.2-6.11,48.41-8.53a471.27,471.27,0,0,1,50.09-5.19,187.69,187.69,0,0,1,21.48.19c1.58.12,3.15.27,4.72.45l1,.12c.67.09-.55-.07.11,0l.58.08c.74.11,1.49.23,2.23.36a51.3,51.3,0,0,1,7.43,1.82c.53.18,1.05.37,1.57.57.19.07,1.12.48.35.13l.78.35a21.89,21.89,0,0,1,2.69,1.48l.53.35c.17.13.86.69.18.12.33.28.67.55,1,.85a12.25,12.25,0,0,1,.87.9c.16.18.59.85.1.1.12.17.25.34.36.51a63,63,0,0,1,4.33,7.68,36.39,36.39,0,0,1,3.89,11.18c-.07-.54,0,.23,0,.28,0,.23,0,.46,0,.68,0,.37,0,.73,0,1.09,0,.12-.12.78,0,.15a3.71,3.71,0,0,1-.1.48l-.13.46c-.18.66.09-.07-.1.25-.1.16-.18.31-.28.46,0-.07.36-.39.05-.09a6.44,6.44,0,0,1-1.21,1,16.72,16.72,0,0,0-3.09,2.08,3.08,3.08,0,0,0-.65,3.72c.75,1.29,2.16,1.57,3.53,1.62.44,0,1.21,0,1.45,0,.63.09.63.33.3-.06.13.16.35.48,0-.09a2.4,2.4,0,0,1,.23.38c.16.39,0-.11-.05-.16.08.22.15.44.21.67s.08.38.11.57c.13.66,0-.55,0,.16,0,.39.05.77.06,1.15a24.75,24.75,0,0,1-.2,3.22,56,56,0,0,1-1.43,7.09,94.33,94.33,0,0,1-5.16,15c-9.09,20.4-26.29,36.76-45.27,48a157.4,157.4,0,0,1-29.13,13,164,164,0,0,1-27,7.11,91.09,91.09,0,0,1-32.39-.07,68.68,68.68,0,0,1-31.84-15.52c-13.77-12-22.15-28.79-26-46.37-.48-2.17-.88-4.34-1.22-6.53a2.51,2.51,0,0,0-3.07-1.75,2.56,2.56,0,0,0-1.75,3.08c2.28,14.86,7.75,29.57,16.56,41.81a76,76,0,0,0,25.77,22.88,78,78,0,0,0,33.95,8.81c19,.69,37.35-4.55,55-11,22.51-8.23,43.4-22.09,58.36-41a95.77,95.77,0,0,0,15.37-27.43,81.45,81.45,0,0,0,4.07-15.34c.5-3.43,1.27-8.44-1.49-11.19a5.12,5.12,0,0,0-2.9-1.36,15.22,15.22,0,0,0-1.9-.16c-.27,0-.57,0-.84,0l-.25,0a1.44,1.44,0,0,1,1.27.82l.34,1.26-.27.9c-.23.28-.24.32,0,.11l-.13.11.45-.3c.53-.33,1.08-.64,1.6-1a9.59,9.59,0,0,0,2.95-2.68,9.21,9.21,0,0,0,1.32-5.41c-.14-4.5-1.95-8.89-3.81-12.93-2.26-4.89-4.76-10.3-9.25-13.54-4-2.92-9.18-4.32-14-5.22a118.28,118.28,0,0,0-20.32-1.73c-17.1-.18-34.23,1.62-51.16,3.87-17.68,2.34-35.27,5.34-52.78,8.71q-18.53,3.58-37,7.72l-2.61.59,3.07,3.07q11.94-37.4,24.7-74.54,3.57-10.38,7.19-20.74l-2.41,1.84,72.37,1.47,72.13,1.47,40.67.82c3.22.07,3.22-4.93,0-5Z"/></g><g id="Layer_6" data-name="Layer 6"><path class="cls-4" d="M5288,764.5H4800.27c2.54-260.83,5.45-374.56,8.59-376.38.13-.07,2.4-1.2,2.48-2.89s-2.34-3.21-2.48-3.3c-3.13-2.1-6-103.8-8.59-339.43H5288c3.78,232.38,3.45,331.63.19,333.68-.13.09-2.89,1.66-2.61,2.86.24,1,2.38,1.22,2.48,1.24C5291.17,380.8,5291.63,491.39,5288,764.5Z"/><line class="cls-11" x1="4811.34" y1="385.23" x2="5285.56" y2="379.04"/><path class="cls-13" d="M5135.24,215l-78.49-1.59-78.87-1.6-44.26-.9a2.53,2.53,0,0,0-2.5,2.5q.38,72.15-5.63,144.15-1.69,20.28-3.9,40.51c-.21,2,2.25,3,3.76,2.16a442.94,442.94,0,0,1,65.33-29A450.54,450.54,0,0,1,5060.1,353a441.73,441.73,0,0,1,71.11-6.88c5.56-.08,11.66-.66,17,1,5.22,1.63,8.21,6.24,10.76,10.75,5.92,10.45,11.69,21.1,16.2,32.24a108.9,108.9,0,0,1,8.24,34.05,111,111,0,0,1-3.31,33.57c-5.63,22.61-16.92,43.42-29.61,62.8-6.34,9.69-13,19.21-20.13,28.37-6.84,8.84-14.45,17.42-23.84,23.61-18.47,12.19-41.24,13.81-62.75,13-10.58-.39-21.23-1.12-31.74-2.44-9.27-1.16-18.85-3.13-27-7.87-8.43-4.91-13.5-12.6-16.22-21.84s-3.6-19.29-7-28.51a41.74,41.74,0,0,0-6.82-12.27c-2-2.49-5.55,1.06-3.53,3.54,6.3,7.75,8,18.08,9.9,27.58,2,9.81,4.44,19.76,11.07,27.57,13.27,15.59,36.52,16.83,55.41,18.28,22.27,1.72,45.89,2.74,67.1-5.52a79.33,79.33,0,0,0,28-18.87c8.14-8.35,15-17.92,21.75-27.39,14-19.64,26.93-40.37,35.33-63.08,8.19-22.16,11.24-46.16,5.42-69.29-3-12-8.09-23.43-13.74-34.41-2.8-5.44-5.71-10.84-8.76-16.15-2.7-4.72-6-9.37-11.14-11.65-5.31-2.37-11.3-2.17-17-2.13q-9.22.07-18.46.52-18.44.9-36.77,3.34a451.47,451.47,0,0,0-140.74,42.63q-8.15,4-16.1,8.34l3.76,2.16q7.8-71.73,9.24-144,.41-20.35.29-40.7l-2.5,2.5,78.49,1.59,78.86,1.6,44.27.9c3.21.07,3.21-4.93,0-5Z"/></g></g></svg>
