<svg xmlns="http://www.w3.org/2000/svg" width="841.89" height="659.6" viewBox="0 0 841.89 659.6"><defs><style>.cls-1{fill:#8bd6ed;}.cls-2{fill:#fdfefe;}.cls-3{fill:#231f20;}.cls-4{fill:#f9f9fa;}.cls-5{fill:#eb4a44;}</style></defs><title>Asset 9</title><g id="Layer_2" data-name="Layer 2"><g id="Layer_1-2" data-name="Layer 1"><rect class="cls-1" width="841.89" height="659.6"/><rect class="cls-2" x="89.57" y="299.47" width="77.88" height="95.58"/><path class="cls-3" d="M135.84,316.28l15.57,58.83H139.05l-2.71-12.44H120.68L118,375.11H105.6l15.58-58.83ZM134.28,353l-5.69-26.45h-.16L122.74,353Z"/><rect class="cls-4" x="167.45" y="316.29" width="275.8" height="93.81"/><path class="cls-3" d="M225.9,332.21l6.51,43.51h.16l6.92-43.51h11.38l6.92,43.51H258l6.51-43.51h11.37L265.12,391H251.85l-6.59-42.68h-.16L238.51,391H225.24l-10.71-58.83Z"/><path class="cls-3" d="M313.48,341.94h-21v13.84h19.78v9.72H292.47v15.82h21.84V391h-33.7V332.21h32.87Z"/><path class="cls-3" d="M353.11,341.94h-21v13.84h19.78v9.72H332.1v15.82h21.84V391h-33.7V332.21h32.87Z"/><path class="cls-3" d="M371.73,355.78h.17l15-23.57h12.86l-16,25.22L401.56,391H388.21L376.1,366.9l-4.37,6.68V391H359.87V332.21h11.86Z"/><rect class="cls-2" x="443.25" y="306.99" width="122.13" height="95.58"/><path class="cls-3" d="M494.7,323.81l15.57,58.83H497.91l-2.72-12.45H479.54l-2.72,12.45H464.46L480,323.81Zm-1.57,36.66L487.45,334h-.17l-5.68,26.45Z"/><path class="cls-3" d="M544.3,333.53H531.45v49.11H519.58V333.53H506.73v-9.72H544.3Z"/><rect class="cls-2" x="564.37" y="323.81" width="189.46" height="95.58"/><path class="cls-3" d="M611,364.19h.17l15-23.57H639l-16,25.21,17.8,33.62H627.45l-12.11-24.14L611,382v17.47H599.11V340.62H611Z"/><path class="cls-3" d="M676.23,350.34h-21v13.85H675v9.72H655.22v15.82h21.83v9.72h-33.7V340.62h32.88Z"/><path class="cls-3" d="M709.1,340.62l15.57,58.83H712.32L709.6,387H693.94l-2.72,12.44H678.86l15.58-58.83Zm-1.56,36.67-5.69-26.45h-.16L696,377.29Z"/><rect class="cls-5" x="124.84" y="420.09" width="630" height="81.95"/><path class="cls-3" d="M157.12,440.81l4.79,23.69h.1l4.84-23.69h10v33.56h-6.2V447.58h-.1l-6,26.79h-5.26l-6-26.79h-.09v26.79h-6.21V440.81Z"/><path class="cls-3" d="M188.05,464.22a15.23,15.23,0,0,0,.16,2.33,5.26,5.26,0,0,0,.61,1.83A3.32,3.32,0,0,0,190,469.6a4.52,4.52,0,0,0,3.93,0,3.34,3.34,0,0,0,1.2-1.22,5.48,5.48,0,0,0,.61-1.83,15.23,15.23,0,0,0,.16-2.33V440.81h6.77v23.41a13.68,13.68,0,0,1-.89,5.29,8.5,8.5,0,0,1-2.4,3.31,8.17,8.17,0,0,1-3.43,1.65,18.78,18.78,0,0,1-4,.42,20.85,20.85,0,0,1-4-.38,8,8,0,0,1-3.43-1.53,7.83,7.83,0,0,1-2.4-3.26,14.4,14.4,0,0,1-.89-5.5V440.81h6.77Z"/><path class="cls-3" d="M207,440.81h6.77v28h12v5.54H207Z"/><path class="cls-3" d="M244,446.36h-7.34v28h-6.76v-28h-7.34v-5.55H244Z"/><path class="cls-3" d="M247.22,440.81H254v33.56h-6.77Z"/><path class="cls-3" d="M269.21,440.81,274,464.5h.09l4.84-23.69h10v33.56h-6.2V447.58h-.09l-6,26.79h-5.27l-6-26.79h-.09v26.79h-6.2V440.81Z"/><path class="cls-3" d="M312.55,446.36h-12v7.9h11.28v5.54H300.56v9H313v5.54H293.79V440.81h18.76Z"/><path class="cls-3" d="M327.82,440.81a12.08,12.08,0,0,1,5.69,1.16,8.13,8.13,0,0,1,3.36,3.29,14.53,14.53,0,0,1,1.62,5.14,49,49,0,0,1,.42,6.72,47.79,47.79,0,0,1-.54,7.69,14.85,14.85,0,0,1-1.85,5.38,8.2,8.2,0,0,1-3.53,3.15,13.17,13.17,0,0,1-5.59,1H316.73V440.81Zm-1.31,28.58a5.76,5.76,0,0,0,2.86-.61,4.2,4.2,0,0,0,1.72-2,12.18,12.18,0,0,0,.85-3.72q.21-2.3.21-5.73c0-1.91-.07-3.59-.19-5a12.54,12.54,0,0,0-.78-3.59,4.47,4.47,0,0,0-1.74-2.17,5.72,5.72,0,0,0-3.07-.72H323.5v23.59Z"/><path class="cls-3" d="M343.71,440.81h6.77v33.56h-6.77Z"/><path class="cls-3" d="M370.4,440.81l8.89,33.56h-7.05l-1.55-7.1h-8.93l-1.56,7.1h-7L362,440.81Zm-.89,20.92-3.24-15.09h-.1l-3.24,15.09Z"/><path class="cls-3" d="M404.34,440.81A12,12,0,0,1,410,442a8.07,8.07,0,0,1,3.36,3.29A14.73,14.73,0,0,1,415,450.4a49,49,0,0,1,.42,6.72,47.79,47.79,0,0,1-.54,7.69,14.66,14.66,0,0,1-1.86,5.38,8.12,8.12,0,0,1-3.52,3.15,13.25,13.25,0,0,1-5.6,1H393.24V440.81ZM403,469.39a5.8,5.8,0,0,0,2.87-.61,4.18,4.18,0,0,0,1.71-2,11.61,11.61,0,0,0,.85-3.72q.21-2.3.21-5.73c0-1.91-.06-3.59-.19-5a12.23,12.23,0,0,0-.77-3.59,4.47,4.47,0,0,0-1.74-2.17,5.78,5.78,0,0,0-3.08-.72H400v23.59Z"/><path class="cls-3" d="M438.65,446.36h-12v7.9h11.28v5.54H426.66v9h12.46v5.54H419.89V440.81h18.76Z"/><path class="cls-3" d="M448,464.88a10.92,10.92,0,0,0,.19,2.14,3.75,3.75,0,0,0,.71,1.62,3.39,3.39,0,0,0,1.38,1,5.55,5.55,0,0,0,2.19.38,4.33,4.33,0,0,0,2.79-1,3.81,3.81,0,0,0,1.25-3.13,5.47,5.47,0,0,0-.31-2,3.81,3.81,0,0,0-1-1.48,7.22,7.22,0,0,0-1.85-1.2,25.7,25.7,0,0,0-2.85-1.1,24.07,24.07,0,0,1-3.9-1.65,10.55,10.55,0,0,1-2.75-2.09,7.64,7.64,0,0,1-1.62-2.77,11.84,11.84,0,0,1-.52-3.64c0-3.33.93-5.8,2.78-7.43a11.1,11.1,0,0,1,7.61-2.44,16.54,16.54,0,0,1,4.16.49,8.64,8.64,0,0,1,3.29,1.6,7.35,7.35,0,0,1,2.16,2.82,9.85,9.85,0,0,1,.78,4.11v.94h-6.49a6.76,6.76,0,0,0-.84-3.69,3.13,3.13,0,0,0-2.82-1.29,4.66,4.66,0,0,0-1.88.33,3.06,3.06,0,0,0-1.2.87,3,3,0,0,0-.61,1.24,6.41,6.41,0,0,0-.17,1.46,4.86,4.86,0,0,0,.66,2.61,6,6,0,0,0,2.82,2l5.22,2.25a16.67,16.67,0,0,1,3.15,1.77,8.85,8.85,0,0,1,2,2,6.74,6.74,0,0,1,1,2.33,13.47,13.47,0,0,1,.28,2.82q0,5.31-3.08,7.73t-8.58,2.42q-5.73,0-8.2-2.49c-1.64-1.66-2.47-4-2.47-7.15v-1.36H448Z"/><path class="cls-3" d="M467.22,440.81H474v33.56h-6.77Z"/><path class="cls-3" d="M493.71,448.85A6.33,6.33,0,0,0,493,447a4.51,4.51,0,0,0-1.2-1.36,2.91,2.91,0,0,0-1.77-.54q-2.44,0-3.52,2.72t-1.08,9c0,2,.06,3.82.19,5.45a20.61,20.61,0,0,0,.68,4.16,6,6,0,0,0,1.41,2.63,3.21,3.21,0,0,0,2.37.92,3.28,3.28,0,0,0,1.34-.33,4.34,4.34,0,0,0,1.36-1,5.15,5.15,0,0,0,1.06-1.67,6.12,6.12,0,0,0,.42-2.37v-3.43h-4.46v-5h10.95v18.09h-5v-3.1h-.1a7.1,7.1,0,0,1-2.93,2.8,9.61,9.61,0,0,1-4.12.82,10.39,10.39,0,0,1-5-1.08,7.37,7.37,0,0,1-3.05-3.34,16.91,16.91,0,0,1-1.48-5.57,66.73,66.73,0,0,1-.38-7.68,45.1,45.1,0,0,1,.54-7.43,14.73,14.73,0,0,1,1.86-5.33,8.36,8.36,0,0,1,3.48-3.22,12,12,0,0,1,5.4-1.08q5.55,0,8,2.74c1.63,1.84,2.44,4.46,2.44,7.88h-6.48A9.26,9.26,0,0,0,493.71,448.85Z"/><path class="cls-3" d="M521.13,463.8h.09v-23h6.21v33.56h-7.71l-8.27-23.5h-.1v23.5h-6.2V440.81H513Z"/><path class="cls-3" d="M555.25,440.81a9.8,9.8,0,0,1,4.35.87,8,8,0,0,1,2.84,2.28,8.92,8.92,0,0,1,1.55,3.22,14.36,14.36,0,0,1,.47,3.69,12.13,12.13,0,0,1-.77,4.51,8.19,8.19,0,0,1-2.16,3.15,9.12,9.12,0,0,1-3.36,1.84,15.05,15.05,0,0,1-4.38.61h-3.61v13.39h-6.77V440.81ZM553.18,456a4.44,4.44,0,0,0,3.27-1.22,5.11,5.11,0,0,0,1.25-3.8,6,6,0,0,0-1.09-3.86A4.41,4.41,0,0,0,553,445.8h-2.82V456Z"/><path class="cls-3" d="M580.3,440.81a9.44,9.44,0,0,1,6.58,2.14q2.36,2.15,2.35,6.51a10.08,10.08,0,0,1-1.36,5.52,6.28,6.28,0,0,1-4.23,2.75v.1a6.14,6.14,0,0,1,3.71,1.64,7,7,0,0,1,1.46,4.09c.06.63.11,1.31.14,2.05s.06,1.56.09,2.46c.07,1.79.16,3.15.29,4.09a2.59,2.59,0,0,0,1.22,1.93v.28h-7.33a3.53,3.53,0,0,1-.66-1.62,16.52,16.52,0,0,1-.19-1.9l-.19-6.44a5.29,5.29,0,0,0-1-3.1,3.6,3.6,0,0,0-3-1.13h-3.62v14.19H567.8V440.81Zm-2.91,14.67a5.58,5.58,0,0,0,3.76-1.15c.88-.77,1.31-2.06,1.31-3.88,0-3.1-1.56-4.65-4.7-4.65h-3.19v9.68Z"/><path class="cls-3" d="M593.58,450.57a15.49,15.49,0,0,1,1.55-5.53,8.71,8.71,0,0,1,3.45-3.59,14.9,14.9,0,0,1,12.13,0,8.73,8.73,0,0,1,3.46,3.59,15.92,15.92,0,0,1,1.55,5.53,70.88,70.88,0,0,1,0,14.07,15.81,15.81,0,0,1-1.55,5.5,8.3,8.3,0,0,1-3.46,3.53,15.69,15.69,0,0,1-12.13,0,8.28,8.28,0,0,1-3.45-3.53,15.39,15.39,0,0,1-1.55-5.5,70.88,70.88,0,0,1,0-14.07Zm6.58,12.78a15.86,15.86,0,0,0,.66,3.85,4.33,4.33,0,0,0,1.41,2.17,4.65,4.65,0,0,0,4.84,0,4.33,4.33,0,0,0,1.41-2.17,15.86,15.86,0,0,0,.66-3.85c.11-1.58.16-3.5.16-5.76s0-4.16-.16-5.73a16.32,16.32,0,0,0-.66-3.86,4.28,4.28,0,0,0-1.41-2.18,4.65,4.65,0,0,0-4.84,0,4.28,4.28,0,0,0-1.41,2.18,16.32,16.32,0,0,0-.66,3.86c-.11,1.57-.17,3.48-.17,5.73S600.05,461.77,600.16,463.35Z"/><path class="cls-3" d="M634.75,448.85a6.33,6.33,0,0,0-.68-1.81,4.25,4.25,0,0,0-1.2-1.36,2.88,2.88,0,0,0-1.76-.54q-2.45,0-3.53,2.72t-1.08,9c0,2,.07,3.82.19,5.45a21.34,21.34,0,0,0,.68,4.16,6,6,0,0,0,1.41,2.63,3.27,3.27,0,0,0,3.71.59,4.38,4.38,0,0,0,1.37-1,5.5,5.5,0,0,0,1.06-1.67,6.12,6.12,0,0,0,.42-2.37v-3.43h-4.47v-5h11v18.09h-5v-3.1h-.09a7.19,7.19,0,0,1-2.94,2.8,9.53,9.53,0,0,1-4.11.82,10.36,10.36,0,0,1-5.05-1.08,7.45,7.45,0,0,1-3.06-3.34,16.91,16.91,0,0,1-1.48-5.57,69.28,69.28,0,0,1-.37-7.68,44,44,0,0,1,.54-7.43,14.54,14.54,0,0,1,1.85-5.33,8.48,8.48,0,0,1,3.48-3.22,12,12,0,0,1,5.4-1.08q5.55,0,8,2.74c1.63,1.84,2.45,4.46,2.45,7.88H635A9.26,9.26,0,0,0,634.75,448.85Z"/><path class="cls-3" d="M658.7,440.81a9.46,9.46,0,0,1,6.58,2.14c1.56,1.43,2.35,3.6,2.35,6.51a10.08,10.08,0,0,1-1.37,5.52,6.23,6.23,0,0,1-4.23,2.75v.1a6.18,6.18,0,0,1,3.72,1.64,7,7,0,0,1,1.45,4.09c.07.63.11,1.31.15,2.05s.06,1.56.09,2.46c.06,1.79.16,3.15.28,4.09a2.65,2.65,0,0,0,1.22,1.93v.28h-7.33a3.76,3.76,0,0,1-.66-1.62c-.09-.61-.15-1.25-.18-1.9l-.19-6.44a5.29,5.29,0,0,0-1-3.1,3.6,3.6,0,0,0-3-1.13H653v14.19H646.2V440.81Zm-2.92,14.67a5.56,5.56,0,0,0,3.76-1.15,4.93,4.93,0,0,0,1.32-3.88q0-4.65-4.7-4.65H653v9.68Z"/><path class="cls-3" d="M687.23,440.81l8.88,33.56h-7.05l-1.55-7.1h-8.93l-1.55,7.1h-7l8.88-33.56Zm-.9,20.92-3.24-15.09H683l-3.25,15.09Z"/><path class="cls-3" d="M708.66,440.81l4.79,23.69h.1l4.84-23.69h10v33.56h-6.21V447.58h-.09l-6,26.79h-5.26l-6-26.79h-.1v26.79h-6.2V440.81Z"/><rect class="cls-4" x="118.91" y="134.49" width="396.17" height="92.81"/><path class="cls-3" d="M158.15,150.42l6.63,44.35H165L172,150.42H183.6l7.06,44.35h.16l6.64-44.35h11.59l-10.92,60H184.61l-6.72-43.51h-.17L171,210.4H157.47l-10.92-60Z"/><path class="cls-3" d="M247.44,160.33H226v14.11h20.16v9.92H226v16.12h22.26v9.92H213.92v-60h33.52Z"/><path class="cls-3" d="M254.33,150.42h12.09v50.06h21.42v9.92H254.33Z"/><path class="cls-3" d="M317.28,161.13q-1.54-3-5.67-3a5.64,5.64,0,0,0-3.73,1.22,8,8,0,0,0-2.31,3.95,32.78,32.78,0,0,0-1.18,7.13c-.23,3-.34,6.54-.34,10.8a104,104,0,0,0,.47,11,24.33,24.33,0,0,0,1.42,6.51,6,6,0,0,0,2.44,3.11,7,7,0,0,0,3.4.8,7.93,7.93,0,0,0,3-.55,5,5,0,0,0,2.4-2.18,14.18,14.18,0,0,0,1.59-4.62,42.32,42.32,0,0,0,.59-7.85h12.1a53.48,53.48,0,0,1-.76,9.23,20.9,20.9,0,0,1-2.81,7.65,14.06,14.06,0,0,1-5.8,5.12,22,22,0,0,1-9.7,1.85q-6.81,0-10.84-2.18a14.83,14.83,0,0,1-6.17-6.3,27.76,27.76,0,0,1-2.77-9.83,125.92,125.92,0,0,1,0-25.16,27.86,27.86,0,0,1,2.77-9.87,15.58,15.58,0,0,1,6.17-6.42q4-2.31,10.84-2.32,6.47,0,10.2,2.11a14.19,14.19,0,0,1,5.59,5.33,18.58,18.58,0,0,1,2.31,7,56.9,56.9,0,0,1,.46,7H318.84Q318.84,164.12,317.28,161.13Z"/><path class="cls-3" d="M337.7,167.85a27.86,27.86,0,0,1,2.77-9.87,15.45,15.45,0,0,1,6.17-6.42q4-2.31,10.84-2.32t10.83,2.32a15.54,15.54,0,0,1,6.18,6.42,28.07,28.07,0,0,1,2.77,9.87,125.92,125.92,0,0,1,0,25.16,28,28,0,0,1-2.77,9.83,14.79,14.79,0,0,1-6.18,6.3q-4,2.18-10.83,2.18t-10.84-2.18a14.71,14.71,0,0,1-6.17-6.3A27.76,27.76,0,0,1,337.7,193a125.92,125.92,0,0,1,0-25.16Zm11.75,22.85a28.7,28.7,0,0,0,1.18,6.89,7.68,7.68,0,0,0,2.52,3.86,8.28,8.28,0,0,0,8.65,0,7.61,7.61,0,0,0,2.52-3.86,28.7,28.7,0,0,0,1.18-6.89q.28-4.24.29-10.29t-.29-10.25a29.26,29.26,0,0,0-1.18-6.89,7.61,7.61,0,0,0-2.52-3.9,8.28,8.28,0,0,0-8.65,0,7.67,7.67,0,0,0-2.52,3.9,29.26,29.26,0,0,0-1.18,6.89q-.29,4.2-.29,10.25T349.45,190.7Z"/><path class="cls-3" d="M403.26,150.42l8.56,42.34H412l8.66-42.34h17.89v60H427.45V162.52h-.17L416.61,210.4H407.2l-10.66-47.88h-.17V210.4H385.28v-60Z"/><path class="cls-3" d="M480.7,160.33H459.28v14.11h20.16v9.92H459.28v16.12h22.26v9.92H447.19v-60H480.7Z"/><rect class="cls-2" x="308.93" y="221.89" width="134" height="95.58"/><path class="cls-3" d="M370.81,249.43H358v49.11H346.1V249.43H333.24v-9.72h37.57Z"/><path class="cls-3" d="M375.3,256.81a27.53,27.53,0,0,1,2.72-9.69,15.2,15.2,0,0,1,6.06-6.3q3.94-2.26,10.63-2.26t10.63,2.26a15.24,15.24,0,0,1,6.05,6.3,27.33,27.33,0,0,1,2.72,9.69,123,123,0,0,1,0,24.67,27.17,27.17,0,0,1-2.72,9.64,14.49,14.49,0,0,1-6.05,6.18q-4,2.15-10.63,2.14t-10.63-2.14a14.46,14.46,0,0,1-6.06-6.18,27.37,27.37,0,0,1-2.72-9.64,125,125,0,0,1,0-24.67Zm11.54,22.41A27.75,27.75,0,0,0,388,286a7.51,7.51,0,0,0,2.47,3.79,8.11,8.11,0,0,0,8.49,0,7.51,7.51,0,0,0,2.47-3.79,27.75,27.75,0,0,0,1.15-6.75c.2-2.78.29-6.14.29-10.1s-.09-7.3-.29-10.05a28.29,28.29,0,0,0-1.15-6.76,7.59,7.59,0,0,0-2.47-3.83,8.17,8.17,0,0,0-8.49,0,7.59,7.59,0,0,0-2.47,3.83,28.29,28.29,0,0,0-1.15,6.76q-.29,4.13-.29,10.05C386.55,273.08,386.65,276.44,386.84,279.22Z"/></g></g></svg>
