<svg xmlns="http://www.w3.org/2000/svg" width="340.61" height="52.82" viewBox="0 0 340.61 52.82"><path class="cls-1" d="M39,40.05l13.57,4.1a25.12,25.12,0,0,1-4.31,9.54A18.7,18.7,0,0,1,41,59.47a27.43,27.43,0,0,1-11.09,1.94c-5.45,0-9.89-.79-13.35-2.37a21.13,21.13,0,0,1-8.93-8.35q-3.76-6-3.76-15.3,0-12.43,6.61-19.12T29.14,9.6q9.47,0,14.89,3.83t8,11.75L38.41,28.23a11.45,11.45,0,0,0-1.51-3.35,8.79,8.79,0,0,0-3.18-2.74,9.08,9.08,0,0,0-4.2-1,9.11,9.11,0,0,0-8.07,4.24q-2.11,3.13-2.12,9.86,0,8.34,2.53,11.42A8.68,8.68,0,0,0,29,49.79q4.44,0,6.72-2.49A15.58,15.58,0,0,0,39,40.05Z" transform="translate(-3.32 -9.1)"/>
<path class="cls-1" d="M60.14,10.45H75.63V28H92.55V10.45H108.1V60.56H92.55V40.29H75.63V60.56H60.14Z" transform="translate(-3.32 -9.1)"/>
<path class="cls-1" d="M149.19,52.29H131.61l-2.44,8.27H113.36l18.83-50.11h16.89l18.83,50.11H151.7ZM146,41.45l-5.53-18-5.47,18Z" transform="translate(-3.32 -9.1)"/>
<path class="cls-1" d="M173,60.56V10.45h25.8a37.55,37.55,0,0,1,11,1.23,11.63,11.63,0,0,1,6.11,4.57,13.81,13.81,0,0,1,2.33,8.11,13.93,13.93,0,0,1-1.78,7.2,14,14,0,0,1-4.89,4.9,18.46,18.46,0,0,1-5.44,2,15.59,15.59,0,0,1,4,1.85,15.4,15.4,0,0,1,2.48,2.64A19.94,19.94,0,0,1,214.83,46l7.5,14.52h-17.5l-8.28-15.31a11.61,11.61,0,0,0-2.8-3.87A6.51,6.51,0,0,0,190,40.22h-1.37V60.56Zm15.55-29.81h6.53a22.76,22.76,0,0,0,4.1-.68,4.07,4.07,0,0,0,2.51-1.57,4.63,4.63,0,0,0,1-2.91,4.61,4.61,0,0,0-1.54-3.72c-1-.87-2.95-1.3-5.78-1.3h-6.8Z" transform="translate(-3.32 -9.1)"/>
<path class="cls-1" d="M227.28,10.45h15.49V48.22h24.16V60.56H227.28Z" transform="translate(-3.32 -9.1)"/>
<path class="cls-1" d="M274.59,10.45H290.1V60.56H274.59Z" transform="translate(-3.32 -9.1)"/>
<path class="cls-1" d="M301.18,10.45h41.49v10.7h-26v8h24.09V39.33H316.7v9.88h26.72V60.56H301.18Z" transform="translate(-3.32 -9.1)"/></svg>