<svg xmlns="http://www.w3.org/2000/svg" xmlns:xlink="http://www.w3.org/1999/xlink" width="102.32" height="295.67" viewBox="0 0 102.32 295.67"><defs><style>.cls-1{isolation:isolate;}.cls-15,.cls-2{fill:#474744;}.cls-3{fill:#d3b59f;}.cls-4{fill:#ebeff2;}.cls-5,.cls-8{fill:#1a1a1a;}.cls-6{fill:#bbbc94;}.cls-7{fill:#fff;}.cls-8{stroke:#000;}.cls-10,.cls-11,.cls-14,.cls-17,.cls-18,.cls-8,.cls-9{stroke-miterlimit:10;}.cls-14,.cls-17,.cls-18,.cls-8{stroke-width:3px;}.cls-10,.cls-17,.cls-9{fill:none;}.cls-10,.cls-11,.cls-9{stroke:#333;}.cls-9{stroke-width:4px;}.cls-11{fill:#333;}.cls-12{fill:#cc9e92;}.cls-13{fill:url(#radial-gradient);}.cls-14{fill:#7a5346;stroke:#534741;}.cls-15,.cls-20{opacity:0.5;mix-blend-mode:multiply;}.cls-16{fill:#333332;}.cls-17,.cls-18{stroke:#1a1a1a;}.cls-18{fill:#f7a83e;}.cls-19{fill:#6d2321;}.cls-20{fill:#4d4d4d;}</style><radialGradient id="radial-gradient" cx="266.81" cy="178.16" fy="184.64119296402615" r="8.77" gradientUnits="userSpaceOnUse"><stop offset="0.05" stop-color="#997156"/><stop offset="1" stop-color="#462e24"/></radialGradient></defs><title>char-body</title><g class="cls-1"><g id="Layer_1" data-name="Layer 1"><path class="cls-2" d="M262.06,211.13a19.86,19.86,0,0,1-4,13.78,41,41,0,0,0,25.12,0,26.15,26.15,0,0,1-6.16-9.12,25.4,25.4,0,0,1-1.42-5Z" transform="translate(-217.68 -122.05)"/><path class="cls-2" d="M314.81,122.05a86.57,86.57,0,0,0-23.87,23.46A61.33,61.33,0,0,0,266.45,140a60.46,60.46,0,0,0-21.37,4.22h0a53.86,53.86,0,0,0-26.75-18,66.29,66.29,0,0,0-.23,16.62c.88,7.62,3,13.24,1.79,22.53-.33,2.67-.52,2.39-.62,4.06-.11,1.89-.25,8.85,7.95,19.65,3.57,4.7,16.46,21.66,38.38,23.27l.85.05c21.56,1.08,35.91-18.1,38.76-21.91,7.07-9.44,7.43-16.09,7.41-18.56,0-1.09-.08-1.21-.16-2.6-.57-10.58,3.18-18.14,4.64-23.94C318.35,140.33,318.86,132.72,314.81,122.05Z" transform="translate(-217.68 -122.05)"/><path class="cls-3" d="M275.58,177.35a28.18,28.18,0,0,1,4.49,8.19,19.81,19.81,0,0,1,1.25,7.17,11.25,11.25,0,0,1-.78,4.06,10.65,10.65,0,0,1-3.43,4.37,12.69,12.69,0,0,1-1.53-23.79Z" transform="translate(-217.68 -122.05)"/><path class="cls-3" d="M258.26,178.91a27.71,27.71,0,0,0-4,7.64,18.54,18.54,0,0,0-1.25,7.17,11.25,11.25,0,0,0,.78,4.06,10.65,10.65,0,0,0,3.43,4.37,13.2,13.2,0,0,0,1.09-23.24Z" transform="translate(-217.68 -122.05)"/><path class="cls-4" d="M258.42,200.59a8.59,8.59,0,0,0,1.77,2.49,9.16,9.16,0,0,0,5.92,2.34c1.78.16,4.14.37,6.36-1.25a8.67,8.67,0,0,0,3.12-4.82,33.42,33.42,0,0,0-17.17,1.24Z" transform="translate(-217.68 -122.05)"/><path class="cls-4" d="M268.61,192a6.69,6.69,0,0,1,3.51.55c2.56,1.19,4.17,4.09,4.24,7.45a32,32,0,0,1-5.31-.31c-2.74-.39-3.36-.85-3.74-1.25a4.07,4.07,0,0,1-.88-3.79A4.3,4.3,0,0,1,268.61,192Z" transform="translate(-217.68 -122.05)"/><path class="cls-4" d="M264.13,192.3a5.59,5.59,0,0,0-3.51.54c-2.38,1.33-3.56,4.73-2.67,8.37A25.19,25.19,0,0,1,261.7,200c2.11-.53,2.94-.45,3.73-1.22a4,4,0,0,0,.88-3.79A4.3,4.3,0,0,0,264.13,192.3Z" transform="translate(-217.68 -122.05)"/><path class="cls-5" d="M297.35,170a11.63,11.63,0,0,0-7.8-2.34c-5.64.45-8.59,5.11-8.89,5.61a9.62,9.62,0,0,0,4,5.46c2.43,1.51,6.48,2.39,9.67,0A8.41,8.41,0,0,0,297.35,170Z" transform="translate(-217.68 -122.05)"/><path class="cls-5" d="M236.58,169.7a11.58,11.58,0,0,1,7.8-2.34c5.64.46,8.58,5.11,8.89,5.62a9.65,9.65,0,0,1-4.05,5.46c-2.43,1.5-6.48,2.38-9.67,0A8.41,8.41,0,0,1,236.58,169.7Z" transform="translate(-217.68 -122.05)"/><circle class="cls-6" cx="27.01" cy="51.71" r="5.93"/><circle cx="26.96" cy="51.78" r="4.61"/><circle class="cls-7" cx="29.69" cy="48.92" r="1.22"/><circle class="cls-6" cx="72.09" cy="52.23" r="5.93"/><circle cx="72.04" cy="52.29" r="4.61"/><circle class="cls-7" cx="74.76" cy="49.44" r="1.22"/><path class="cls-5" d="M220.42,169.38a12.75,12.75,0,0,1,13.35-6.54,8.6,8.6,0,0,0-5.45,2.81,6.38,6.38,0,0,0-.94,1.56c-.8,1.78-2.55,4.55-6.65,8.9a30.55,30.55,0,0,1-.37-4.22C220.35,171,220.37,170.16,220.42,169.38Z" transform="translate(-217.68 -122.05)"/><path class="cls-5" d="M312.33,170.22A12.75,12.75,0,0,0,299,163.68a8.65,8.65,0,0,1,5.46,2.81,6.58,6.58,0,0,1,.93,1.56c.8,1.78,2.55,4.55,6.65,8.91a30.84,30.84,0,0,0,.37-4.23C312.41,171.84,312.38,171,312.33,170.22Z" transform="translate(-217.68 -122.05)"/><path class="cls-8" d="M222.62,181a10.18,10.18,0,0,0,2.5-2.49c1.86-2.69,1.35-4.86,2.34-6.71.87-1.65,3.1-3.37,9-3.75-.74.54-1.86,1.31-3.27,2.19-2,1.23-2.12,1.15-2.65,1.56-1.73,1.31-1.94,3.38-2.81,9.51-.19,1.34-.51,3.56-.94,6.4a25,25,0,0,1-2-2.65A24.72,24.72,0,0,1,222.62,181Z" transform="translate(-217.68 -122.05)"/><path class="cls-8" d="M310.65,180.81a10.06,10.06,0,0,1-2.49-2.5c-1.87-2.68-1.36-4.85-2.34-6.7-.88-1.65-3.1-3.38-9.05-3.75.75.54,1.87,1.31,3.27,2.19,2,1.23,2.13,1.15,2.66,1.56,1.72,1.31,1.93,3.37,2.8,9.51.19,1.33.51,3.56.94,6.4a24.2,24.2,0,0,0,2-2.66A24.94,24.94,0,0,0,310.65,180.81Z" transform="translate(-217.68 -122.05)"/><path class="cls-5" d="M258,141a12.78,12.78,0,0,0-.47,2.81,12.27,12.27,0,0,0,.32,3.43,3.06,3.06,0,0,0,2,.47,3.21,3.21,0,0,0,1.88-.94,32.71,32.71,0,0,0,.15-3.27c0-1.07-.06-2.06-.15-3a8.35,8.35,0,0,0-1.88,0A8.16,8.16,0,0,0,258,141Z" transform="translate(-217.68 -122.05)"/><path class="cls-5" d="M282.13,142.56a13.45,13.45,0,0,1,0,5.92,3.06,3.06,0,0,1-2,.47,3.14,3.14,0,0,1-1.87-.93c-.1-1-.16-2.1-.16-3.28s.05-2.16.14-3.11a13.45,13.45,0,0,1,1.87.31A16,16,0,0,1,282.13,142.56Z" transform="translate(-217.68 -122.05)"/><path class="cls-5" d="M253,161.28a1.39,1.39,0,0,0,2.65.62c.19-1.25.44-2.84.78-4.68.47-2.52.61-2.94.94-3.43.74-1.12,1.84-1.68,4.05-2.81,1.24-.63,1.87-.94,2.19-.77.65.33.92,2-.63,7.64a1.47,1.47,0,0,0,.47,2,1.44,1.44,0,0,0,1.56-1.1,42.94,42.94,0,0,0,2.34-8.57c.23-1.43.38-2.79.47-4.06a1.37,1.37,0,0,0-.47-.78c-.67-.51-2-.26-3.12.78l-3,2c-3.3,2.24-4,2.67-4.37,3C255.21,152.36,253.4,155,253,161.28Z" transform="translate(-217.68 -122.05)"/><path class="cls-5" d="M284.83,161.31a1.39,1.39,0,0,1-1.09,1.4,1.4,1.4,0,0,1-1.56-.78c-.19-1.25-.44-2.84-.78-4.68-.46-2.53-.61-2.94-.93-3.43-.75-1.12-1.85-1.68-4.06-2.81-1.24-.63-1.86-.94-2.18-.78-.65.33-.93,2,.62,7.65a1.46,1.46,0,0,1-.47,2,1.44,1.44,0,0,1-1.56-1.09,43.54,43.54,0,0,1-2.34-8.58c-.23-1.42-.38-2.78-.47-4a1.37,1.37,0,0,1,.47-.78c.67-.51,2-.26,3.12.78l3,2c3.29,2.24,4,2.67,4.36,3C282.58,152.39,284.39,155,284.83,161.31Z" transform="translate(-217.68 -122.05)"/><path class="cls-5" d="M267.62,157.54c.36.14.16,1.44-.15,3.43s-.49,3.1-.78,3.12c-.48,0-1.44-2.3-.78-4.37C266.3,158.49,267.25,157.39,267.62,157.54Z" transform="translate(-217.68 -122.05)"/><path class="cls-5" d="M269.19,155.49c-.54,1.11.33,1.78.15,3.43-.12,1.13-.61,1.49-.31,2.2.19.49.7,1,1.09.92.81-.18.92-2.79.78-4.37,0-.49-.27-2.87-.94-2.94C269.58,154.69,269.23,155.4,269.19,155.49Z" transform="translate(-217.68 -122.05)"/><path class="cls-5" d="M231,175.63c1-.35,1.85,4.64,6.39,7.17,5.34,3,11.22,0,11.54,1.1s-4.92,5-10.45,4a9.65,9.65,0,0,1-5.46-2.81C229.7,181.63,229.92,176,231,175.63Z" transform="translate(-217.68 -122.05)"/><path class="cls-5" d="M302.25,175.79c-1-.31-1.76,3.91-5.62,6.86-4.83,3.69-10.48,2.34-10.6,3.59-.1,1.07,4,3.08,8,2.49a10.66,10.66,0,0,0,8.11-6.55C303.21,179.41,303.1,176.05,302.25,175.79Z" transform="translate(-217.68 -122.05)"/><path class="cls-5" d="M232.84,195.91l3.43,2.49a29.87,29.87,0,0,0,9.36-9.67c-2.36,1.51-4.9,3-7.64,4.53Q235.35,194.69,232.84,195.91Z" transform="translate(-217.68 -122.05)"/><path class="cls-5" d="M299.13,197.78l-3.74,2.49A29.33,29.33,0,0,1,286,190.6c2.28,1.51,4.83,3,7.64,4.53C295.55,196.12,297.38,197,299.13,197.78Z" transform="translate(-217.68 -122.05)"/><path class="cls-9" d="M256.86,202.46a11,11,0,0,1-2.81-3.28c-3-5.52-.67-13.36,2.34-18.09,1.2-1.88,2.11-2.66,2.81-4.84.29-.91,1.54-4.83-.16-8.11-1.2-2.32-3.09-2.77-9.2-5.77s-6.17-3.52-8.58-4.52c-3.18-1.32-9.8-3.22-20.39-.33" transform="translate(-217.68 -122.05)"/><path class="cls-9" d="M277.38,201.35a11,11,0,0,0,2.81-3.27c3-5.53.67-13.37-2.34-18.1-1-1.58-2.28-2.6-2.81-4.83a10.36,10.36,0,0,1,.69-6.38c1.48-3,4.14-3.63,11.7-7,8.45-3.8,7.48-4.1,10.61-5a31.56,31.56,0,0,1,15.33-.34" transform="translate(-217.68 -122.05)"/><path class="cls-9" d="M263.53,191.14" transform="translate(-217.68 -122.05)"/><path class="cls-10" d="M279.55,212.36" transform="translate(-217.68 -122.05)"/><path class="cls-11" d="M266.14,194.89l.32,2.58c.81.2,1.64.43,2.49.7a48.77,48.77,0,0,1,7.33,3A26.49,26.49,0,0,0,268,199a14.58,14.58,0,0,0-3.74,0,13.79,13.79,0,0,0-6.86,3.12,20.24,20.24,0,0,1,4.67-3.28,20.48,20.48,0,0,1,3.59-1.4Z" transform="translate(-217.68 -122.05)"/><path class="cls-12" d="M243.29,144.12a53.57,53.57,0,0,0-24.18-16.69,71.17,71.17,0,0,0,3,28.08,48.48,48.48,0,0,1,21.21-11.39Z" transform="translate(-217.68 -122.05)"/><path class="cls-12" d="M292.73,145.06a69.55,69.55,0,0,1,20,10.14,43.31,43.31,0,0,0,3.74-20A42.12,42.12,0,0,0,314.26,124a67,67,0,0,0-8.58,6.24A68.16,68.16,0,0,0,292.73,145.06Z" transform="translate(-217.68 -122.05)"/><path class="cls-12" d="M259,177" transform="translate(-217.68 -122.05)"/><path class="cls-3" d="M251.56,163.62a16.51,16.51,0,0,1,6.7,14.19,16.28,16.28,0,0,0,.94-3.74c.27-2.1.55-4.23-.62-6.08a8.32,8.32,0,0,0-3-2.5A17.33,17.33,0,0,0,251.56,163.62Z" transform="translate(-217.68 -122.05)"/><path class="cls-3" d="M283.13,164.06a15,15,0,0,0-6.31,14.22,12.66,12.66,0,0,1-1.34-3.77c-.27-1.5-.71-4,.63-6.09a8.17,8.17,0,0,1,3-2.49A17,17,0,0,1,283.13,164.06Z" transform="translate(-217.68 -122.05)"/><path class="cls-13" d="M259.12,186.94l14.37-.38a27.87,27.87,0,0,0,1.62-15.77,19.46,19.46,0,0,0-15.91.63,27,27,0,0,0-1.09,5.93A27.7,27.7,0,0,0,259.12,186.94Z" transform="translate(-217.68 -122.05)"/><path class="cls-14" d="M265.52,185.38c3.21-.24,7.67.25,8,1.71.18.95-1.41,2.08-1.56,2.19-1.23.86-1.86.36-2.65,1.09-1.13,1-.3,2.46-1.56,3.59a2.39,2.39,0,0,1-1.87.62c-.64-.14-1-.67-1.41-1.25-1.06-1.57-.61-2.39-1.4-3s-1.59.16-2.65-.47a2.43,2.43,0,0,1-1.25-2.18C259.48,185.82,264.6,185.44,265.52,185.38Z" transform="translate(-217.68 -122.05)"/><path class="cls-15" d="M262.11,211.92a39.79,39.79,0,0,0,6.47.43,38.67,38.67,0,0,0,7-.74l1,3.1a25.26,25.26,0,0,1-8,1.23,25.88,25.88,0,0,1-6.47-.88Z" transform="translate(-217.68 -122.05)"/><circle class="cls-2" cx="37.72" cy="65.43" r="0.23"/><circle class="cls-2" cx="37.56" cy="68.54" r="0.23"/><circle class="cls-2" cx="40.06" cy="67.3" r="0.23"/><circle class="cls-2" cx="40.06" cy="70.26" r="0.23"/><circle class="cls-2" cx="37.56" cy="72.44" r="0.23"/><circle class="cls-2" cx="60.49" cy="65.58" r="0.23"/><circle class="cls-2" cx="60.65" cy="68.7" r="0.23"/><circle class="cls-2" cx="58.15" cy="67.45" r="0.23"/><circle class="cls-2" cx="58.15" cy="70.42" r="0.23"/><circle class="cls-2" cx="60.65" cy="72.6" r="0.23"/><path class="cls-16" d="M236.3,172.58,253,172.2a14.12,14.12,0,0,0-7-4.77,10,10,0,0,0-5.78-.15,5.38,5.38,0,0,0-3.58,2.49A4.41,4.41,0,0,0,236.3,172.58Z" transform="translate(-217.68 -122.05)"/><path class="cls-16" d="M297.57,173l-16.67-.38a14.21,14.21,0,0,1,7-4.76,9.92,9.92,0,0,1,5.77-.16,5.38,5.38,0,0,1,3.59,2.5A4.45,4.45,0,0,1,297.57,173Z" transform="translate(-217.68 -122.05)"/><path class="cls-2" d="M229.72,242.32c-8.11,5.71-12.91,14.6-11.67,23.07,2.07,14.18,20.49,23.22,26.51,19.49a4.91,4.91,0,0,0,2.34-3.74c.37-6.94-18.07-9-20.12-17.78-.77-3.3.56-8.42,9.88-16.37Z" transform="translate(-217.68 -122.05)"/><line class="cls-17" x1="28.91" y1="158" x2="25.16" y2="156.28"/><line class="cls-17" x1="27.89" y1="161.04" x2="23.37" y2="158.7"/><line class="cls-17" x1="25.63" y1="163.49" x2="21.5" y2="161.04"/><path class="cls-2" d="M108,752" transform="translate(-217.68 -122.05)"/><path class="cls-18" d="M217.5,214.93" transform="translate(-217.68 -122.05)"/><path class="cls-19" d="M248.67,293q-2.22,12.69-3.85,26.3a498.32,498.32,0,0,0-2.33,92.19h11.13c-5.05-46.21.59-72.63,5.27-86.62,1.87-5.61,5.88-17.3,10.92-17.2,4.09.07,7.37,7.87,10.12,17,4.38,14.53,9.93,40.78,9.51,85.4H302.8c-.86-23.81-2.88-49.44-6.58-76.6-1.87-13.75-4.05-27-6.45-39.64l-20.22-.41Z" transform="translate(-217.68 -122.05)"/><path class="cls-2" d="M243.51,411.23c-.29,3.93,2.62,6.64,4.85,6.48s4.44-2.89,4-6.48Z" transform="translate(-217.68 -122.05)"/><path class="cls-2" d="M290.86,410a5.46,5.46,0,1,0,10.73,0Z" transform="translate(-217.68 -122.05)"/><line class="cls-17" x1="78.64" y1="294.45" x2="78.64" y2="291.21"/><line class="cls-17" x1="81.37" y1="293.53" x2="81.37" y2="291.31"/><line class="cls-17" x1="75.71" y1="293.53" x2="75.5" y2="291.31"/><line class="cls-17" x1="29.57" y1="295.56" x2="29.57" y2="292.52"/><line class="cls-17" x1="32.2" y1="295.15" x2="31.99" y2="292.52"/><line class="cls-17" x1="27.14" y1="293.74" x2="27.34" y2="292.52"/><path class="cls-20" d="M247.55,299.32a52.68,52.68,0,0,0,43.31.81l.61,2.63a56.18,56.18,0,0,1-44.32-.61Z" transform="translate(-217.68 -122.05)"/><polygon class="cls-20" points="12.06 120.2 18.94 124.86 17.83 125.94 10.99 121.03 12.06 120.2"/><polygon class="cls-15" points="25.82 289.18 34.73 289.18 34.73 290.74 25.88 290.74 25.82 289.18"/><polygon class="cls-15" points="73.18 287.97 83.9 287.97 83.9 289.39 73.14 289.39 73.18 287.97"/><path class="cls-2" d="M306.7,241.87c8.48,5.14,13.89,13.67,13.25,22.2-1.08,14.29-18.83,24.59-25.1,21.3a5,5,0,0,1-2.59-3.58c-.85-6.9,17.4-10.2,18.83-19.13.54-3.35-1.14-8.37-11-15.65Z" transform="translate(-217.68 -122.05)"/><line class="cls-17" x1="74.81" y1="158.63" x2="78.43" y2="156.66"/><line class="cls-17" x1="76.03" y1="161.6" x2="80.38" y2="158.95"/><line class="cls-17" x1="78.46" y1="163.88" x2="82.41" y2="161.15"/><polygon class="cls-20" points="88.98 119.75 82.44 124.88 83.63 125.89 90.11 120.51 88.98 119.75"/><path d="M258.13,224.83a42.63,42.63,0,0,0,25.11,0,95.62,95.62,0,0,1,11.7,4.37,94.47,94.47,0,0,1,15.6,8.89l-12.17,11.39q-7.92-9.81-11.38-8.43-7.49,3,5.89,58.27a52.76,52.76,0,0,1-46.74-.81q12.53-53.68,5-56.68-3.41-1.35-10.92,7.65l-14.81-10a114,114,0,0,1,18.56-9.82A112.79,112.79,0,0,1,258.13,224.83Z" transform="translate(-217.68 -122.05)"/></g></g></svg>
